<svg width="214" height="93" viewBox="0 0 214 93" fill="none" xmlns="http://www.w3.org/2000/svg">
<path d="M1.35381 53.9339C2.26319 52.215 3.52047 50.8544 5.13255 49.8486C6.74118 48.8427 8.53238 48.3398 10.5061 48.3398C11.9115 48.3398 13.2963 48.5052 14.6638 48.8359C16.0313 49.1666 17.1715 49.5661 18.0912 50.038L16.0692 55.8078C15.6593 55.1636 15.0255 54.3404 14.1643 53.3345C13.3066 52.3287 12.411 51.4262 11.4844 50.6271C10.5578 49.8279 9.78966 49.3594 9.18686 49.2217C8.32915 49.2217 7.54722 49.5386 6.84452 50.1724C6.14182 50.8062 5.58379 51.6949 5.17388 52.8385C4.76398 53.9821 4.56074 55.2738 4.56074 56.7171C4.56074 58.436 4.89832 60.334 5.57002 62.4111C6.24516 64.4916 7.20965 66.2622 8.47038 67.7261C9.73111 69.1901 11.1882 69.9238 12.8485 69.9238C13.9818 69.9238 14.8774 69.4553 15.5422 68.5184C16.207 67.5814 16.7237 66.5963 17.0957 65.5595L18.2393 68.6045C17.2817 69.3279 16.2655 69.8893 15.1943 70.2889C14.1195 70.6885 12.814 70.8883 11.2709 70.8883C9.0663 70.8883 7.10631 70.3854 5.40123 69.3795C3.6927 68.3737 2.36652 67.0131 1.41926 65.2942C0.471988 63.5754 7.71225e-05 61.6843 7.71225e-05 59.6141C-0.0068121 57.5438 0.447877 55.6493 1.35381 53.9339Z" fill="white"/>
<path d="M21.3928 66.9383L26.7216 52.4158L25.4919 48.7852H30.149L36.3562 66.9968L39.2566 70.4518H30.18L31.7025 67.0554L30.8242 64.3892H23.2701L22.3332 66.9383L24.0038 70.4518H17.7656L21.3928 66.9383ZM30.4969 63.5109L27.1866 53.7316L23.5836 63.5109H30.4969Z" fill="white"/>
<path d="M42.5644 48.7852L41.0419 52.1815L45.7851 66.1495L50.5008 52.2987L48.744 48.7852H54.9822L51.4377 52.2987L45.2581 70.4518H42.5919L36.3847 52.2401L33.4844 48.7852H42.5644Z" fill="white"/>
<path d="M57.6429 66.9383V52.2987L55.0078 48.7852H64.6699L62.0348 52.2987V66.9383L64.6699 70.4518H55.0078L57.6429 66.9383Z" fill="white"/>
<path d="M68.365 66.9383L73.6938 52.4158L72.4641 48.7852H77.1212L83.3284 66.9968L86.2288 70.4518H77.1488L78.6713 67.0554L77.7929 64.3892H70.2389L69.3019 66.9383L70.9726 70.4518H64.7344L68.365 66.9383ZM77.4726 63.5109L74.1623 53.7316L70.5592 63.5109H77.4726Z" fill="white"/>
<path d="M88.2992 52.2987L85.6641 48.7852H94.3032C97.2311 48.7852 99.4425 49.4052 100.934 50.6452C102.429 51.8853 103.173 53.5181 103.173 55.5504C103.173 57.2692 102.643 58.7091 101.578 59.8699C100.514 61.0308 98.9362 61.7782 96.8487 62.1089L99.9248 62.9012L102.122 66.9727L105.987 70.4587H96.6455L97.4963 66.9452L95.1815 62.288L94.3032 62.3156H92.6911V66.9417L95.3262 70.4552H85.6641L88.2992 66.9417V52.2987ZM97.3034 59.8114C97.9958 58.7263 98.3437 57.3071 98.3437 55.5504C98.3437 53.7936 97.9958 52.3744 97.3034 51.2894C96.611 50.2043 95.6087 49.6635 94.3032 49.6635H92.6911V61.4338H94.3032C95.6121 61.4372 96.611 60.893 97.3034 59.8114Z" fill="white"/>
<path d="M116.526 66.9398V52.3002L113.891 48.7867H123.553L120.918 52.3002V59.1825H128.237V52.2967L125.602 48.7832H135.264L132.629 52.2967V66.9363L135.264 70.4498H125.602L128.237 66.9363V60.054H120.918V66.9363L123.553 70.4498H113.891L116.526 66.9398Z" fill="white"/>
<path d="M141.511 69.3776C139.802 68.3718 138.476 67.0111 137.529 65.2923C136.581 63.5734 136.109 61.6823 136.109 59.6121C136.109 57.5419 136.581 55.6508 137.529 53.9319C138.476 52.2131 139.802 50.8524 141.511 49.8466C143.219 48.8408 145.176 48.3379 147.38 48.3379C149.585 48.3379 151.541 48.8339 153.25 49.8294C154.958 50.8249 156.284 52.1821 157.232 53.9009C158.179 55.6198 158.651 57.5212 158.651 59.6121C158.651 61.6823 158.176 63.5734 157.232 65.2923C156.284 67.0111 154.958 68.3718 153.25 69.3776C151.541 70.3834 149.585 70.8863 147.38 70.8863C145.176 70.8829 143.219 70.3834 141.511 69.3776ZM153.078 56.8151C152.402 54.7345 151.438 52.964 150.177 51.5C148.916 50.0361 147.459 49.3058 145.799 49.3058C144.783 49.3058 143.887 49.6124 143.105 50.229C142.323 50.8421 141.724 51.7136 141.304 52.8331C140.884 53.956 140.673 55.2478 140.673 56.7117C140.673 58.4306 141.011 60.3286 141.683 62.4057C142.358 64.4862 143.322 66.2568 144.583 67.7207C145.844 69.1847 147.301 69.9184 148.961 69.9184C149.977 69.9184 150.873 69.6118 151.655 68.9952C152.437 68.3821 153.036 67.5106 153.456 66.3877C153.877 65.2647 154.087 63.973 154.087 62.509C154.087 60.7936 153.749 58.8922 153.078 56.8151Z" fill="white"/>
<path d="M166.05 52.2967V64.9178C166.05 66.4403 166.416 67.67 167.149 68.6069C167.88 69.5439 169.009 70.0124 170.532 70.0124C171.507 70.0124 172.392 69.7816 173.181 69.3234C173.973 68.8653 174.59 68.2487 175.041 67.4771C175.489 66.7055 175.716 65.8513 175.716 64.9143V52.2967L173.081 48.7832H179.23L176.594 52.2967V64.9178C176.594 66.051 176.346 67.0638 175.847 67.9628C175.351 68.8618 174.597 69.5749 173.591 70.1019C172.585 70.6289 171.359 70.8942 169.915 70.8942C168.138 70.8942 166.629 70.6289 165.393 70.1019C164.152 69.5749 163.219 68.8618 162.595 67.9628C161.972 67.0638 161.659 66.051 161.659 64.9178V52.2967L159.023 48.7832H168.686L166.05 52.2967Z" fill="white"/>
<path d="M183.812 65.8606C184.728 66.8665 185.675 67.7724 186.654 68.5853C187.629 69.3948 188.421 69.8702 189.027 70.0045C189.768 70.0045 190.326 69.7255 190.698 69.1709C191.07 68.6129 191.256 67.8585 191.256 66.9009C191.256 66.1982 191.035 65.53 190.598 64.8961C190.16 64.2623 189.613 63.6733 188.958 63.1256C188.304 62.5779 187.432 61.9166 186.337 61.1346C185.011 60.177 183.957 59.3641 183.175 58.689C182.393 58.0138 181.725 57.2353 181.17 56.3466C180.612 55.4579 180.336 54.4969 180.336 53.4635C180.336 51.8238 180.936 50.5597 182.138 49.671C183.34 48.7822 185.011 48.3379 187.16 48.3379C188.82 48.3379 190.36 48.5032 191.786 48.8339C193.212 49.1646 194.39 49.5642 195.331 50.0361L193.309 55.8058C192.92 55.1823 192.293 54.366 191.435 53.3601C190.577 52.3543 189.702 51.4484 188.814 50.6355C187.925 49.826 187.226 49.3506 186.719 49.2163C186.113 49.2163 185.658 49.4815 185.359 50.0085C185.055 50.5356 184.904 51.2073 184.904 52.0271C184.904 52.6712 185.114 53.2947 185.534 53.9009C185.955 54.5072 186.482 55.0756 187.115 55.6129C187.749 56.1503 188.603 56.8082 189.678 57.5901C191.004 58.565 192.079 59.4054 192.899 60.1081C193.719 60.8108 194.411 61.6169 194.979 62.5228C195.544 63.4322 195.83 64.4105 195.83 65.4645C195.83 69.0779 193.515 70.8829 188.889 70.8829C186.936 70.8829 185.176 70.7175 183.605 70.3869C182.035 70.0562 180.781 69.6532 179.844 69.1847L181.866 63.415C182.241 64.0384 182.896 64.8548 183.812 65.8606Z" fill="white"/>
<path d="M199.826 66.9363V52.2967L197.191 48.7832H213.443L214.001 54.143L206.006 49.6616H204.218V58.8862H206.006L211.541 55.6931V62.9543L206.006 59.7612H204.218V69.5714H206.295L213.997 65.09L213.439 70.4498H197.188L199.826 66.9363Z" fill="white"/>
<path d="M111.382 17.6862C111.954 17.6862 112.188 17.4037 112.35 17.2108L112.419 17.607H112.849V15.9122H111.551V16.4392H112.274C112.14 17.0696 111.664 17.1316 111.52 17.1316C111.075 17.1316 110.614 16.9077 110.614 16.0535C110.614 15.2474 111.041 14.9236 111.506 14.9236C111.967 14.9236 112.188 15.3197 112.188 15.4403H112.839C112.801 15.0063 112.429 14.3828 111.471 14.3828C111.468 14.3828 111.464 14.3828 111.461 14.3828C110.417 14.3828 109.945 15.1889 109.945 16.0397C109.949 17.1454 110.634 17.6862 111.382 17.6862Z" fill="#D8AD38"/>
<path d="M131.071 28.6454C130.723 28.0633 130.041 28.139 129.452 28.1218C129.383 28.1287 129.372 28.0495 129.393 28.0081C129.703 27.7154 129.91 27.3709 129.875 26.9472C129.927 26.5063 129.427 26.2548 129.596 25.8243C129.769 25.5969 129.913 25.3317 129.837 25.0148C129.803 24.6428 129.39 24.6497 129.166 24.4464C129.028 24.35 128.98 24.1881 128.832 24.1295C128.477 24.04 128.001 24.0985 127.843 23.6989C127.774 23.4509 127.805 23.1822 127.981 22.9962C128.553 22.4417 129.552 22.8343 130.11 22.2212C130.619 21.8147 130.347 21.0845 130.316 20.5402C130.444 19.9271 130.695 19.2829 130.506 18.6354C129.924 17.1163 128.604 15.8969 127.485 14.6534C126.899 14.0265 126.386 13.248 126.672 12.3524C126.727 12.2697 126.806 12.1595 126.934 12.2146C126.982 12.2559 127.033 12.3042 127.023 12.3696C127.099 12.6107 126.844 12.7072 126.854 12.9104C126.992 13.5373 127.244 14.1126 127.66 14.612C127.743 14.7085 127.778 14.5569 127.836 14.5156C127.877 14.4984 127.926 14.5018 127.957 14.55C128.012 14.7292 128.112 14.898 128.222 15.0667C128.487 15.4525 128.897 15.6317 129.348 15.5593C129.39 15.5593 129.438 15.5421 129.438 15.4939C129.317 15.0908 129.4 14.6637 129.403 14.2573C129.469 13.8749 128.938 13.6992 129.121 13.2962C129.197 13.093 129.441 13.093 129.638 13.093V12.9896C129.462 12.6245 129.386 12.2284 129.297 11.8322C129.08 11.2432 128.453 11.164 127.967 11.0021C127.743 10.8712 127.543 10.6576 127.299 10.606C126.947 10.4682 126.717 10.7679 126.4 10.8057C126.255 10.854 126.21 10.8333 126.128 10.9298L126.107 10.947C125.487 11.567 125.173 12.4385 125.408 13.3203C125.969 15.301 128.005 16.6375 128.701 18.5492C128.863 19.0728 128.931 19.717 128.756 20.2543C128.687 20.3887 128.57 20.5092 128.422 20.5127C128.215 20.5092 128.043 20.3577 127.933 20.1958C127.774 19.7204 127.667 19.2244 127.282 18.8489C126.689 18.2254 125.859 18.1428 125.194 17.6605C124.099 16.8545 123.475 15.7281 123.441 14.3813C123.427 14.1401 123.568 13.899 123.796 13.8095C123.992 13.7268 124.233 13.7268 124.457 13.713L124.474 13.6648C124.433 13.4237 124.374 13.1068 124.481 12.8794L124.536 12.8381C124.767 12.8622 125.015 12.8794 125.249 12.8346C125.297 12.7864 125.256 12.7072 125.246 12.6486C125.191 12.4316 125.098 12.2112 125.105 11.9804C125.142 11.9735 125.177 11.9907 125.211 12.0079C125.26 12.032 125.301 12.0561 125.332 12.0114C125.325 11.6703 125.27 11.3018 125.39 11.0159C125.576 11.0262 125.787 11.04 125.976 10.9918C125.983 10.9918 125.99 10.9883 125.993 10.9883L126.1 10.8609C125.904 10.5198 125.979 10.0583 125.721 9.74826C125.731 9.71381 125.752 9.71725 125.78 9.7207C125.797 9.72414 125.818 9.72414 125.838 9.71381C126.086 9.8757 126.469 9.8826 126.768 9.78615C126.823 9.75515 126.868 9.67247 126.834 9.60358C126.682 9.45891 126.493 9.3039 126.438 9.09378C126.438 8.62531 126.255 8.25329 126.121 7.84683C126.196 7.71938 126.334 7.86405 126.455 7.87094C126.613 7.88128 126.803 7.92606 126.934 7.81238C126.968 7.47137 126.772 7.21646 126.648 6.93056C126.617 6.88233 126.627 6.79278 126.665 6.74111C126.751 6.59988 126.937 6.55855 126.992 6.39665C126.92 6.11075 126.627 5.91096 126.462 5.65261C126.434 5.59061 126.365 5.51483 126.42 5.44249C126.469 5.44249 126.513 5.45282 126.558 5.46316C126.634 5.48038 126.71 5.4976 126.796 5.46316C126.851 5.46316 126.892 5.39426 126.882 5.33226L126.506 4.83279C126.376 4.46766 126.114 4.10598 125.762 3.87175C125.776 3.81663 125.831 3.81663 125.886 3.81663C125.938 3.81663 125.993 3.82008 126.028 3.7753C126.014 3.53418 125.773 3.35161 125.583 3.23794C125.122 2.89692 124.464 3.11738 123.982 2.8177C123.641 2.7178 123.286 2.76602 122.928 2.81425C122.683 2.84869 122.435 2.8797 122.19 2.86592H122.115C122.008 2.86592 121.901 2.86592 121.794 2.86592C121.512 2.86936 121.229 2.87281 120.964 2.83491C120.554 2.5869 120.051 2.81425 119.71 3.05537C119.087 3.45839 118.319 3.21382 117.623 3.42739C117.399 3.48939 117.206 3.74429 117.178 3.97164C117.147 4.37121 117.185 4.80868 117.268 5.1807C117.416 5.59061 117.426 6.0453 117.668 6.40009C117.774 6.57921 117.953 6.66533 118.139 6.68944C118.339 6.69633 118.539 6.6791 118.739 6.66188C119.028 6.63777 119.314 6.61366 119.603 6.65499C119.772 6.73767 119.71 6.95123 119.71 7.10968C119.71 7.16824 119.641 7.20958 119.652 7.2578C119.559 7.41281 119.359 7.32325 119.238 7.30258C118.904 7.27158 118.66 6.97534 118.315 6.9719C118.153 6.99601 118.067 7.16824 117.974 7.27158C117.53 7.23713 117.158 6.83067 116.703 6.82378C116.414 6.56888 116.118 6.28297 115.725 6.31742C115.566 6.35875 115.525 6.6171 115.497 6.74111C115.535 7.1648 115.711 7.64015 116.076 7.88472C116.269 7.93639 116.431 7.88127 116.596 7.82616C116.758 7.77449 116.924 7.71938 117.127 7.76416C117.196 7.76761 117.275 7.75727 117.351 7.75038C117.554 7.72971 117.764 7.71249 117.905 7.84683C117.943 8.30152 118.029 8.73899 118.277 9.10411C118.667 9.33835 118.952 8.91121 119.297 8.81476C119.466 8.80098 119.641 8.78721 119.755 8.92155C119.862 9.30046 119.366 9.28668 119.173 9.45546C119.063 9.53813 119.135 9.70347 119.039 9.77926C118.773 9.76203 118.491 9.71725 118.226 9.76203C118.088 9.8447 118.074 10.01 118.084 10.1616L118.029 10.2202C118.009 10.2271 117.991 10.2305 117.971 10.2305C117.788 10.0996 117.561 10.1168 117.347 10.1031C117.051 10.0893 116.958 10.4165 116.834 10.6025C116.038 9.82748 115.163 9.15923 114.113 9.00078C113.124 8.96633 111.998 8.98011 111.429 9.91704C111.347 9.77926 111.354 9.26256 111.261 9.11789C110.985 8.63564 110.437 8.3773 109.872 8.45653C109.704 8.4393 109.535 8.55986 109.366 8.68387C109.149 8.83888 108.935 8.99389 108.712 8.85954C108.491 8.7631 108.47 8.71143 108.436 8.47719C108.391 8.17751 108.474 7.89161 108.732 7.71594C109.277 7.37147 109.859 6.83756 110.017 6.20719C110.234 5.30126 110.227 4.1852 109.783 3.36883C109.711 3.21727 109.452 3.13804 109.507 2.91759C109.686 2.49734 109.89 2.07366 110.189 1.71197C110.427 1.69475 110.661 1.63964 110.789 1.42952C110.885 1.26762 110.906 1.02994 110.827 0.854263C110.751 0.726812 110.62 0.630365 110.492 0.571807C110.282 0.520138 110.069 0.571808 109.921 0.723371C109.769 0.899046 109.711 1.16428 109.804 1.39163C109.776 1.47774 109.69 1.55352 109.611 1.61552C109.483 1.70853 109.294 1.69131 109.177 1.60175C109.063 1.54663 109.073 1.42607 109.06 1.3124C109.115 1.20217 109.256 1.21595 109.352 1.14361C109.549 0.99894 109.642 0.775041 109.6 0.530473C109.566 0.330686 109.376 0.165341 109.194 0.0964487C109.049 0.058558 108.891 0.0964481 108.76 0.155007C108.563 0.272123 108.47 0.468467 108.484 0.688923C108.477 0.868042 108.608 1.00238 108.663 1.15395C108.663 1.27106 108.588 1.36407 108.501 1.42607C108.408 1.47774 108.267 1.50874 108.157 1.47429C108.067 1.45707 107.995 1.37785 107.943 1.29862C107.813 1.06439 108.123 1.05405 108.195 0.885268C108.298 0.706148 108.302 0.444353 108.202 0.261789C108.102 0.0998919 107.906 0 107.709 0C107.62 0 107.527 0.0206685 107.447 0.0654485C107.251 0.179121 107.148 0.378906 107.165 0.595917C107.158 0.816372 107.299 0.99205 107.485 1.0885C107.53 1.20562 107.451 1.28484 107.392 1.35718C107.265 1.47774 107.079 1.48463 106.941 1.41918C106.851 1.34684 106.727 1.2435 106.741 1.12294C106.845 1.02994 106.92 0.90938 106.941 0.771595C106.986 0.547695 106.893 0.361683 106.741 0.213564C106.593 0.0895583 106.373 0.0654464 106.173 0.117116C106.008 0.189452 105.825 0.354797 105.804 0.55114C105.76 0.799152 105.873 1.02649 106.073 1.16083C106.152 1.22284 106.252 1.19873 106.324 1.27795C106.355 1.3434 106.307 1.4054 106.3 1.46396C106.221 1.5983 106.087 1.65686 105.946 1.64652C105.804 1.60519 105.656 1.51907 105.605 1.38129C105.687 1.1505 105.663 0.881822 105.501 0.695813C105.363 0.540806 105.122 0.502912 104.926 0.558026C104.757 0.609695 104.602 0.771592 104.557 0.940378C104.53 1.0885 104.54 1.26762 104.623 1.39507C104.75 1.62241 104.988 1.69475 105.215 1.68442C105.367 1.88765 105.47 2.12533 105.594 2.34578C105.642 2.45256 105.629 2.55935 105.58 2.66268C105.233 2.99681 105.129 3.44461 105.098 3.90619C104.867 4.13698 104.602 4.36088 104.464 4.65367C104.203 5.14625 104.258 5.84895 104.564 6.30364C104.678 6.42076 104.509 6.51032 104.53 6.63088C104.561 7.19924 105.15 7.53337 105.608 7.68493C105.715 7.73316 105.866 7.69182 105.956 7.77794C105.997 7.98806 105.942 8.17407 105.918 8.36697C105.849 8.62876 105.642 8.92844 105.367 8.98355C104.909 8.72521 104.244 8.66665 103.744 8.89744C103.118 9.16612 102.852 9.86537 102.856 10.5336C102.835 10.606 102.759 10.6473 102.687 10.6163C102.449 10.1444 102.143 9.64147 101.643 9.37279C100.927 8.956 99.9347 8.94566 99.0977 9.11445C98.271 9.43824 97.5717 10.0652 96.8725 10.6714C96.8001 10.5853 96.7898 10.4647 96.7278 10.3821C96.6107 10.1341 96.3627 10.1513 96.125 10.1685C96.0251 10.1754 95.9252 10.1823 95.8425 10.1719C95.722 10.1616 95.6048 10.0893 95.6117 9.9446C95.4705 9.7517 95.2294 9.7827 94.9951 9.8137C94.8884 9.82748 94.7816 9.84126 94.6851 9.83437C94.5852 9.75859 94.661 9.58636 94.5405 9.4968C94.3407 9.37279 94.0754 9.37624 93.9376 9.15234C93.8963 9.06622 93.9652 9.00422 94.0169 8.93877C94.4164 8.70454 94.7575 9.07311 95.0985 9.2109C95.2259 9.24534 95.3809 9.23501 95.4636 9.13167C95.5876 8.88021 95.7013 8.62876 95.753 8.35319C95.7702 8.22574 95.7357 8.00528 95.8666 7.91572C96.1043 7.80894 96.3902 7.82616 96.6658 7.80894C96.8105 7.80549 96.9138 7.84338 97.0275 7.88472C97.1652 7.93294 97.3168 7.98117 97.5579 7.95017C97.8335 7.81927 97.8921 7.55404 97.9885 7.34392C98.0884 7.08557 98.2606 6.68255 97.9885 6.44832C97.582 6.35876 97.2824 6.68944 96.9896 6.92367C96.5659 6.9409 96.2628 7.23024 95.8666 7.31636C95.7013 7.39903 95.66 7.20958 95.5807 7.12346C95.3293 6.89956 95.0468 7.15102 94.8229 7.25435C94.6059 7.3198 94.3613 7.4507 94.1237 7.36803C94.0203 7.30258 94.0134 7.19924 93.9997 7.09246C94.0272 6.94089 93.9618 6.74456 94.1512 6.68255C94.3372 6.64811 94.5267 6.66877 94.723 6.68944C94.8505 6.70322 94.9814 6.717 95.1123 6.71355C95.188 6.70666 95.2707 6.71355 95.3568 6.72044C95.5153 6.73422 95.6703 6.748 95.7908 6.65499C96.3179 6.26575 96.2662 5.61127 96.4522 5.07047C96.5246 4.61234 96.6692 3.94064 96.2869 3.58929C95.7667 3.24138 95.0572 3.45495 94.4612 3.28616C93.9514 3.1966 93.6173 2.69713 93.0558 2.76947C92.6804 2.92448 92.2291 2.91414 91.7882 2.90036C91.616 2.89692 91.4472 2.89003 91.2887 2.89692C90.7824 2.85903 90.2864 2.73847 89.7766 2.82803C89.4528 3.04504 89.0084 3.0037 88.6433 3.05537C88.2368 3.13804 87.789 3.34472 87.6478 3.78218C87.7063 3.88208 87.8545 3.79941 87.9337 3.8683C87.8682 3.96819 87.7477 4.01298 87.6753 4.10943C87.2551 4.42633 87.2654 4.95335 86.8555 5.29093C86.8383 5.35293 86.7487 5.42182 86.8314 5.48382C86.9106 5.5286 86.9968 5.51138 87.0829 5.49416C87.1552 5.48038 87.2275 5.46316 87.293 5.49071C87.2654 5.72495 87.0725 5.86618 86.9279 6.05563C86.8418 6.2003 86.6867 6.31053 86.7109 6.48965C86.8314 6.62743 87.0519 6.71011 87.0725 6.92367L86.8418 7.43348C86.8073 7.58159 86.7315 7.78483 86.8245 7.91917C87.0656 7.99839 87.3102 7.90194 87.5238 7.83994C87.696 7.98461 87.479 8.15685 87.4514 8.31874C87.3412 8.61154 87.2964 8.93188 87.262 9.24879C87.2172 9.46924 86.921 9.57603 86.89 9.78615C87.0519 9.99971 87.3757 9.9136 87.6237 9.91015C87.7615 9.88604 87.8786 9.74481 88.0164 9.80337C88.0267 9.8826 87.9406 9.93426 87.9199 9.99971C87.7305 10.2959 87.8269 10.7024 87.6237 10.9849C87.7236 11.0641 87.8407 11.0985 87.9716 11.1158C88.1025 11.1399 88.2506 11.1192 88.3677 11.1571C88.4435 11.4809 88.3746 11.8254 88.3884 12.1492C88.5055 12.1526 88.6536 12.1733 88.7604 12.125C88.8086 12.1147 88.819 12.1733 88.819 12.2043C88.7156 12.3972 88.6019 12.5659 88.4745 12.7382V12.8036C88.5951 12.845 88.7053 12.9104 88.8327 12.9173C88.8913 12.9311 88.9533 12.9242 89.0119 12.9139C89.1117 12.9001 89.2082 12.8863 89.2771 12.9655C89.3908 13.217 89.315 13.5373 89.2909 13.7819C89.5389 13.775 89.7662 13.806 89.9763 13.8783C90.1865 13.9886 90.3174 14.1746 90.3242 14.4019C90.3346 15.5352 89.8799 16.51 89.0911 17.3195C88.3092 18.2392 87.0415 18.1876 86.3388 19.1831C85.9496 19.5895 86.1494 20.0959 85.612 20.4128C85.5052 20.4472 85.3778 20.4851 85.2572 20.4266C84.8783 20.1062 84.9541 19.6446 84.9851 19.1693C85.2917 17.23 87.1931 15.9313 88.0336 14.2021C88.4538 13.465 88.5193 12.3593 88.0439 11.6083C87.7787 11.1158 87.2551 10.8988 86.8004 10.7024C86.3871 10.606 86.0839 10.9194 85.767 11.1295C85.5052 11.2294 85.209 11.257 84.961 11.4086C84.2858 11.6772 84.5201 12.4488 84.1997 12.9242C84.1722 13.0206 84.1033 13.1171 84.1584 13.2066C84.1963 13.2101 84.2376 13.2101 84.279 13.2066C84.3478 13.2032 84.4167 13.1998 84.4753 13.2308C84.5545 13.2687 84.6544 13.341 84.6648 13.434C84.7302 13.6613 84.6269 13.8542 84.4925 14.0058C84.2548 14.4846 84.5407 15.1115 84.3926 15.6523C84.7612 15.7522 85.1436 15.6213 85.4053 15.3526C85.6465 15.1425 85.7016 14.8497 85.8738 14.6086C85.9806 14.581 85.9944 14.7292 86.0633 14.7464C86.5007 14.2194 86.8659 13.6234 86.8693 12.8966C86.7901 12.814 86.7212 12.721 86.704 12.6038C86.6936 12.4833 86.7109 12.3627 86.8176 12.3145C86.9244 12.2594 86.9968 12.3627 87.0588 12.4144C87.2758 12.969 87.1311 13.5993 86.8245 14.0609C85.7464 15.5731 84.1171 16.8786 83.4178 18.5665C83.1595 19.121 83.3041 19.8237 83.4798 20.3645C83.6451 20.7538 83.4454 21.1155 83.4419 21.4978C83.4006 21.8836 83.5556 22.2074 83.8863 22.4038C84.4374 22.8757 85.302 22.5381 85.8394 23.0548C86.0185 23.2408 86.077 23.5405 85.9909 23.7885C85.829 24.1846 85.3778 24.1433 85.0333 24.226L84.6579 24.5498C84.434 24.7254 84.0482 24.753 84.024 25.1078C83.993 25.3902 84.0757 25.6348 84.2583 25.8208C84.4615 26.1653 84.1308 26.4512 84.0482 26.7474C83.9173 27.2538 84.124 27.6981 84.496 28.015C84.5063 28.0426 84.5166 28.1046 84.4856 28.1356C83.8828 28.2183 83.2008 28.0702 82.8425 28.6833C82.6497 28.9623 82.66 29.386 82.7943 29.696C82.9597 30.0474 83.3214 30.2988 83.7072 30.3298L85.488 30.3367C85.488 30.3367 85.5259 30.3436 85.5604 30.3367L90.648 30.3608L93.2108 30.3677C93.4175 30.3884 93.6483 30.4228 93.7654 30.6226C93.8756 31.1979 93.2728 31.3253 93.2212 32.0521C93.2246 32.3897 93.3452 32.6756 93.6035 32.803C93.6724 32.7066 93.7758 32.5757 93.8653 32.5034C94.2132 32.214 94.6162 32.059 95.0709 32.0211C95.1192 32.028 95.1674 32.059 95.1812 32.1107C95.1949 32.4069 95.1536 32.7824 95.4154 32.9684C95.6427 32.8272 95.9183 32.8065 96.2042 32.7927C96.5452 32.4586 96.8242 32.1348 97.1446 31.7697C97.0964 31.6594 96.993 31.5768 97.0102 31.4597C97.0171 31.3976 97.0688 31.3356 97.1136 31.3081C97.1962 31.284 97.303 31.2564 97.3616 31.3494C97.5579 31.7662 97.21 32.0969 97.3065 32.5344H97.3547C97.7267 32.2795 98.1366 32.1245 98.6223 32.1313C98.7394 32.1348 98.8256 32.059 98.9117 31.9832C99.0184 31.8902 99.1218 31.7938 99.2871 31.8523C99.3733 31.8868 99.4077 31.9488 99.4559 32.0969C99.5179 32.3001 99.5179 32.4551 99.6764 32.6584C99.8658 32.8306 100.155 32.8892 100.42 32.8306C100.365 32.5826 100.348 32.307 100.482 32.0969C100.541 32.0005 100.637 31.904 100.765 31.9212C100.879 31.9557 100.885 32.0452 100.91 32.1072C100.951 32.2278 100.913 32.369 101.006 32.4551C101.406 32.6756 101.753 33.0993 101.939 33.492L101.984 33.4644C102.356 33.1854 102.711 32.8031 102.825 32.369C102.925 31.9385 102.556 31.346 103.045 31.0429C103.39 30.8155 103.899 30.8465 104.251 31.0497C104.602 31.2254 104.826 31.5802 104.861 31.9488C104.909 32.1934 104.816 32.431 104.616 32.5585C104.433 32.6343 104.206 32.5791 104.051 32.4379C103.999 32.3794 103.958 32.3484 103.972 32.2209C103.958 32.214 104.051 31.9832 103.955 31.9695C103.596 31.8902 103.317 32.1589 103.135 32.4276C102.876 32.9477 102.904 33.7055 103.293 34.143C103.727 34.6597 104.337 34.7148 105.143 34.4255L105.157 34.4702C105.226 34.6804 105.236 34.9077 105.312 35.1144C105.487 35.7551 106.035 36.3992 106.641 36.5956C106.662 36.599 106.686 36.6059 106.71 36.6162C106.81 36.6162 106.903 36.6059 106.986 36.5818C107.251 36.5198 107.427 36.3544 107.575 36.2167C108.133 35.6552 108.312 35.1385 108.433 34.5047L108.439 34.4427C108.867 34.5977 109.469 34.6528 109.9 34.4771C110.289 34.3325 110.541 34.112 110.647 33.5505C110.737 32.7583 110.572 32.4414 110.124 32.1382C109.955 32.0487 109.766 31.9936 109.618 31.9936C109.652 32.152 109.645 32.3725 109.49 32.4689C109.352 32.5791 109.135 32.6412 108.956 32.5654C108.687 32.3897 108.718 32.0073 108.774 31.7249C108.863 31.3632 109.225 31.0911 109.549 30.9602C109.9 30.8293 110.365 30.8603 110.647 31.1324C110.854 31.3115 110.813 31.6043 110.747 31.8282C110.572 32.5585 111.088 33.0683 111.591 33.4782L111.65 33.4851C111.812 33.0338 112.249 32.679 112.638 32.431C112.666 32.2657 112.68 32.0625 112.838 31.9591C112.921 31.9247 112.997 31.9591 113.055 32.0246C113.238 32.2416 113.283 32.6033 113.179 32.8582C113.475 32.9133 113.803 32.8582 114.006 32.6136C114.051 32.3966 114.168 32.2037 114.223 31.9832C114.261 31.904 114.35 31.873 114.43 31.8627C114.567 31.8558 114.667 31.9832 114.781 32.0728C115.139 32.2657 115.621 32.1417 115.973 32.3897C116.083 32.4448 116.204 32.5516 116.335 32.5688L116.331 32.431C116.393 32.0556 116.059 31.6835 116.317 31.346C116.386 31.3012 116.448 31.315 116.517 31.346C116.586 31.3666 116.645 31.4424 116.638 31.532C116.651 31.6422 116.493 31.6973 116.496 31.8076L117.447 32.8306C117.74 32.8478 118.029 32.8823 118.291 33.0201C118.425 32.9236 118.443 32.7548 118.481 32.6205C118.56 32.4379 118.381 32.0969 118.649 32.059C119.135 32.1382 119.603 32.2864 119.958 32.6446C120.003 32.7032 120.031 32.8031 120.106 32.8272C120.42 32.617 120.451 32.2347 120.403 31.9006C120.344 31.4252 119.786 31.1531 119.879 30.6571C119.972 30.4814 120.168 30.4125 120.358 30.3953L128.666 30.4022L130.258 30.3884C130.533 30.3126 130.809 30.1748 130.981 29.9268C131.257 29.5617 131.329 28.9933 131.071 28.6454ZM116.614 7.42658C116.579 7.44381 116.545 7.45414 116.507 7.46448C116.469 7.47136 116.431 7.4817 116.393 7.49203C116.262 7.49203 116.145 7.40936 116.073 7.2888C116.014 7.14413 115.963 6.95812 116.025 6.841C116.059 6.81344 116.114 6.80311 116.169 6.82723C116.386 6.9099 116.572 7.12691 116.734 7.33358C116.71 7.37147 116.665 7.39903 116.614 7.42658ZM109.38 4.36088C109.438 4.3471 109.49 4.36777 109.521 4.42288C109.549 4.54 109.535 4.67778 109.459 4.77423C109.452 4.77423 109.449 4.77423 109.445 4.77423C109.37 4.77423 109.359 4.68467 109.325 4.62956C109.308 4.55378 109.277 4.40566 109.38 4.36088ZM97.1308 7.18202C97.2583 7.06835 97.4925 7.05801 97.5786 7.23369C97.613 7.31291 97.6372 7.41281 97.6096 7.4817C97.5614 7.55748 97.5338 7.61604 97.458 7.61604C97.4443 7.61948 97.4339 7.61948 97.4236 7.61948C97.365 7.61948 97.334 7.59882 97.2996 7.58504C97.2066 7.55748 97.1239 7.47137 97.0791 7.38525C97.0585 7.31291 97.086 7.24402 97.1308 7.18202ZM127.788 20.8296C127.974 20.7469 128.122 20.957 128.301 20.9915C128.387 21.019 128.48 21.0328 128.573 21.0328C128.801 21.0328 129.028 20.9467 129.176 20.7641C129.617 20.1992 129.565 19.3863 129.424 18.6974C128.914 17.0508 127.474 15.8452 126.489 14.457C125.948 13.7853 125.711 12.7278 126.045 11.8874C126.272 11.443 126.713 10.9745 127.247 11.04C127.581 11.1847 127.85 11.474 128.205 11.567C128.453 11.6015 128.756 11.6152 128.911 11.8667C128.993 11.9976 129.035 12.2387 128.942 12.3696C128.739 12.5694 128.652 12.8208 128.642 13.0895C128.418 13.5339 128.993 13.8129 128.856 14.2848C128.811 14.3985 128.787 14.5432 128.649 14.581C128.408 14.4915 128.546 14.1677 128.332 14.0265C128.229 13.8887 128.039 13.9059 127.902 13.9266C127.674 13.4478 128.136 13.0792 128.057 12.5728C128.032 12.4351 128.074 12.2628 127.995 12.1595C127.895 12.1836 127.915 12.4006 127.771 12.3283C127.664 12.094 127.502 11.7806 127.226 11.7082C127.016 11.6669 126.768 11.6945 126.617 11.8219C126.245 12.1664 126.117 12.6038 126.207 13.1653C126.41 14.0024 126.847 14.5535 127.354 15.177C128.129 16.1139 129.055 16.9854 129.676 17.9947C129.717 18.0911 130.127 18.625 130.044 19.7376C130.013 20.1338 129.676 20.1131 129.769 21.2498C129.741 21.4599 129.538 21.6046 129.352 21.6528C128.838 21.7424 128.377 21.6632 128.077 22.1558L128.032 22.1489C128.036 21.7286 127.922 21.3738 127.771 21.0328C127.747 20.9674 127.743 20.8778 127.788 20.8296ZM128.122 24.8012C128.508 24.8667 128.983 24.9287 129.152 25.3592C129.21 25.6555 128.942 25.8208 128.935 26.0929C128.873 26.5717 129.221 26.9403 129.069 27.4157C129.038 27.612 128.89 27.7567 128.721 27.8704C128.491 27.9496 128.274 27.9083 128.05 27.8669C127.829 27.8256 127.609 27.7843 127.364 27.86C127.182 27.9048 127.12 28.0564 126.954 28.0564C126.923 28.0564 126.892 28.0529 126.854 28.0426C126.765 27.9909 126.699 27.8979 126.734 27.7911C126.837 27.6051 126.875 27.3364 127.109 27.2676C127.371 27.1057 127.809 27.2193 127.895 26.8129C127.939 26.4581 128.17 25.9104 127.743 25.683C127.085 25.3179 126.148 25.2387 125.673 24.5601C125.663 24.4878 125.601 24.4154 125.645 24.3327C125.756 24.0503 126.217 24.2156 126.283 23.8712C126.289 23.7919 126.334 23.7058 126.413 23.6783C126.551 23.6094 126.782 23.5818 126.909 23.7058C127.016 23.9711 127.175 24.2053 127.354 24.4326C127.55 24.6497 127.815 24.8288 128.122 24.8012ZM126.444 26.7888C125.9 26.8129 125.366 26.9989 125.105 27.5156C125.012 27.6981 124.998 27.9083 124.95 28.0977L124.887 28.1253L122.469 28.1322C122.152 28.1494 121.88 27.891 121.753 27.6155C121.581 26.9954 122.204 26.6785 122.411 26.1859C122.445 26.0413 122.452 25.8449 122.363 25.7347C122.211 25.5384 121.953 25.5108 121.715 25.5659C121.081 25.745 120.63 26.3685 119.924 26.3685C119.893 26.3685 119.862 26.3685 119.827 26.3651C119.755 26.3168 119.855 26.2445 119.872 26.1859C120.196 25.5487 121.212 26.1791 121.353 25.3765C121.426 24.97 121.164 24.7048 121.174 24.3327C121.088 24.195 121.012 24.0262 121.047 23.8712C121.209 23.6542 121.264 23.4096 121.302 23.1444C121.367 23.0445 121.477 23.0031 121.588 22.9893C121.856 23.041 122.073 23.2305 122.356 23.2511C122.614 23.3063 122.9 23.2821 123.179 23.2994C123.324 23.3717 123.372 23.5474 123.486 23.6542C124.095 24.3086 124.777 25.0044 125.607 25.2731C126.179 25.4832 126.799 25.59 127.33 25.9104C127.409 25.9689 127.499 26.0378 127.502 26.1377C127.468 26.4271 127.492 26.744 127.22 26.9128C127.058 26.9817 126.934 26.9196 126.806 26.8611C126.699 26.8094 126.586 26.7578 126.444 26.7888ZM126.5 27.24C126.486 27.3606 126.365 27.426 126.276 27.5569C126.138 27.8015 126.265 28.0977 125.952 28.1769C125.907 28.201 125.859 28.2148 125.807 28.2148C125.711 28.2148 125.611 28.1735 125.535 28.1184C125.47 28.0598 125.439 27.9806 125.459 27.9014C125.535 27.5603 125.838 27.2159 126.179 27.1573C126.2 27.1573 126.221 27.1573 126.241 27.1573C126.338 27.1573 126.441 27.1573 126.5 27.24ZM121.181 27.3847C121.171 27.5328 121.195 27.6465 121.04 27.7222C121.002 27.7291 120.968 27.7326 120.93 27.7326C120.84 27.7326 120.754 27.7085 120.678 27.6499C120.499 27.4742 120.406 27.2124 120.186 27.1091C120 27.054 119.727 27.1022 119.638 26.899C119.617 26.8886 119.624 26.8714 119.641 26.8542C119.886 26.6234 120.275 26.7956 120.568 26.6544C120.937 26.5166 121.326 26.3237 121.746 26.4098C121.746 26.4098 121.798 26.4271 121.798 26.4615C121.663 26.8714 121.123 26.8921 121.181 27.3847ZM115.508 14.9255C116.059 14.6258 116.607 14.3193 117.092 13.868C117.43 13.6407 117.626 13.5132 117.998 13.3272C118.136 13.279 118.298 13.31 118.415 13.3823C118.622 13.6166 118.353 13.8542 118.443 14.0954C118.487 14.1918 118.591 14.1367 118.663 14.1367C118.853 14.1022 119.111 13.9162 119.304 13.9989C119.345 14.0334 119.328 14.1091 119.328 14.1574C119.128 14.4157 118.77 14.488 118.67 14.8256C118.57 15.1356 118.315 15.4732 117.971 15.5145C117.581 15.5697 117.189 15.5145 116.92 15.8039C116.5 16.3619 115.852 16.8373 115.508 17.4194C115.384 17.7501 115.346 18.2254 115.601 18.5182C115.683 18.6457 115.79 18.811 115.711 18.9626C115.604 19.121 115.449 19.1589 115.28 19.1658C115.194 19.2726 115.208 19.3518 115.081 19.3759C115.012 19.4069 114.957 19.3863 114.905 19.3691C114.85 19.3518 114.798 19.3312 114.743 19.3691C114.66 19.4276 114.592 19.4758 114.505 19.4758C114.468 19.4758 114.43 19.469 114.381 19.4483C114.003 19.1073 114.147 18.4838 114.147 18.0119C114.158 17.4952 114.45 17.0887 114.657 16.6478C114.929 16.0726 114.902 15.3458 115.508 14.9255ZM114.96 14.7154L114.967 12.4902C114.964 12.3799 115.029 12.1698 115.181 12.2766C115.656 12.6073 116.345 12.814 116.545 13.4374C116.541 13.7785 116.217 14.0024 115.973 14.1884C115.68 14.4329 115.325 14.5294 115.053 14.7946C115.043 14.8015 115.032 14.8015 115.022 14.8015C114.981 14.8049 114.977 14.7429 114.96 14.7154ZM119.273 14.8532C119.194 14.8773 119.114 14.9152 119.032 14.9152C119.011 14.9152 118.99 14.9117 118.966 14.9083C118.904 14.8738 118.963 14.8187 118.97 14.7774C119.2 14.5535 119.521 14.5432 119.765 14.3434C119.776 14.3434 119.786 14.3434 119.796 14.3434C119.834 14.3434 119.872 14.3399 119.865 14.395C119.789 14.6672 119.486 14.7533 119.273 14.8532ZM119.514 15.4973C119.462 15.5387 119.393 15.5662 119.321 15.5662C119.3 15.5662 119.276 15.5628 119.256 15.5593C119.19 15.5214 119.142 15.4422 119.173 15.3595C119.249 15.27 119.366 15.2527 119.483 15.239L119.524 15.3044C119.541 15.3768 119.552 15.4353 119.514 15.4973ZM119.407 13.5373C119.256 13.62 119.097 13.7371 118.925 13.7371C118.897 13.7371 118.87 13.7337 118.842 13.7268C118.78 13.6786 118.828 13.5959 118.849 13.5477C119.001 13.2652 119.238 12.9827 119.541 12.8794C119.61 12.8794 119.71 12.8553 119.741 12.9345C119.8 13.1963 119.6 13.3892 119.407 13.5373ZM118.474 16.2655C118.394 16.2655 118.308 16.2482 118.264 16.1828C118.27 16.0691 118.405 16.0071 118.515 16.045C118.508 16.1105 118.574 16.2482 118.474 16.2655ZM114.95 25.6899L114.96 20.709C114.964 20.2957 115.084 19.8995 115.425 19.6274C115.708 19.4345 116.138 19.4448 116.207 18.904C116.276 18.4838 115.89 18.3873 115.904 17.9568C115.918 17.8293 115.952 17.7053 116.049 17.6089C116.472 17.1748 116.844 16.8269 117.13 16.3171C117.189 16.2413 117.337 16.2103 117.392 16.3171C117.502 16.9544 117.988 17.5744 118.611 17.7845C119.101 18.0015 119.827 18.1566 119.979 18.7938C119.962 18.9316 120.079 19.1417 119.931 19.2141C119.328 19.5068 118.773 19.903 118.105 20.0649C117.42 20.461 117.688 21.3807 117.688 22.0731C117.702 22.6311 117.798 23.1616 118.201 23.5508C118.536 23.8746 118.939 24.2053 118.98 24.6841C118.859 25.1147 118.343 25.0251 118.009 25.1285C117.602 25.218 117.247 25.466 116.968 25.776C116.669 25.8966 116.279 25.9758 116.162 26.341C115.983 26.7956 115.604 27.2882 115.112 27.3847C115.105 27.3847 115.101 27.3847 115.094 27.3847C115.026 27.3847 114.977 27.3399 114.967 27.2813C114.929 26.7578 114.96 26.1997 114.95 25.6899ZM122.38 11.2501C121.991 11.4189 122.004 11.8632 121.808 12.1629C121.787 12.1767 121.76 12.1939 121.732 12.1939C121.722 12.1939 121.712 12.1905 121.705 12.187C121.439 11.784 121.65 11.3018 121.88 10.9573C121.987 10.7989 122.242 10.513 122.4 10.7885C122.456 10.9332 122.462 11.1227 122.38 11.2501ZM122.452 12.0561C122.511 12.0458 122.614 11.9838 122.648 12.0734C122.604 12.2112 122.59 12.4282 122.397 12.4695C122.383 12.4729 122.366 12.4729 122.349 12.4729C122.301 12.4729 122.252 12.4626 122.239 12.4178C122.242 12.2663 122.314 12.1319 122.452 12.0561ZM121.96 13.2687C121.918 13.7199 121.756 14.1229 121.612 14.5294C121.563 14.5742 121.522 14.5914 121.491 14.5914C121.357 14.5914 121.305 14.3158 121.171 14.2607C120.999 14.1022 120.83 13.9059 120.62 13.8198C120.599 13.7888 120.544 13.7406 120.585 13.6992C120.857 13.5304 121.157 13.4237 121.45 13.3031C121.608 13.2618 121.763 13.2066 121.925 13.217L121.96 13.2687ZM120.117 11.0951C120.093 11.0951 120.068 11.0951 120.044 11.0951C120.034 11.0951 120.024 11.0951 120.017 11.0951C119.927 11.0951 119.838 11.0882 119.762 11.0297C119.71 10.9711 119.645 10.885 119.693 10.8023C119.865 10.3752 120.427 10.6473 120.713 10.3821C121.005 10.2271 121.236 9.88604 121.612 9.95149C121.157 10.3442 120.802 11.0779 120.117 11.0951ZM121.346 13.0172C121.102 13.1998 120.802 13.2928 120.492 13.2928C120.475 13.2928 120.454 13.2928 120.437 13.2928C120.392 13.1619 120.437 13.0103 120.513 12.9001C120.623 12.7313 120.84 12.7451 121.012 12.7864C121.133 12.8346 121.281 12.876 121.346 13.0172ZM120.451 13.8577C120.465 13.9369 120.444 14.0437 120.347 14.0919C120.279 14.116 120.21 14.1642 120.134 14.1642C120.113 14.1642 120.096 14.1608 120.075 14.1539C120.017 14.1367 119.962 14.0885 119.924 14.0402C119.882 13.9507 119.955 13.8611 120.031 13.8198C120.151 13.7302 120.365 13.713 120.451 13.8577ZM117.309 26.2238C117.616 25.6383 118.284 25.5625 118.866 25.4385C119.231 25.2215 119.462 24.8357 119.424 24.3982C119.328 23.9159 118.804 23.6473 118.667 23.1719C118.501 22.7517 118.467 22.2522 118.467 21.7803C118.443 21.4427 118.332 21.1086 118.377 20.7504C118.536 20.5265 118.801 20.4369 119.032 20.306C119.655 20.0235 120.254 19.6825 120.888 19.4104C121.226 19.3725 121.477 19.5551 121.722 19.7652C121.794 19.8479 121.842 19.9684 121.801 20.0752C121.608 20.1475 121.35 20.1062 121.167 20.2027C120.868 20.3956 120.85 20.7435 120.771 21.0328C120.375 21.1809 119.693 21.0845 119.652 21.6735C119.6 22.0662 119.765 22.3934 119.975 22.6759C120.034 22.9239 119.996 23.1754 119.872 23.3648C119.831 23.5405 119.879 23.7127 119.979 23.8264C120.316 24.102 120.689 24.319 120.716 24.7943C120.716 24.9252 120.771 25.0561 120.702 25.1732C120.175 25.6555 119.466 25.7209 118.908 26.1377L118.543 26.4581C118.298 26.3685 118.067 26.3823 117.823 26.3961C117.733 26.3995 117.647 26.4064 117.554 26.4064C117.478 26.4064 117.399 26.403 117.316 26.3926C117.265 26.3444 117.316 26.2721 117.309 26.2238ZM123.978 17.4435C124.85 18.1566 125.931 18.253 126.772 19.0453C127.033 19.2451 126.961 19.6274 127.02 19.9099C127.109 20.5333 127.464 21.0707 127.395 21.7424C127.261 21.9939 126.916 22.1454 126.951 22.4864C126.844 22.576 126.696 22.5553 126.589 22.5932C126.279 22.7069 126.172 23.0376 126.172 23.3373C126.138 23.4096 126.1 23.4819 126.021 23.5129C125.9 23.5474 125.793 23.5233 125.725 23.4475C125.373 23.1719 125.025 22.8171 124.574 22.8826C124.505 22.9205 124.44 23.01 124.35 22.9549C124.171 22.8757 123.971 22.6966 123.954 22.4968C123.933 22.0696 123.84 21.5908 124.219 21.3256C124.226 20.9157 123.944 20.5988 123.599 20.399C123.217 20.1751 122.711 20.2061 122.394 19.8444C122.345 19.7376 122.352 19.5998 122.438 19.5275C122.576 19.5034 122.652 19.6515 122.773 19.6756C122.917 19.7066 123.076 19.7755 123.234 19.7755C123.303 19.7755 123.368 19.7617 123.434 19.7273C123.482 19.6619 123.441 19.5826 123.43 19.5241C122.928 18.3219 121.608 17.943 120.537 17.6192C120.427 17.571 120.313 17.4986 120.272 17.3781C120.227 16.9647 120.22 16.5273 120.048 16.1552C120.037 15.8073 119.989 15.4284 120.279 15.1976C120.602 15.084 120.961 15.1632 121.271 15.0185C121.536 14.7292 122.039 14.7292 122.383 14.8428C122.562 14.9221 122.735 15.0564 122.869 15.2149C123.486 15.8521 123.372 16.82 123.978 17.4435ZM122.724 11.2191C122.786 11.1123 122.721 10.9298 122.828 10.8368C123.034 10.8712 123.196 11.0848 123.289 11.2501C123.313 11.3466 123.241 11.4051 123.158 11.4292C123.072 11.4602 122.965 11.4809 122.866 11.4809C122.81 11.4809 122.752 11.474 122.704 11.4602C122.652 11.381 122.717 11.2983 122.724 11.2191ZM123.444 12.7278C123.368 12.7623 123.3 12.8243 123.22 12.8243C123.203 12.8243 123.186 12.8208 123.169 12.814C123.155 12.5453 123.275 12.28 123.506 12.1113C123.585 12.0871 123.668 12.125 123.696 12.2008C123.758 12.4144 123.606 12.5901 123.444 12.7278ZM124.14 10.482C123.964 10.6266 123.823 10.4337 123.672 10.3545C123.589 10.2822 123.52 10.2064 123.523 10.0858C123.589 9.76548 123.72 9.37279 123.551 9.049C123.489 8.96288 123.393 8.93533 123.3 8.96633C122.972 9.21089 122.762 9.58636 122.476 9.8447C122.462 9.86193 122.442 9.86193 122.418 9.86193C122.407 9.86193 122.397 9.86193 122.387 9.86537C122.318 9.59669 122.283 9.22812 122.414 8.98355C122.648 8.72865 122.986 8.68731 123.286 8.55642C123.465 8.32907 123.554 8.04662 123.703 7.80205C123.751 7.73316 123.882 7.7676 123.878 7.84683C123.761 8.20851 123.448 8.54264 123.582 8.96288C123.661 9.018 123.734 8.98355 123.813 8.9491C123.868 8.92499 123.923 8.90088 123.985 8.90777C124.054 8.90432 124.112 8.93188 124.164 8.97322C124.333 9.20401 124.164 9.44857 124.071 9.66558C124.088 9.93771 124.226 10.1926 124.14 10.482ZM124.495 8.17062C124.488 8.17062 124.478 8.17406 124.467 8.17406C124.436 8.17406 124.405 8.16373 124.395 8.13273C124.347 7.8675 124.515 7.66082 124.688 7.46448C124.757 7.43003 124.887 7.2888 124.943 7.43348C124.925 7.73316 124.677 7.95017 124.495 8.17062ZM124.753 4.72257C124.791 4.66401 124.85 4.6399 124.905 4.62612C124.974 4.61578 125.036 4.66401 125.094 4.69845C125.173 4.74668 125.173 4.87068 125.173 4.96369C125.16 5.07736 125.056 5.19103 124.96 5.23926C124.936 5.24615 124.908 5.24959 124.881 5.24959C124.812 5.24959 124.75 5.22548 124.729 5.16003C124.684 5.01191 124.677 4.85346 124.753 4.72257ZM124.522 5.72495C124.639 5.66294 124.836 5.67328 124.908 5.81106C124.963 5.99018 125.005 6.20719 124.908 6.35876C124.87 6.42765 124.801 6.44832 124.732 6.44832C124.708 6.44832 124.681 6.44487 124.657 6.44143C124.498 6.37598 124.34 6.2313 124.333 6.03152C124.323 5.90751 124.419 5.80073 124.522 5.72495ZM124.354 6.69977C124.371 6.75833 124.388 6.85134 124.35 6.89612C124.316 6.91678 124.285 6.92712 124.25 6.92712C124.23 6.92712 124.205 6.92367 124.181 6.91678C124.123 6.88578 124.102 6.83067 124.088 6.77211C124.119 6.70666 124.123 6.62055 124.216 6.6171C124.267 6.59988 124.329 6.63777 124.354 6.69977ZM119.38 8.37385C119.118 8.43586 118.939 8.68042 118.698 8.78721C118.515 8.7562 118.456 8.55986 118.391 8.42208C118.295 8.08106 118.367 7.72282 118.58 7.46448C118.815 7.38525 119.032 7.54715 119.259 7.57126C119.469 7.6057 119.776 7.65048 119.938 7.46448C120.127 7.24058 120.086 6.93056 120.103 6.63088C120.089 6.4931 120.003 6.37943 119.882 6.3002C119.738 6.21064 119.566 6.26575 119.397 6.27264C119.014 6.32431 118.615 6.41043 118.215 6.38976C118.105 6.3622 118.005 6.29675 117.943 6.2003C117.84 5.89373 117.847 5.4976 117.833 5.17725C117.847 5.00847 117.816 4.79835 117.991 4.71568C118.491 4.54689 118.229 3.8993 118.698 3.67196C118.901 3.54451 119.214 3.54106 119.428 3.63407C119.772 3.83041 119.486 4.33677 119.869 4.50555C120.041 4.56411 120.237 4.59511 120.437 4.59511C120.771 4.59511 121.116 4.509 121.364 4.32643C121.412 4.2541 121.467 4.18176 121.453 4.08531C121.415 3.8063 121.102 3.6754 120.899 3.55829C120.847 3.5204 120.875 3.45839 120.881 3.41017C121.002 3.24483 121.178 3.1656 121.388 3.16216C121.922 3.14838 122.521 3.08982 123.058 3.12427L123.107 3.17593C123.151 3.43428 123.2 3.70985 123.444 3.87175C123.52 3.89586 123.613 3.88553 123.706 3.87175C123.844 3.85452 123.988 3.8373 124.099 3.93375C123.933 4.02675 123.73 4.02675 123.561 4.0922C123.306 4.17143 122.986 4.37466 122.952 4.67434C122.914 4.98091 123.021 5.23581 123.255 5.4046C123.355 5.44249 123.475 5.50794 123.592 5.4356C123.854 5.25648 123.582 4.63645 124.061 4.75012C124.123 4.78801 124.154 4.85346 124.168 4.9258C124.112 5.26337 123.72 5.44249 123.665 5.78006C123.579 6.1693 123.537 6.57921 123.496 6.98223C123.479 7.07179 123.396 7.14413 123.303 7.15791C123.186 7.17513 123.069 7.14068 123.014 7.03046C122.852 6.69977 122.676 6.29676 122.266 6.21408C121.818 6.11075 121.284 6.2003 120.957 5.78695C120.871 5.73873 120.819 5.60439 120.702 5.62505C120.664 5.6905 120.658 5.76973 120.716 5.82484C121.054 6.13141 121.34 6.49654 121.295 6.98567C121.247 7.31636 120.933 7.60571 120.62 7.68838C120.265 7.67116 120.055 7.93984 119.858 8.2154C119.734 8.34974 119.535 8.30841 119.38 8.37385ZM120.809 8.54953C120.651 8.61154 120.509 8.78721 120.334 8.78721C120.292 8.78721 120.251 8.77687 120.206 8.75621C120.124 8.69076 120.12 8.58742 120.117 8.48753C120.134 8.36696 120.22 8.25674 120.306 8.17751C120.544 8.03973 120.923 8.07073 121.112 8.28774C121.167 8.51164 120.895 8.44619 120.809 8.54953ZM111.695 10.4027C111.87 10.0066 112.297 9.79992 112.656 9.61736C114.319 8.93877 115.78 10.0617 116.951 11.226C117.075 11.3293 117.216 11.4223 117.364 11.4671C117.43 11.3776 117.42 11.1364 117.444 11.0262C117.478 10.8953 117.547 10.7506 117.685 10.6783C117.867 10.5853 118.05 10.6163 118.236 10.6473C118.374 10.668 118.515 10.6921 118.66 10.6611C118.701 10.637 118.725 10.5887 118.694 10.5474C118.618 10.4337 118.463 10.4992 118.363 10.4475C118.312 10.4165 118.253 10.3855 118.201 10.3511L118.277 10.2718C118.487 10.2753 118.663 10.2064 118.877 10.2064C119.293 10.1685 119.741 10.1995 120.082 10.0066C120.458 9.76548 120.017 9.06278 120.62 9.07311C120.644 9.07655 120.664 9.07656 120.689 9.07656C121.074 9.07656 121.302 8.71143 121.543 8.45308C121.639 8.3773 121.78 8.42208 121.815 8.53575C121.839 8.63909 121.791 8.71143 121.777 8.79065C121.822 8.8871 121.873 9.01455 121.829 9.13511C121.815 9.28323 121.656 9.39001 121.522 9.42446C121.309 9.48646 121.116 9.40035 120.964 9.24879C120.885 9.20745 120.761 9.20745 120.678 9.23501C120.385 9.3969 120.568 9.77581 120.33 9.97215C120.044 10.2236 119.7 10.3373 119.318 10.3511C119.142 10.4165 118.89 10.5784 118.89 10.8092C118.884 10.9883 119.001 11.1192 119.149 11.1915C119.376 11.1984 119.145 11.3844 119.2 11.4912C119.214 11.6118 119.297 11.7082 119.397 11.7599C119.5 11.815 119.614 11.7599 119.703 11.7324C120.158 11.4981 120.585 11.1915 121.15 11.226C121.229 11.412 121.157 11.6049 121.123 11.7702C121.088 11.8667 121.061 11.9631 120.971 12.0183C120.685 12.0114 120.303 11.8322 120.065 12.0734C119.869 12.342 119.541 12.3627 119.242 12.3352C118.977 12.187 118.591 12.3179 118.37 12.0906C118.353 11.8495 118.611 11.6118 118.377 11.3982C118.009 11.3156 117.692 11.567 117.475 11.8564C117.426 11.9046 117.337 11.8942 117.285 11.8805C117.103 11.7599 116.868 11.6531 116.665 11.7668C116.445 11.8839 116.324 12.3007 116.007 12.1319C115.773 11.8667 115.435 11.6566 115.112 11.66C114.877 11.66 114.585 11.0434 114.168 11.0744C113.81 11.0055 113.496 11.133 113.217 11.3087C113.059 11.3466 112.99 11.2398 112.921 11.133C112.855 11.0331 112.787 10.9366 112.642 10.9504C112.576 10.9435 112.508 10.9745 112.446 11.009C112.353 11.0572 112.266 11.1054 112.208 11.0228C112.084 10.8368 112.06 10.5198 111.774 10.5026C111.657 10.513 111.66 10.5061 111.695 10.4027ZM109.373 9.25567C109.697 8.97322 110.227 8.8561 110.63 9.04211C110.685 9.09033 110.761 9.10756 110.792 9.17301L110.782 9.20401C110.289 9.173 109.797 9.26601 109.514 9.68281C109.438 9.8137 109.397 9.9756 109.27 10.0479C109.252 10.0514 109.239 10.0514 109.221 10.0514C109.159 10.0514 109.104 10.0307 109.077 9.9756C109.011 9.69659 109.149 9.43824 109.373 9.25567ZM108.588 10.2408C108.55 10.3407 108.388 10.3201 108.367 10.3786C108.329 10.3545 108.257 10.3717 108.185 10.3855C108.119 10.3993 108.05 10.4165 107.999 10.3993C107.63 10.3855 107.255 10.3855 106.907 10.3201C106.721 10.3511 106.607 10.513 106.397 10.5026C106.393 10.5026 106.39 10.5026 106.39 10.5026C106.321 10.5026 106.29 10.4372 106.297 10.3545C106.276 10.1444 106.369 9.96526 106.531 9.83781C106.714 9.71036 106.965 9.75514 107.172 9.77237C107.489 9.82059 107.809 9.91015 108.129 9.94804C108.133 9.95838 108.557 10.0445 108.588 10.2408ZM108.198 10.9435C108.043 11.0365 107.84 11.0744 107.647 11.0744C107.547 11.0744 107.451 11.0641 107.361 11.0434C107.268 11.0021 107.248 10.8988 107.272 10.7989C107.334 10.6714 107.468 10.6852 107.602 10.699C107.671 10.7059 107.744 10.7127 107.806 10.7024L108.154 10.8023C108.195 10.8471 108.233 10.8953 108.198 10.9435ZM107.334 5.64228C107.313 5.65261 107.292 5.65605 107.272 5.65605C107.217 5.65605 107.168 5.62161 107.151 5.56994C107.12 5.46316 107.144 5.3357 107.22 5.26337C107.313 5.27026 107.399 5.30471 107.454 5.39427C107.437 5.48038 107.423 5.58027 107.334 5.64228ZM106.948 3.53762C106.972 3.41706 107.027 3.30338 107.124 3.24482C107.654 3.0347 108.24 3.21038 108.577 3.66507C108.787 3.96475 108.88 4.31955 108.894 4.71223C108.877 4.77768 108.87 4.87757 108.784 4.90513C108.498 4.95336 108.236 4.87413 107.95 4.87413C107.943 4.90513 107.93 4.87413 107.909 4.87413C107.892 4.87757 107.875 4.87757 107.857 4.87757C107.661 4.87757 107.478 4.77079 107.365 4.60889C107.22 4.45389 107.31 4.16454 107.086 4.07154C106.931 3.93375 106.945 3.73052 106.948 3.53762ZM106.883 7.86405C107.041 7.81583 107.048 8.00528 107.1 8.0914C107.186 8.3773 107.268 8.6632 107.31 8.96978C107.33 9.00078 107.327 9.09034 107.296 9.14201C107.155 9.26257 106.958 9.31424 106.765 9.31424C106.631 9.31424 106.497 9.29012 106.383 9.24534C106.166 9.05244 106.369 8.78721 106.404 8.58053C106.517 8.31185 106.61 8.01906 106.883 7.86405ZM105.58 3.53762C105.78 3.43084 105.904 3.7064 106.045 3.82007C106.355 4.21621 106.659 4.60545 106.776 5.08769C106.786 5.12903 106.748 5.14969 106.721 5.16003C106.359 5.0808 106.049 4.74668 105.804 4.478C105.636 4.20587 105.456 3.88552 105.58 3.53762ZM105.932 6.29675C105.918 6.30709 105.904 6.31053 105.89 6.31053C105.839 6.31053 105.811 6.23819 105.794 6.20375C105.735 5.9764 105.839 5.76284 105.99 5.61816C106.059 5.59405 106.101 5.64228 106.121 5.6905C106.156 5.92129 106.118 6.14863 105.932 6.29675ZM104.867 6.08663C104.661 5.90407 104.668 5.61816 104.65 5.33915C104.657 5.19792 104.661 5.02914 104.712 4.90513C104.774 4.7019 104.943 4.42977 105.167 4.38155C105.264 4.35399 105.357 4.39532 105.398 4.48144C105.463 4.62956 105.456 4.79835 105.425 4.94646C105.494 5.02569 105.549 4.90168 105.629 4.89135C105.739 4.86724 105.873 4.86379 105.939 4.97746L105.942 5.0808C105.763 5.36326 105.622 5.67672 105.615 6.02807C105.608 6.1073 105.563 6.2003 105.494 6.24164C105.446 6.25197 105.377 6.26575 105.336 6.23475C105.222 6.14175 105.205 5.99363 105.202 5.84551L105.143 5.81106C105.033 5.87651 105.05 6.09352 104.909 6.09352C104.898 6.09352 104.885 6.09008 104.867 6.08663ZM104.991 6.74111C104.978 6.66877 104.947 6.60332 104.981 6.54821C105.033 6.47243 105.126 6.47587 105.219 6.47932C105.236 6.47932 105.253 6.47932 105.27 6.47932C105.295 6.47932 105.315 6.47932 105.336 6.47587C105.563 6.49654 105.735 6.66188 105.956 6.73078C106.087 6.74455 106.221 6.74111 106.314 6.85823C106.349 6.93401 106.259 6.95123 106.221 6.96845C105.784 7.04768 105.291 7.06835 104.991 6.74111ZM103.662 9.82748C103.713 9.56569 103.93 9.28668 104.192 9.23845C104.382 9.22812 104.537 9.30046 104.688 9.37624C104.854 9.45546 105.019 9.53814 105.229 9.50713C105.35 9.53125 105.443 9.47957 105.532 9.4279C105.636 9.36935 105.739 9.31079 105.887 9.36246C106.008 9.67592 105.804 9.95149 105.656 10.2167C105.708 10.5819 105.794 10.9745 105.639 11.3224C105.594 11.4361 105.508 11.5463 105.401 11.598C105.384 11.6049 105.363 11.6118 105.339 11.6118C105.298 11.6118 105.26 11.5946 105.26 11.5567C105.253 11.2191 105.632 10.6852 105.129 10.4992C104.661 10.42 104.158 10.4337 103.751 10.1995C103.61 10.1409 103.648 9.94804 103.662 9.82748ZM104.626 11.2019C104.613 11.2019 104.602 11.2019 104.588 11.2019C104.306 11.2019 104.068 11.0744 103.841 10.8988C103.782 10.8333 103.758 10.7369 103.793 10.6473C103.851 10.5509 103.999 10.6025 104.089 10.606C104.316 10.6783 104.571 10.8333 104.685 11.0572C104.692 11.1192 104.695 11.1915 104.626 11.2019ZM103.603 11.1984C103.824 11.4981 104.13 11.6118 104.588 11.5946C104.833 11.6083 104.871 11.9804 105.226 12.0768C105.649 12.2146 105.952 11.6738 106.156 11.3672C106.338 11.1709 106.645 11.1571 106.883 11.2122C107.103 11.2811 107.275 11.4637 107.516 11.4809C107.571 11.4878 107.63 11.4878 107.685 11.4878C107.999 11.4878 108.284 11.3948 108.501 11.1847C108.677 11.102 108.88 11.1089 109.084 11.1123C109.177 11.1158 109.27 11.1158 109.363 11.1123C109.721 11.1227 110.076 11.1192 110.427 11.1192C110.854 11.1158 111.281 11.1158 111.708 11.133C111.898 11.2088 111.981 11.6049 112.218 11.5291C112.353 11.4533 112.49 11.3603 112.656 11.4086C112.973 11.4396 112.942 11.9253 113.286 11.8529C113.534 11.6221 113.875 11.474 114.216 11.5705C114.278 11.6049 114.357 11.6531 114.388 11.7186L114.364 15.9589C114.371 16.2035 114.23 16.6203 114.092 16.8166C113.551 17.4642 113.538 18.3116 113.579 19.1658C113.634 19.5068 113.972 19.9409 114.313 20.0649C114.313 20.0649 114.306 23.0238 114.292 24.4912C114.271 24.5256 114.257 24.4085 114.23 24.3948C113.531 23.8229 112.725 23.3855 112.242 22.6173C111.781 21.8492 111.55 20.9708 110.82 20.3232C110.131 19.6205 109.149 19.1486 108.653 18.2737C108.229 17.5572 107.988 16.7374 107.341 16.1311C106.428 15.2286 105.215 14.5707 104.733 13.3927C104.437 12.5384 103.899 11.7461 103.2 11.1399C103.335 11.1295 103.517 11.1123 103.603 11.1984ZM102.398 11.1847C102.783 11.1433 102.994 11.5222 103.279 11.7324C104.413 12.6348 104.406 14.0816 105.549 14.9703C106.297 15.611 107.199 16.1897 107.72 17.0543C108.171 17.974 108.581 18.9764 109.507 19.6136C110.22 20.1234 110.947 20.7297 111.35 21.4875C111.757 22.452 112.304 23.3786 113.221 24.071C113.586 24.35 113.978 24.6187 114.306 24.9872L114.313 25.2972H114.244C113.469 24.4016 112.332 23.9091 111.736 22.8895C111.302 22.1351 111.054 21.2877 110.348 20.6642C109.645 19.9374 108.684 19.4621 108.181 18.5802C107.785 17.9189 107.592 17.1576 107.003 16.5893C106.125 15.5869 104.743 14.96 104.271 13.7061C103.941 12.7037 103.114 11.8564 102.229 11.1915C102.253 11.1778 102.329 11.1984 102.398 11.1847ZM109.69 26.3134C108.867 25.6761 108.498 24.8184 108.098 23.9642C107.62 23.134 106.803 22.4485 106.021 21.9043C104.967 21.1603 104.905 19.8995 104.061 19.0143C103.231 18.005 101.853 17.4332 101.354 16.2103C101.009 15.2493 100.341 14.581 99.5076 13.868C99.5041 13.7612 99.4972 13.651 99.5351 13.5511C100.29 14.0919 100.768 15.58 101.109 16.417C101.843 18.0222 103.917 18.6147 104.523 20.2853C104.819 21.112 105.384 21.8457 106.166 22.4038C106.855 22.9032 107.516 23.5026 107.899 24.2225C108.26 25.1353 108.777 25.9827 109.624 26.6372C110.475 27.2331 111.46 28.108 111.805 29.0691C110.365 29.2069 108.777 29.2517 107.523 29.7683C107.292 29.8924 107.065 30.0439 106.872 30.2575L106.817 30.254C106.138 29.5307 105.174 29.4618 104.254 29.3515C102.804 29.2069 101.237 29.3894 99.8865 28.9657C99.3939 28.8039 99.8142 28.1976 99.4421 27.9324L99.4628 21.0707ZM109.69 26.3134C108.867 25.6761 108.498 24.8184 108.098 23.9642C107.62 23.134 106.803 22.4485 106.021 21.9043C104.967 21.1603 104.905 19.8995 104.061 19.0143C103.231 18.005 101.853 17.4332 101.354 16.2103C101.009 15.2493 100.341 14.581 99.5076 13.868C99.5041 13.7612 99.4972 13.651 99.5351 13.5511C100.29 14.0919 100.768 15.58 101.109 16.417C101.843 18.0222 103.917 18.6147 104.523 20.2853C104.819 21.112 105.384 21.8457 106.166 22.4038C106.855 22.9032 107.516 23.5026 107.899 24.2225C108.26 25.1353 108.777 25.9827 109.624 26.6372C110.475 27.2331 111.46 28.108 111.805 29.0691C110.365 29.2069 108.777 29.2517 107.523 29.7683C107.292 29.8924 107.065 30.0439 106.872 30.2575L106.817 30.254C106.138 29.5307 105.174 29.4618 104.254 29.3515C102.804 29.2069 101.237 29.3894 99.8865 28.9657C99.3939 28.8039 99.8142 28.1976 99.4421 27.9324L99.4628 21.0707Z" fill="url(#paint0_linear_3178_18050)"/>
<path d="M102.089 24.2734H102.784C103.28 24.2734 103.304 24.4422 103.304 24.8797C103.304 25.2103 103.329 25.3791 103.373 25.5272H104.117V25.4446C103.976 25.3895 103.976 25.2758 103.976 24.8073C103.976 24.2045 103.832 24.1046 103.57 23.9875C103.887 23.8807 104.062 23.581 104.062 23.2262C104.062 22.9472 103.907 22.3203 103.056 22.3203H101.438V25.5272H102.092V24.2734H102.089ZM102.089 22.8749H102.926C103.318 22.8749 103.394 23.1263 103.394 23.2951C103.394 23.612 103.225 23.7326 102.874 23.7326H102.089V22.8749Z" fill="#D8AD38"/>
<path d="M78.1013 86.8551H76.0035V92.7557H74.7462V86.8551H72.6484V85.832H78.1013V86.8551Z" fill="#D8AD38"/>
<path d="M86.2266 92.7557H84.9693V89.7313H81.8588V92.7557H80.6016V85.832H81.8588V88.729H84.9693V85.832H86.2266V92.7557Z" fill="#D8AD38"/>
<path d="M94.0719 91.7705V92.7557H89.5078V85.832H94.003V86.8172H90.7651V88.7186H93.8377V89.6934H90.7651V91.7705H94.0719Z" fill="#D8AD38"/>
<path d="M102.351 86.8319V88.754H105.424V89.7495H102.351V92.7635H101.094V85.8398H105.589V86.8353H102.351V86.8319Z" fill="#D8AD38"/>
<path d="M108.336 92.7557V85.832H109.593V92.7557H108.336Z" fill="#D8AD38"/>
<path d="M112.867 85.832H114.31L116.915 90.3651C117.101 90.6786 117.245 90.9783 117.345 91.2538H117.366C117.356 90.9989 117.345 90.7268 117.345 90.3583V85.832H118.485V92.7557H117.07L114.428 88.2019C114.252 87.8816 114.114 87.6163 114.007 87.3339H113.987C114.007 87.5957 114.007 87.8712 114.007 88.2501V92.7557H112.867V85.832Z" fill="#D8AD38"/>
<path d="M126.33 91.7705V92.7557H121.766V85.832H126.261V86.8172H123.023V88.7186H126.096V89.6934H123.023V91.7705H126.33Z" fill="#D8AD38"/>
<path d="M128.492 90.9845L129.563 90.516C129.798 91.2945 130.363 91.9214 131.437 91.9214C132.15 91.9214 132.812 91.639 132.812 90.9156C132.812 90.2439 132.402 90.0097 131.641 89.8512L130.676 89.648C129.584 89.4241 128.861 88.8385 128.861 87.657C128.861 86.4583 129.836 85.666 131.396 85.666C132.712 85.666 133.756 86.2034 134.059 87.3539L133.053 87.8809C132.829 87.0817 132.254 86.6236 131.337 86.6236C130.587 86.6236 130.08 86.975 130.08 87.5606C130.08 88.1255 130.394 88.4183 131.151 88.5836L132.157 88.7972C133.297 89.0417 134.059 89.5688 134.059 90.795C134.059 91.9834 133.163 92.9204 131.396 92.9204C129.76 92.9238 128.775 92.1143 128.492 90.9845Z" fill="#D8AD38"/>
<path d="M141.336 86.8551H139.238V92.7557H137.981V86.8551H135.883V85.832H141.336V86.8551Z" fill="#D8AD38"/>
<defs>
<linearGradient id="paint0_linear_3178_18050" x1="82.7325" y1="18.2989" x2="131.234" y2="18.2989" gradientUnits="userSpaceOnUse">
<stop offset="0.005618" stop-color="#AF8810"/>
<stop offset="0.1461" stop-color="#D8AD37"/>
<stop offset="0.4326" stop-color="#EFDA8F"/>
<stop offset="0.5674" stop-color="#EFDA8F"/>
<stop offset="0.8371" stop-color="#D8AD37"/>
<stop offset="1" stop-color="#AF8810"/>
</linearGradient>
</defs>
</svg>
