<svg width="26" height="26" viewBox="0 0 26 26" fill="none" xmlns="http://www.w3.org/2000/svg">
<path d="M23.8327 6.39931C23.0206 6.75396 22.1605 6.98651 21.2803 7.08939C22.2042 6.54689 22.8989 5.68659 23.2347 4.66922C22.3593 5.17874 21.4046 5.53763 20.4104 5.73089C19.9918 5.29236 19.4882 4.94373 18.9303 4.70625C18.3725 4.46877 17.7721 4.34743 17.1658 4.34964C14.711 4.34964 12.7209 6.31047 12.7209 8.72631C12.7209 9.06864 12.7599 9.40339 12.8358 9.72297C11.0749 9.63922 9.35081 9.18933 7.77353 8.402C6.19625 7.61467 4.80042 6.50718 3.6751 5.15022C3.28058 5.81582 3.07322 6.57565 3.07493 7.34939C3.07569 8.07302 3.25675 8.78505 3.60175 9.42115C3.94675 10.0572 4.44481 10.5973 5.05093 10.9926C4.34621 10.9699 3.65671 10.7817 3.0381 10.4434V10.4976C3.0381 12.6187 4.57102 14.3878 6.60226 14.7908C6.22051 14.8921 5.82723 14.9434 5.43227 14.9436C5.14518 14.9436 4.86677 14.9165 4.59485 14.8623C4.88527 15.7376 5.44105 16.5006 6.18499 17.0456C6.92892 17.5905 7.8241 17.8903 8.74618 17.9032C7.16459 19.1215 5.22299 19.7796 3.2266 19.7741C2.86693 19.7741 2.51377 19.7525 2.16602 19.7135C4.20404 21.0034 6.56716 21.6865 8.9791 21.683C17.155 21.683 21.6248 15.0129 21.6248 9.22897L21.6097 8.66239C22.4816 8.04886 23.2348 7.28206 23.8327 6.39931Z" fill="white"/>
</svg>
