<svg width="80" height="10" viewBox="0 0 80 10" fill="none" xmlns="http://www.w3.org/2000/svg">
<path d="M6.35094 1.48398H3.90765V8.83942H2.44329V1.48398H0V0.2087H6.35094V1.48398Z" fill="#B88B00"/>
<path d="M15.8204 8.83942H14.356V5.06938H10.7332V8.83942H9.26882V0.2087H10.7332V3.81986H14.356V0.2087H15.8204V8.83942Z" fill="#B88B00"/>
<path d="M24.9503 7.61136V8.83942H19.6344V0.2087H24.87V1.43676H21.0988V3.80698H24.6775V5.02214H21.0988V7.61136H24.9503Z" fill="#B88B00"/>
<path d="M34.5963 1.45072V3.8467H38.175V5.08764H34.5963V8.84479H33.132V0.214076H38.3676V1.455H34.5963V1.45072Z" fill="#B88B00"/>
<path d="M41.5679 8.83942V0.2087H43.0323V8.83942H41.5679Z" fill="#B88B00"/>
<path d="M46.8465 0.2087H48.5275L51.5606 5.85946C51.7772 6.2502 51.9457 6.62376 52.0621 6.96727H52.0862C52.0741 6.64953 52.0621 6.31032 52.0621 5.85087V0.2087H53.39V8.83942H51.7411L48.6639 3.1629C48.4593 2.76356 48.2989 2.43294 48.1745 2.08084H48.1504C48.1745 2.40718 48.1745 2.75068 48.1745 3.223V8.83942H46.8465V0.2087Z" fill="#B88B00"/>
<path d="M62.5241 7.61136V8.83942H57.2082V0.2087H62.4438V1.43676H58.6726V3.80698H62.2513V5.02214H58.6726V7.61136H62.5241Z" fill="#B88B00"/>
<path d="M65.042 6.62976L66.2898 6.04579C66.5626 7.01621 67.2205 7.7977 68.4723 7.7977C69.3027 7.7977 70.073 7.4456 70.073 6.54388C70.073 5.70657 69.5956 5.41459 68.709 5.21707L67.5856 4.96373C66.3138 4.68463 65.4713 3.95467 65.4713 2.48187C65.4713 0.987593 66.6067 0 68.4241 0C69.9567 0 71.1723 0.669844 71.5254 2.104L70.3539 2.76097C70.0931 1.76478 69.4231 1.1937 68.3559 1.1937C67.4813 1.1937 66.8916 1.63168 66.8916 2.36164C66.8916 3.06584 67.2566 3.43082 68.1393 3.63692L69.3108 3.90314C70.6387 4.20801 71.5254 4.86497 71.5254 6.39359C71.5254 7.87498 70.4823 9.04292 68.4241 9.04292C66.5184 9.04722 65.371 8.03816 65.042 6.62976Z" fill="#B88B00"/>
<path d="M79.999 1.48398H77.5557V8.83942H76.0914V1.48398H73.6481V0.2087H79.999V1.48398Z" fill="#B88B00"/>
</svg>
