<svg width="70" height="60" viewBox="0 0 70 60" fill="none" xmlns="http://www.w3.org/2000/svg">
<g clip-path="url(#clip0_0_1286)">
<path d="M21.7718 39.9286C22.1962 39.8386 22.6094 39.8498 23.0338 39.9286C28.2494 41.5046 34.3472 42.0112 39.4622 43.6885C42.3771 44.6453 41.5507 47.9999 38.5911 47.8986C35.33 47.786 31.8232 47.0768 28.5286 46.9192C26.3731 47.9661 27.6798 49.0243 29.4779 49.2607C32.8395 49.6885 36.3352 49.7448 39.6968 49.9924C45.6494 47.5609 51.2112 44.1725 57.0857 41.5271C59.2523 41.0994 60.3579 44.0487 58.437 45.2419L42.8015 54.878L41.6959 55.1256H23.6704L18.6559 59.9887L10.0117 51.3095L20.6662 40.559C20.9677 40.3114 21.4033 40.0074 21.783 39.9286H21.7718Z" fill="#146452"/>
<path d="M57.8669 18.7881V39.2984L55.5439 39.7937L44.1189 45.6699L43.7168 45.456V19.0808L44.0072 18.7881H57.8669Z" fill="#146452"/>
<path d="M33.8338 18.7881V40.0864L23.0565 37.7674C21.8615 37.5423 20.9457 37.925 19.8848 38.3303V18.7881H33.8338Z" fill="#146452"/>
<path d="M41.5844 18.7881V42.2365C39.8422 41.3247 37.8319 41.2234 35.9668 40.6718V18.7881H41.5844Z" fill="#D9AD38"/>
<path d="M33.0503 8.6228H17.5488V16.6378H33.0503V8.6228Z" fill="#146452"/>
<path d="M59.9995 8.6228H44.498V16.6378H59.9995V8.6228Z" fill="#146452"/>
<path d="M42.3653 8.6228V16.6378H35.1953V8.91549L35.4857 8.6228H42.3653Z" fill="#D9AD38"/>
<path d="M37.7082 6.47274H29.857C29.3879 6.47274 28.3381 5.36955 28.1371 4.8855C27.1766 2.67912 28.3046 0.0674867 30.8286 0.0112015C34.4918 -0.0788548 37.2168 3.00557 37.7082 6.47274Z" fill="#D9AD38"/>
<path d="M40.043 6.47274C40.1882 2.82546 43.9518 -0.675476 47.615 0.112516C49.9492 0.619083 50.4629 3.7598 49.0669 5.50464C48.8993 5.71852 48.0841 6.47274 47.9054 6.47274H40.0541H40.043Z" fill="#D9AD38"/>
</g>
<defs>
<clipPath id="clip0_0_1286">
<rect width="50" height="60" fill="white" transform="translate(10)"/>
</clipPath>
</defs>
</svg>
