<svg width="26" height="26" viewBox="0 0 26 26" fill="none" xmlns="http://www.w3.org/2000/svg">
<path d="M17.3511 2.1665H8.6086C6.90035 2.16851 5.26265 2.84807 4.05484 4.05609C2.84702 5.26411 2.16774 6.90192 2.16602 8.61017L2.16602 17.3527C2.16802 19.0609 2.84759 20.6986 4.0556 21.9064C5.26362 23.1142 6.90143 23.7935 8.60968 23.7953H17.3522C19.0604 23.7932 20.6981 23.1137 21.9059 21.9057C23.1138 20.6976 23.793 19.0598 23.7948 17.3516V8.60909C23.7928 6.90084 23.1132 5.26314 21.9052 4.05533C20.6972 2.84751 19.0594 2.16822 17.3511 2.1665V2.1665ZM21.6194 17.3516C21.6194 17.9121 21.509 18.4671 21.2945 18.985C21.08 19.5029 20.7656 19.9734 20.3693 20.3698C19.9729 20.7661 19.5024 21.0805 18.9845 21.295C18.4667 21.5095 17.9116 21.6199 17.3511 21.6199H8.6086C7.47675 21.6196 6.39137 21.1698 5.59113 20.3694C4.7909 19.5689 4.34135 18.4834 4.34135 17.3516V8.60909C4.34164 7.47724 4.79146 6.39185 5.5919 5.59162C6.39233 4.79139 7.47784 4.34184 8.60968 4.34184H17.3522C18.484 4.34212 19.5694 4.79195 20.3696 5.59239C21.1699 6.39282 21.6194 7.47833 21.6194 8.61017V17.3527V17.3516Z" fill="white"/>
<path d="M12.9808 7.38721C11.4982 7.3895 10.077 7.97956 9.02873 9.02803C7.98046 10.0765 7.39068 11.4978 7.38867 12.9805C7.39039 14.4635 7.9802 15.8852 9.02873 16.934C10.0773 17.9827 11.4989 18.5728 12.9819 18.5748C14.4651 18.5731 15.887 17.9831 16.9358 16.9343C17.9846 15.8856 18.5745 14.4636 18.5763 12.9805C18.574 11.4975 17.9836 10.0759 16.9347 9.02758C15.8857 7.97925 14.4638 7.38972 12.9808 7.38829V7.38721ZM12.9808 16.3995C12.0744 16.3995 11.205 16.0394 10.564 15.3984C9.92302 14.7574 9.56292 13.888 9.56292 12.9815C9.56292 12.0751 9.92302 11.2057 10.564 10.5647C11.205 9.92372 12.0744 9.56362 12.9808 9.56362C13.8873 9.56362 14.7567 9.92372 15.3977 10.5647C16.0387 11.2057 16.3988 12.0751 16.3988 12.9815C16.3988 13.888 16.0387 14.7574 15.3977 15.3984C14.7567 16.0394 13.8873 16.3995 12.9808 16.3995Z" fill="white"/>
<path d="M18.5862 8.76952C19.3263 8.76952 19.9263 8.16955 19.9263 7.42944C19.9263 6.68933 19.3263 6.08936 18.5862 6.08936C17.8461 6.08936 17.2461 6.68933 17.2461 7.42944C17.2461 8.16955 17.8461 8.76952 18.5862 8.76952Z" fill="white"/>
</svg>
