<svg width="57" height="46" viewBox="0 0 57 46" fill="none" xmlns="http://www.w3.org/2000/svg">
<path d="M33.6675 22.2154C34.3387 22.2154 34.6136 21.8605 34.8037 21.6182L34.8845 22.1159H35.3899V19.9868H33.8656V20.6489H34.7147C34.557 21.4408 33.9991 21.5187 33.8293 21.5187C33.3077 21.5187 32.7659 21.2374 32.7659 20.1642C32.7659 19.1516 33.2672 18.7448 33.8131 18.7448C34.3549 18.7448 34.6136 19.2425 34.6136 19.3939H35.3778C35.3333 18.8487 34.8967 18.0654 33.7726 18.0654C33.7686 18.0654 33.7646 18.0654 33.7605 18.0654C32.5354 18.0654 31.9815 19.078 31.9815 20.1469C31.9855 21.536 32.7901 22.2154 33.6675 22.2154Z" fill="#B88B00"/>
<path d="M56.7822 35.9863C56.3739 35.255 55.5733 35.3502 54.8819 35.3286C54.801 35.3372 54.7889 35.2377 54.8132 35.1858C55.1771 34.8179 55.4197 34.3852 55.3792 33.8529C55.4399 33.299 54.8536 32.9831 55.0517 32.4422C55.2539 32.1566 55.4237 31.8234 55.3347 31.4253C55.2943 30.9579 54.8091 30.9666 54.5463 30.7113C54.3846 30.5901 54.328 30.3867 54.1541 30.3132C53.7377 30.2006 53.1797 30.2742 52.9937 29.7722C52.9129 29.4607 52.9492 29.1231 53.1554 28.8894C53.8266 28.1927 54.9992 28.6861 55.6542 27.9158C56.2526 27.4052 55.9332 26.4878 55.8968 25.804C56.0464 25.0338 56.3415 24.2246 56.1191 23.411C55.4358 21.5027 53.8873 19.9708 52.5732 18.4086C51.8859 17.621 51.2834 16.643 51.619 15.5179C51.6837 15.4141 51.7767 15.2756 51.9263 15.3448C51.9829 15.3967 52.0436 15.4573 52.0314 15.5395C52.1204 15.8425 51.8212 15.9636 51.8333 16.2189C51.995 17.0065 52.2902 17.7292 52.7794 18.3567C52.8765 18.4778 52.9169 18.2874 52.9856 18.2355C53.0341 18.2139 53.0908 18.2182 53.1271 18.2788C53.1918 18.5038 53.3091 18.7158 53.4385 18.9279C53.7498 19.4125 54.2309 19.6376 54.7606 19.5467C54.8091 19.5467 54.8657 19.525 54.8657 19.4645C54.7242 18.9582 54.8213 18.4216 54.8253 17.9109C54.9021 17.4306 54.2795 17.2099 54.4938 16.7036C54.5827 16.4483 54.8698 16.4483 55.1002 16.4483V16.3185C54.894 15.8598 54.8051 15.3621 54.7 14.8645C54.4452 14.1245 53.7094 14.025 53.1393 13.8216C52.8765 13.6571 52.6419 13.3889 52.3549 13.3239C51.9425 13.1508 51.6716 13.5273 51.2996 13.5749C51.1298 13.6355 51.0772 13.6095 50.9802 13.7307L50.9559 13.7523C50.2281 14.5313 49.8602 15.6261 50.1351 16.7339C50.7942 19.2221 53.1837 20.9011 54.0005 23.3028C54.1905 23.9606 54.2714 24.7698 54.0652 25.4449C53.9843 25.6136 53.8468 25.7651 53.673 25.7694C53.4304 25.7651 53.2282 25.5747 53.0988 25.3713C52.9128 24.7741 52.7875 24.151 52.3347 23.6793C51.6392 22.8961 50.6648 22.7922 49.8845 22.1864C48.5987 21.1738 47.8669 19.7587 47.8265 18.0667C47.8103 17.7638 47.9761 17.4609 48.2429 17.3484C48.4734 17.2445 48.7564 17.2445 49.0192 17.2272L49.0394 17.1666C48.9909 16.8637 48.9222 16.4656 49.0475 16.18L49.1122 16.1281C49.3831 16.1584 49.6742 16.18 49.9492 16.1237C50.0058 16.0632 49.9572 15.9636 49.9451 15.8901C49.8804 15.6174 49.7713 15.3405 49.7793 15.0506C49.8238 15.0419 49.8642 15.0635 49.9047 15.0852C49.9613 15.1155 50.0098 15.1458 50.0462 15.0895C50.0381 14.6611 49.9734 14.1981 50.1149 13.8389C50.3333 13.8519 50.5799 13.8692 50.8023 13.8086C50.8104 13.8086 50.8185 13.8043 50.8225 13.8043L50.9478 13.6442C50.7174 13.2158 50.8063 12.6359 50.5031 12.2464C50.5152 12.2032 50.5395 12.2075 50.5718 12.2118C50.592 12.2161 50.6163 12.2161 50.6406 12.2032C50.9317 12.4065 51.3805 12.4152 51.7322 12.294C51.7969 12.2551 51.8495 12.1512 51.809 12.0647C51.6311 11.8829 51.4088 11.6882 51.3441 11.4242C51.3441 10.8357 51.1298 10.3684 50.9721 9.85772C51.0611 9.69761 51.2228 9.87936 51.3643 9.88802C51.5503 9.901 51.7727 9.95726 51.9263 9.81445C51.9667 9.38605 51.7363 9.06582 51.5907 8.70664C51.5543 8.64606 51.5664 8.53356 51.6109 8.46865C51.712 8.29122 51.9303 8.23929 51.995 8.03591C51.9101 7.67674 51.5664 7.42575 51.3724 7.1012C51.34 7.02331 51.2592 6.9281 51.3239 6.83723C51.3805 6.83723 51.433 6.85021 51.4856 6.86319C51.5745 6.88483 51.6635 6.90647 51.7646 6.86319C51.8293 6.86319 51.8778 6.77664 51.8656 6.69875L51.4249 6.07128C51.2713 5.61258 50.964 5.15821 50.5516 4.86395C50.5678 4.79472 50.6325 4.79471 50.6971 4.79471C50.7578 4.79471 50.8225 4.79904 50.8629 4.74279C50.8467 4.43987 50.5637 4.21052 50.3414 4.06772C49.7996 3.63931 49.0273 3.91626 48.4612 3.53978C48.061 3.41429 47.6445 3.47487 47.224 3.53545C46.9369 3.57873 46.6458 3.61768 46.3588 3.60037H46.2698C46.1445 3.60037 46.0191 3.60037 45.8938 3.60037C45.5622 3.60469 45.2307 3.60902 44.9194 3.56141C44.4382 3.24984 43.8479 3.53545 43.4476 3.83837C42.7158 4.34467 41.8142 4.03742 40.9974 4.30572C40.7346 4.38361 40.5082 4.70384 40.4758 4.98944C40.4395 5.49142 40.4839 6.041 40.581 6.50835C40.7548 7.02331 40.767 7.59452 41.05 8.04023C41.1753 8.26526 41.3856 8.37344 41.6039 8.40373C41.8384 8.41239 42.0729 8.39075 42.3074 8.36911C42.6471 8.33882 42.9827 8.30853 43.3223 8.36046C43.5204 8.46432 43.4476 8.73261 43.4476 8.93167C43.4476 9.00523 43.3668 9.05717 43.3789 9.11775C43.2697 9.31248 43.0352 9.19996 42.8937 9.174C42.5015 9.13505 42.2144 8.7629 41.8101 8.75858C41.6201 8.78887 41.519 9.00524 41.4098 9.13506C40.8883 9.09178 40.4516 8.58115 39.9179 8.5725C39.5782 8.25227 39.2305 7.8931 38.7696 7.93638C38.5836 7.9883 38.5351 8.31286 38.5027 8.46865C38.5472 9.00091 38.7534 9.59808 39.182 9.90533C39.4084 9.97024 39.5985 9.901 39.7925 9.83176C39.9826 9.76685 40.1766 9.69762 40.4152 9.75387C40.4961 9.7582 40.589 9.74521 40.678 9.73656C40.9166 9.71059 41.1632 9.68896 41.329 9.85772C41.3734 10.4289 41.4745 10.9785 41.7656 11.4372C42.2225 11.7315 42.5581 11.1949 42.9624 11.0737C43.1606 11.0564 43.3668 11.0391 43.5002 11.2079C43.6255 11.6839 43.0433 11.6666 42.8169 11.8786C42.6875 11.9825 42.7724 12.1902 42.6592 12.2854C42.3479 12.2637 42.0163 12.2075 41.705 12.2637C41.5433 12.3676 41.5271 12.5753 41.5392 12.7657L41.4745 12.8393C41.4503 12.8479 41.4301 12.8523 41.4058 12.8523C41.1915 12.6878 40.9246 12.7095 40.674 12.6921C40.3262 12.6748 40.2171 13.0859 40.0715 13.3196C39.1375 12.346 38.1105 11.5065 36.8774 11.3074C35.7169 11.2641 34.3948 11.2814 33.7277 12.4585C33.6306 12.2854 33.6387 11.6363 33.5296 11.4545C33.2061 10.8487 32.5632 10.5241 31.9001 10.6237C31.702 10.602 31.5039 10.7535 31.3058 10.9093C31.051 11.104 30.8004 11.2987 30.5376 11.13C30.2788 11.0088 30.2545 10.9439 30.2141 10.6496C30.1615 10.2732 30.2586 9.91398 30.5618 9.69329C31.2007 9.26055 31.884 8.58981 32.07 7.7979C32.3247 6.65981 32.3166 5.25774 31.795 4.23216C31.7101 4.04175 31.4069 3.94222 31.4715 3.66527C31.6818 3.13734 31.9204 2.60507 32.2721 2.1507C32.5511 2.12906 32.826 2.05983 32.9756 1.79586C33.0888 1.59247 33.1131 1.29388 33.0201 1.07318C32.9312 0.913071 32.7775 0.791908 32.6279 0.718343C32.3813 0.653433 32.1306 0.718344 31.9567 0.908748C31.7788 1.12944 31.7101 1.46265 31.8193 1.74826C31.7869 1.85644 31.6858 1.95164 31.5928 2.02953C31.4432 2.14637 31.2209 2.12474 31.0834 2.01223C30.95 1.94299 30.9621 1.79153 30.9459 1.64872C31.0106 1.51025 31.1764 1.52756 31.2896 1.43669C31.5201 1.25494 31.6292 0.97366 31.5807 0.666417C31.5403 0.41543 31.3179 0.207713 31.1036 0.121166C30.9338 0.0735646 30.7478 0.121165 30.5942 0.19473C30.3637 0.34186 30.2545 0.588521 30.2707 0.865472C30.2626 1.09049 30.4163 1.25926 30.4809 1.44967C30.4809 1.5968 30.392 1.71363 30.2909 1.79153C30.1818 1.85644 30.016 1.89538 29.8866 1.85211C29.7815 1.83047 29.6966 1.73095 29.6359 1.63142C29.4823 1.33716 29.8462 1.32418 29.9311 1.11213C30.0524 0.887112 30.0564 0.558227 29.9392 0.328877C29.8219 0.125491 29.5914 0 29.361 0C29.2559 0 29.1467 0.0259652 29.0537 0.0822209C28.8232 0.225024 28.7019 0.476008 28.7221 0.748631C28.7141 1.02558 28.8798 1.24628 29.0982 1.36745C29.1507 1.51458 29.0577 1.61411 28.989 1.70498C28.8394 1.85644 28.6211 1.86509 28.4593 1.78287C28.3542 1.692 28.2087 1.56217 28.2248 1.41072C28.3461 1.29388 28.4351 1.14243 28.4593 0.969331C28.5119 0.688052 28.4027 0.454371 28.2248 0.268294C28.051 0.112509 27.7922 0.0822182 27.5577 0.147129C27.3636 0.238003 27.1493 0.445721 27.1251 0.69238C27.0725 1.00395 27.2059 1.28955 27.4404 1.45832C27.5334 1.53621 27.6507 1.50592 27.7356 1.60545C27.772 1.68767 27.7154 1.76556 27.7073 1.83913C27.6143 2.00789 27.4566 2.08146 27.2908 2.06848C27.1251 2.01655 26.9512 1.90836 26.8906 1.73527C26.9876 1.44534 26.9593 1.10781 26.7693 0.874128C26.6075 0.679397 26.3245 0.631792 26.094 0.70103C25.8959 0.76594 25.714 0.969327 25.6614 1.18137C25.6291 1.36744 25.6412 1.59247 25.7382 1.75258C25.8878 2.03819 26.1668 2.12906 26.4337 2.11608C26.6116 2.37139 26.7329 2.66998 26.8784 2.94693C26.935 3.08108 26.9189 3.21523 26.8623 3.34505C26.4539 3.7648 26.3326 4.32736 26.2962 4.90722C26.0253 5.19716 25.714 5.47843 25.5523 5.84626C25.245 6.46507 25.3096 7.34786 25.6695 7.91907C25.8029 8.0662 25.6048 8.17871 25.6291 8.33017C25.6654 9.04418 26.3568 9.46393 26.8946 9.65434C27.0199 9.71492 27.1978 9.66299 27.303 9.77118C27.3515 10.0351 27.2868 10.2688 27.2585 10.5112C27.1776 10.84 26.935 11.2165 26.6116 11.2858C26.0738 10.9612 25.2935 10.8876 24.7072 11.1776C23.9713 11.5151 23.66 12.3936 23.6641 13.2331C23.6398 13.3239 23.5508 13.3759 23.4659 13.3369C23.187 12.7441 22.8271 12.1123 22.2408 11.7747C21.3998 11.2511 20.2354 11.2382 19.2529 11.4502C18.2825 11.857 17.4617 12.6445 16.6409 13.4062C16.556 13.298 16.5439 13.1465 16.4711 13.0427C16.3337 12.7311 16.0425 12.7527 15.7636 12.7744C15.6463 12.783 15.5291 12.7917 15.432 12.7787C15.2905 12.7657 15.153 12.6748 15.1611 12.4931C14.9953 12.2508 14.7123 12.2897 14.4374 12.3286C14.312 12.346 14.1867 12.3633 14.0735 12.3546C13.9562 12.2594 14.0452 12.043 13.9037 11.9305C13.6692 11.7747 13.3578 11.7791 13.1961 11.4978C13.1476 11.3896 13.2284 11.3117 13.2891 11.2295C13.7581 10.9352 14.1584 11.3983 14.5587 11.5714C14.7083 11.6146 14.8902 11.6016 14.9873 11.4718C15.1328 11.1559 15.2662 10.84 15.3269 10.4938C15.3471 10.3337 15.3067 10.0568 15.4603 9.94427C15.7393 9.81012 16.0749 9.83176 16.3983 9.81012C16.5682 9.80579 16.6895 9.8534 16.8229 9.90533C16.9846 9.96591 17.1625 10.0265 17.4455 9.98755C17.769 9.82311 17.8377 9.4899 17.951 9.22593C18.0682 8.90138 18.2704 8.39508 17.951 8.10082C17.4738 7.98831 17.1221 8.40373 16.7784 8.69799C16.2811 8.71963 15.9253 9.08313 15.4603 9.19131C15.2662 9.29517 15.2177 9.05717 15.1247 8.94898C14.8296 8.6677 14.498 8.9836 14.2352 9.11342C13.9805 9.19564 13.6934 9.36008 13.4144 9.25622C13.2931 9.174 13.2851 9.04418 13.2689 8.91003C13.3012 8.71963 13.2244 8.47297 13.4468 8.39508C13.6651 8.35181 13.8875 8.37777 14.118 8.40373C14.2676 8.42104 14.4212 8.43835 14.5748 8.43403C14.6638 8.42537 14.7608 8.43402 14.8619 8.44268C15.0479 8.45998 15.2298 8.4773 15.3714 8.36046C15.99 7.87147 15.9293 7.04927 16.1477 6.36987C16.2326 5.79433 16.4024 4.9505 15.9536 4.50911C15.3431 4.07204 14.5102 4.34035 13.8107 4.1283C13.2123 4.01579 12.8201 3.38833 12.161 3.4792C11.7203 3.67393 11.1907 3.66094 10.6731 3.64364C10.471 3.63931 10.2728 3.63066 10.0869 3.63931C9.4925 3.59171 8.91027 3.44025 8.31187 3.55276C7.9318 3.82539 7.41022 3.77346 6.98164 3.83837C6.50454 3.94222 5.97892 4.20186 5.81315 4.75144C5.88188 4.87693 6.05574 4.77308 6.14873 4.85962C6.07191 4.98512 5.9304 5.04138 5.84549 5.16254C5.35221 5.56066 5.36434 6.22274 4.8832 6.64682C4.86298 6.72472 4.75787 6.81126 4.8549 6.88915C4.9479 6.94541 5.04897 6.92377 5.15005 6.90214C5.23496 6.88483 5.31987 6.86319 5.3967 6.89781C5.36435 7.19207 5.13793 7.36949 4.96811 7.6075C4.86703 7.78925 4.68508 7.92772 4.71339 8.15274C4.8549 8.32584 5.11366 8.4297 5.13792 8.69799L4.86703 9.33844C4.8266 9.52452 4.73764 9.77983 4.84681 9.9486C5.12984 10.0481 5.41691 9.92696 5.66759 9.84907C5.86975 10.0308 5.61503 10.2472 5.58268 10.4506C5.4533 10.8184 5.40074 11.2208 5.36031 11.619C5.30775 11.8959 4.96002 12.0301 4.92363 12.294C5.11366 12.5623 5.49373 12.4541 5.78484 12.4498C5.94657 12.4195 6.08405 12.2421 6.24578 12.3157C6.25791 12.4152 6.15683 12.4801 6.13257 12.5623C5.91019 12.9345 6.02339 13.4451 5.78484 13.7999C5.9021 13.8995 6.03957 13.9428 6.19321 13.9644C6.34686 13.9947 6.52071 13.9687 6.65818 14.0163C6.74714 14.4231 6.66627 14.8558 6.68244 15.2626C6.81991 15.2669 6.99377 15.2929 7.11911 15.2323C7.17571 15.2193 7.18785 15.2929 7.18785 15.3318C7.06655 15.5742 6.93312 15.7862 6.78352 16.0026V16.0848C6.92504 16.1367 7.05442 16.2189 7.20402 16.2276C7.27276 16.2449 7.34553 16.2363 7.41427 16.2233C7.53152 16.206 7.64473 16.1887 7.72559 16.2882C7.85902 16.6041 7.77007 17.0065 7.74177 17.3138C8.03288 17.3051 8.29973 17.3441 8.54637 17.4349C8.79301 17.5734 8.94666 17.8071 8.95474 18.0927C8.96687 19.5164 8.43317 20.741 7.50727 21.758C6.58945 22.9134 5.10153 22.8485 4.27671 24.0991C3.81982 24.6097 4.05434 25.2458 3.42359 25.6439C3.29825 25.6872 3.14865 25.7348 3.00714 25.6612C2.56238 25.2588 2.65133 24.6789 2.68772 24.0818C3.04757 21.6455 5.27944 20.014 6.26599 17.8417C6.75927 16.9156 6.83609 15.5266 6.27812 14.5832C5.96679 13.9644 5.35222 13.6918 4.81852 13.4451C4.33333 13.3239 3.97752 13.7177 3.60554 13.9817C3.29826 14.1072 2.95053 14.1418 2.65941 14.3322C1.86694 14.6697 2.14188 15.6391 1.76586 16.2363C1.73352 16.3574 1.65265 16.4786 1.71735 16.5911C1.76182 16.5954 1.81034 16.5954 1.85886 16.5911C1.93973 16.5868 2.02059 16.5824 2.08933 16.6214C2.18232 16.669 2.29957 16.7599 2.3117 16.8767C2.38852 17.1623 2.26723 17.4046 2.10954 17.595C1.83056 18.1965 2.16614 18.9841 1.99228 19.6635C2.42491 19.789 2.87371 19.6246 3.181 19.287C3.46402 19.0231 3.52872 18.6552 3.73088 18.3523C3.85622 18.3177 3.87239 18.5038 3.95326 18.5254C4.46675 17.8633 4.89533 17.1147 4.89937 16.2016C4.80638 16.0978 4.72551 15.9809 4.70529 15.8338C4.69316 15.6823 4.71339 15.5309 4.83873 15.4703C4.96407 15.4011 5.04898 15.5309 5.12176 15.5958C5.37648 16.2925 5.20666 17.0844 4.84681 17.6643C3.58127 19.564 1.66883 21.2041 0.848051 23.3245C0.544808 24.0212 0.714621 24.904 0.920827 25.5833C1.1149 26.0723 0.8804 26.5267 0.876357 27.007C0.827838 27.4917 1.00977 27.8985 1.39793 28.1451C2.04484 28.738 3.0597 28.3139 3.69045 28.963C3.9007 29.1967 3.96943 29.5732 3.86835 29.8847C3.67832 30.3824 3.14866 30.3305 2.74433 30.4343L2.30362 30.8411C2.04081 31.0618 1.58796 31.0964 1.55965 31.5421C1.52326 31.897 1.62031 32.2042 1.8346 32.4379C2.07315 32.8706 1.685 33.2298 1.58796 33.6019C1.43432 34.2381 1.67692 34.7963 2.11359 35.1944C2.12572 35.229 2.13785 35.3069 2.10146 35.3459C1.39389 35.4497 0.593322 35.2637 0.172825 36.0339C-0.0535967 36.3844 -0.0414606 36.9167 0.116226 37.3062C0.310301 37.7476 0.734839 38.0635 1.18768 38.1024L3.27803 38.1111C3.27803 38.1111 3.32251 38.1197 3.36295 38.1111L9.33481 38.1413L12.343 38.15C12.5856 38.176 12.8565 38.2192 12.9939 38.4702C13.1233 39.1929 12.4158 39.353 12.3551 40.2661C12.3592 40.6902 12.5007 41.0493 12.8039 41.2094C12.8848 41.0883 13.0061 40.9238 13.1112 40.833C13.5196 40.4695 13.9926 40.2747 14.5263 40.2271C14.5829 40.2358 14.6395 40.2747 14.6557 40.3396C14.6719 40.7118 14.6234 41.1835 14.9307 41.4172C15.1975 41.2397 15.521 41.2138 15.8566 41.1965C16.2568 40.7767 16.5843 40.3699 16.9604 39.9112C16.9038 39.7728 16.7825 39.6689 16.8027 39.5218C16.8108 39.4439 16.8714 39.366 16.924 39.3314C17.021 39.3011 17.1463 39.2665 17.2151 39.3833C17.4455 39.9069 17.0372 40.3223 17.1504 40.8719H17.207C17.6437 40.5517 18.1248 40.357 18.6949 40.3656C18.8324 40.3699 18.9335 40.2747 19.0345 40.1795C19.1599 40.0627 19.2812 39.9415 19.4753 40.0151C19.5763 40.0584 19.6168 40.1363 19.6734 40.3223C19.7462 40.5777 19.7461 40.7724 19.9321 41.0277C20.1545 41.2441 20.4941 41.3176 20.8055 41.2441C20.7408 40.9325 20.7206 40.5863 20.8783 40.3223C20.947 40.2012 21.0602 40.08 21.2098 40.1016C21.3432 40.1449 21.3513 40.2574 21.3796 40.3353C21.4281 40.4868 21.3837 40.6642 21.4928 40.7724C21.9618 41.0493 22.3702 41.5816 22.5885 42.0749L22.6411 42.0403C23.0778 41.6898 23.4942 41.2094 23.6277 40.6642C23.7449 40.1233 23.3123 39.379 23.8864 38.9982C24.2907 38.7126 24.8891 38.7515 25.3016 39.0068C25.714 39.2275 25.9768 39.6732 26.0172 40.1363C26.0738 40.4435 25.9646 40.7421 25.7301 40.9022C25.5158 40.9974 25.249 40.9282 25.0671 40.7507C25.0064 40.6772 24.9579 40.6382 24.9741 40.4781C24.9579 40.4695 25.0671 40.1795 24.9538 40.1622C24.5333 40.0627 24.2058 40.4002 23.9916 40.7378C23.6883 41.3912 23.7207 42.3432 24.1775 42.8928C24.687 43.5419 25.4027 43.6111 26.3488 43.2476L26.3649 43.3039C26.4458 43.5679 26.4579 43.8535 26.5469 44.1131C26.7531 44.918 27.396 45.7272 28.1076 45.9739C28.1318 45.9782 28.1601 45.9868 28.1884 45.9998C28.3057 45.9998 28.4149 45.9868 28.5119 45.9566C28.8232 45.8787 29.0294 45.6709 29.2033 45.4979C29.8583 44.7925 30.0685 44.1434 30.2101 43.3472L30.2181 43.2693C30.7195 43.464 31.4271 43.5332 31.9325 43.3125C32.3894 43.1308 32.6845 42.8538 32.8099 42.1485C32.915 41.1532 32.7209 40.7551 32.1953 40.3743C31.9972 40.2618 31.7748 40.1925 31.6009 40.1925C31.6414 40.3916 31.6333 40.6685 31.4513 40.7897C31.2896 40.9282 31.0349 41.0061 30.8246 40.9109C30.5093 40.6902 30.5456 40.2098 30.6103 39.855C30.7155 39.4006 31.14 39.0587 31.5201 38.8943C31.9325 38.7299 32.4783 38.7688 32.8099 39.1107C33.0525 39.3357 33.0039 39.7035 32.9271 39.9848C32.7209 40.9022 33.3274 41.5427 33.9177 42.0576L33.9864 42.0663C34.1765 41.4994 34.69 41.0537 35.1469 40.7421C35.1792 40.5344 35.1954 40.2791 35.3814 40.1492C35.4784 40.106 35.5673 40.1492 35.6361 40.2315C35.8504 40.5041 35.9029 40.9585 35.7816 41.2787C36.1294 41.3479 36.5135 41.2787 36.752 40.9714C36.8046 40.6988 36.9421 40.4565 37.0067 40.1795C37.0512 40.08 37.1563 40.0411 37.2493 40.0281C37.4111 40.0194 37.5283 40.1795 37.6617 40.292C38.0822 40.5344 38.6483 40.3786 39.0607 40.6902C39.1901 40.7594 39.3316 40.8935 39.4853 40.9152L39.4812 40.7421C39.554 40.2704 39.1618 39.8031 39.465 39.379C39.5459 39.3227 39.6187 39.34 39.6995 39.379C39.7804 39.4049 39.8491 39.5001 39.8411 39.6127C39.8572 39.7511 39.6712 39.8204 39.6753 39.9588L40.7912 41.2441C41.1349 41.2657 41.4745 41.309 41.7818 41.4821C41.9395 41.3609 41.9597 41.1489 42.0042 40.9801C42.0972 40.7507 41.8869 40.3223 42.2023 40.2747C42.7724 40.3743 43.3223 40.5603 43.7387 41.0104C43.7913 41.0839 43.8236 41.2094 43.9126 41.2397C44.2805 40.9758 44.3169 40.4954 44.2603 40.0757C44.1916 39.4785 43.5366 39.1366 43.6457 38.5135C43.7549 38.2928 43.9854 38.2063 44.2078 38.1846L53.96 38.1933L55.828 38.176C56.1515 38.0808 56.4749 37.9077 56.6771 37.5961C57.0006 37.1374 57.0855 36.4234 56.7822 35.9863ZM39.8128 9.32978C39.7723 9.35142 39.7319 9.3644 39.6874 9.37739C39.6429 9.38604 39.5985 9.39902 39.554 9.41201C39.4003 9.41201 39.2629 9.30815 39.178 9.15669C39.1092 8.97495 39.0486 8.74127 39.1214 8.59414C39.1618 8.55952 39.2265 8.54654 39.2912 8.57683C39.5459 8.68069 39.7642 8.95331 39.9543 9.21295C39.926 9.26055 39.8734 9.29517 39.8128 9.32978ZM31.3219 5.47844C31.3907 5.46113 31.4513 5.48709 31.4877 5.55633C31.5201 5.70346 31.5039 5.87655 31.4149 5.99772C31.4069 5.99772 31.4028 5.99772 31.3988 5.99772C31.3098 5.99772 31.2977 5.88521 31.2573 5.81597C31.237 5.72077 31.2007 5.53469 31.3219 5.47844ZM16.9442 9.02255C17.0938 8.87974 17.3687 8.86676 17.4698 9.08745C17.5102 9.18698 17.5385 9.31248 17.5062 9.39902C17.4496 9.49423 17.4172 9.56779 17.3283 9.56779C17.3121 9.57212 17.3 9.57212 17.2879 9.57212C17.2191 9.57212 17.1827 9.54616 17.1423 9.52885C17.0331 9.49423 16.9361 9.38604 16.8835 9.27786C16.8593 9.18698 16.8916 9.10044 16.9442 9.02255ZM52.929 26.1675C53.1474 26.0637 53.3212 26.3277 53.5315 26.3709C53.6325 26.4055 53.7417 26.4229 53.8509 26.4229C54.1177 26.4229 54.3846 26.3147 54.5584 26.0853C55.076 25.3756 55.0153 24.3544 54.8496 23.4889C54.2512 21.4204 52.5611 19.9059 51.4047 18.1619C50.7699 17.3181 50.491 15.9896 50.8831 14.9337C51.15 14.3755 51.6675 13.787 52.2942 13.8692C52.6864 14.0509 53.0018 14.4144 53.4183 14.5313C53.7094 14.5745 54.0652 14.5919 54.2471 14.9078C54.3442 15.0722 54.3927 15.3751 54.2835 15.5395C54.045 15.7905 53.9439 16.1064 53.9317 16.444C53.6689 17.0022 54.3442 17.3527 54.1824 17.9456C54.1299 18.0884 54.1016 18.2701 53.9398 18.3177C53.6568 18.2052 53.8185 17.7984 53.5679 17.621C53.4466 17.4479 53.2242 17.4696 53.0624 17.4955C52.7956 16.894 53.3374 16.431 53.2444 15.7949C53.2161 15.6218 53.2646 15.4054 53.1716 15.2756C53.0544 15.3059 53.0786 15.5785 52.9088 15.4876C52.7835 15.1934 52.5934 14.7996 52.27 14.7087C52.0233 14.6568 51.7322 14.6914 51.5543 14.8515C51.1177 15.2842 50.9681 15.8338 51.0732 16.5392C51.3117 17.5907 51.8252 18.2831 52.4196 19.0663C53.3293 20.2434 54.4169 21.3382 55.1447 22.6061C55.1932 22.7273 55.6744 23.398 55.5773 24.7958C55.541 25.2934 55.1447 25.2675 55.2539 26.6955C55.2215 26.9594 54.983 27.1412 54.7647 27.2018C54.1622 27.3143 53.6204 27.2148 53.2687 27.8336L53.2161 27.8249C53.2201 27.297 53.0867 26.8513 52.9088 26.4229C52.8805 26.3406 52.8765 26.2281 52.929 26.1675ZM53.3212 31.157C53.7741 31.2392 54.332 31.3171 54.5301 31.858C54.5989 32.2302 54.2835 32.4379 54.2754 32.7797C54.2026 33.3812 54.611 33.8443 54.4331 34.4414C54.3967 34.6881 54.2229 34.8699 54.0247 35.0127C53.7538 35.1122 53.4991 35.0603 53.2363 35.0083C52.9775 34.9564 52.7188 34.9045 52.4317 34.9997C52.2174 35.0559 52.1446 35.2463 51.9506 35.2463C51.9142 35.2463 51.8778 35.242 51.8333 35.229C51.7282 35.1641 51.6514 35.0473 51.6918 34.9131C51.8131 34.6795 51.8576 34.3419 52.1325 34.2554C52.4398 34.052 52.9533 34.1948 53.0544 33.6842C53.1069 33.2384 53.3778 32.5504 52.8765 32.2648C52.1042 31.8061 51.0044 31.7066 50.4465 30.8541C50.4343 30.7632 50.3616 30.6723 50.4141 30.5685C50.5435 30.2136 51.0853 30.4213 51.1621 29.9886C51.1702 29.8891 51.2228 29.7809 51.3158 29.7463C51.4775 29.6597 51.7484 29.6251 51.898 29.7809C52.0233 30.1141 52.2093 30.4084 52.4196 30.694C52.65 30.9666 52.9614 31.1916 53.3212 31.157ZM51.3522 33.6539C50.7133 33.6842 50.0866 33.9178 49.7793 34.5669C49.6702 34.7963 49.654 35.0603 49.5974 35.2983L49.5246 35.3329L46.6863 35.3415C46.3143 35.3632 45.9949 35.0386 45.8453 34.6924C45.6431 33.9135 46.3749 33.5154 46.6175 32.8966C46.658 32.7148 46.666 32.4682 46.5609 32.3297C46.383 32.083 46.0798 32.0484 45.8008 32.1177C45.0568 32.3427 44.5272 33.1259 43.6983 33.1259C43.6619 33.1259 43.6255 33.1259 43.5851 33.1216C43.5002 33.061 43.6174 32.9702 43.6377 32.8966C44.0177 32.096 45.2105 32.8879 45.3763 31.8797C45.4612 31.369 45.1539 31.0358 45.166 30.5685C45.0649 30.3954 44.976 30.1833 45.0164 29.9886C45.2064 29.716 45.2711 29.4087 45.3156 29.0755C45.3924 28.95 45.5218 28.8981 45.6512 28.8808C45.9666 28.9457 46.2213 29.1837 46.5528 29.2097C46.8561 29.2789 47.1917 29.2486 47.5192 29.2703C47.689 29.3611 47.7456 29.5818 47.879 29.716C48.5947 30.5382 49.3952 31.4123 50.3696 31.7498C51.0408 32.0138 51.7686 32.148 52.3913 32.5504C52.4843 32.624 52.5894 32.7105 52.5934 32.836C52.553 33.1995 52.5813 33.5976 52.2619 33.8097C52.0719 33.8962 51.9263 33.8183 51.7767 33.7447C51.6514 33.6798 51.5179 33.6149 51.3522 33.6539ZM51.4169 34.2208C51.4007 34.3722 51.2592 34.4544 51.154 34.6189C50.9923 34.9261 51.1419 35.2983 50.774 35.3978C50.7214 35.4281 50.6648 35.4454 50.6042 35.4454C50.491 35.4454 50.3737 35.3935 50.2847 35.3242C50.2079 35.2507 50.1715 35.1511 50.1958 35.0516C50.2847 34.6232 50.6405 34.1905 51.0408 34.1169C51.0651 34.1169 51.0894 34.1169 51.1136 34.1169C51.2268 34.1169 51.3481 34.1169 51.4169 34.2208ZM45.1741 34.4025C45.162 34.5886 45.1903 34.7314 45.0083 34.8266C44.9638 34.8352 44.9234 34.8396 44.8789 34.8396C44.7738 34.8396 44.6727 34.8093 44.5838 34.7357C44.3735 34.515 44.2644 34.1861 44.0056 34.0563C43.7873 33.9871 43.4678 34.0477 43.3627 33.7923C43.3385 33.7794 43.3465 33.7577 43.3668 33.7361C43.6538 33.4462 44.1107 33.6625 44.4544 33.4851C44.887 33.312 45.3439 33.0697 45.8372 33.1779C45.8372 33.1779 45.8978 33.1995 45.8978 33.2428C45.7401 33.7577 45.1054 33.7837 45.1741 34.4025ZM38.5149 18.7504C39.1618 18.374 39.8047 17.9888 40.3748 17.4219C40.771 17.1363 41.0015 16.9762 41.4381 16.7426C41.5999 16.682 41.7899 16.7209 41.9274 16.8118C42.17 17.1061 41.8546 17.4046 41.9597 17.7076C42.0123 17.8287 42.1336 17.7595 42.2185 17.7595C42.4409 17.7162 42.7441 17.4825 42.9705 17.5864C43.019 17.6297 42.9988 17.7249 42.9988 17.7854C42.7643 18.11 42.3438 18.2009 42.2266 18.625C42.1093 19.0144 41.8101 19.4385 41.4058 19.4904C40.9489 19.5597 40.488 19.4904 40.1726 19.8539C39.6793 20.555 38.9192 21.1521 38.5149 21.8835C38.3693 22.2989 38.3248 22.8961 38.624 23.2639C38.7211 23.424 38.8464 23.6317 38.7534 23.8221C38.6281 24.0212 38.4461 24.0688 38.248 24.0774C38.1469 24.2116 38.1631 24.3111 38.0135 24.3414C37.9326 24.3803 37.868 24.3544 37.8073 24.3327C37.7426 24.3111 37.682 24.2851 37.6173 24.3327C37.5202 24.4063 37.4394 24.4669 37.3383 24.4669C37.2938 24.4669 37.2493 24.4582 37.1927 24.4323C36.748 24.0039 36.9178 23.2206 36.9178 22.6278C36.9299 21.9787 37.2736 21.468 37.5162 20.9141C37.8356 20.1915 37.8033 19.2784 38.5149 18.7504ZM37.872 18.4865L37.8801 15.691C37.876 15.5525 37.9529 15.2886 38.1308 15.4227C38.6887 15.8381 39.4974 16.0978 39.7319 16.881C39.7278 17.3094 39.3478 17.5907 39.0607 17.8244C38.717 18.1316 38.3006 18.2528 37.9812 18.586C37.969 18.5947 37.9569 18.5947 37.9448 18.5947C37.8963 18.599 37.8922 18.5211 37.872 18.4865ZM42.9341 18.6596C42.8411 18.6899 42.7481 18.7375 42.6511 18.7375C42.6268 18.7375 42.6026 18.7331 42.5743 18.7288C42.5015 18.6855 42.5702 18.6163 42.5783 18.5644C42.8492 18.2831 43.2252 18.2701 43.5123 18.0191C43.5244 18.0191 43.5366 18.0191 43.5487 18.0191C43.5932 18.0191 43.6377 18.0148 43.6296 18.084C43.5406 18.4259 43.1848 18.5341 42.9341 18.6596ZM43.2172 19.4688C43.1565 19.5207 43.0756 19.5553 42.9907 19.5553C42.9665 19.5553 42.9382 19.551 42.9139 19.5467C42.8371 19.4991 42.7805 19.3996 42.8169 19.2957C42.9058 19.1832 43.0433 19.1615 43.1808 19.1442L43.2293 19.2265C43.2495 19.3173 43.2616 19.3909 43.2172 19.4688ZM43.0918 17.0065C42.9139 17.1104 42.7279 17.2575 42.5258 17.2575C42.4934 17.2575 42.4611 17.2532 42.4287 17.2445C42.356 17.1839 42.4126 17.0801 42.4368 17.0195C42.6147 16.6647 42.8937 16.3098 43.2495 16.18C43.3304 16.18 43.4476 16.1497 43.484 16.2492C43.5527 16.5781 43.3182 16.8204 43.0918 17.0065ZM41.9961 20.4338C41.9031 20.4338 41.802 20.4122 41.7495 20.3299C41.7576 20.1871 41.9152 20.1092 42.0446 20.1568C42.0365 20.2391 42.1134 20.4122 41.9961 20.4338ZM37.8599 32.2734L37.872 26.0161C37.876 25.4968 38.0176 24.9992 38.4178 24.6573C38.7494 24.415 39.2548 24.4279 39.3357 23.7485C39.4165 23.2206 38.9637 23.0994 38.9798 22.5585C38.996 22.3984 39.0364 22.2426 39.1497 22.1215C39.647 21.5762 40.0837 21.1391 40.4192 20.4987C40.488 20.4035 40.6618 20.3645 40.7265 20.4987C40.8559 21.2993 41.426 22.0782 42.1578 22.3422C42.732 22.6148 43.5851 22.8095 43.763 23.6101C43.7428 23.7832 43.8803 24.0471 43.7064 24.138C42.9988 24.5058 42.3479 25.0035 41.5635 25.2069C40.7589 25.7045 41.0742 26.8599 41.0742 27.7297C41.0904 28.4308 41.2036 29.0972 41.6767 29.5862C42.0689 29.9929 42.5419 30.4084 42.5905 31.0099C42.4489 31.5508 41.8425 31.4383 41.4503 31.5681C40.9732 31.6806 40.5567 31.9922 40.2292 32.3816C39.8774 32.5331 39.4206 32.6326 39.2831 33.0913C39.0728 33.6625 38.6281 34.2813 38.0499 34.4025C38.0418 34.4025 38.0378 34.4025 38.0297 34.4025C37.9488 34.4025 37.8922 34.3462 37.8801 34.2727C37.8356 33.6149 37.872 32.9139 37.8599 32.2734ZM46.5811 14.1332C46.1242 14.3452 46.1404 14.9034 45.91 15.2799C45.8857 15.2972 45.8533 15.3189 45.821 15.3189C45.8089 15.3189 45.7968 15.3145 45.7887 15.3102C45.4773 14.8039 45.724 14.1981 45.9949 13.7653C46.1202 13.5663 46.4194 13.2071 46.6054 13.5533C46.6701 13.735 46.6782 13.973 46.5811 14.1332ZM46.666 15.1458C46.7348 15.1328 46.8561 15.0549 46.8965 15.1674C46.8439 15.3405 46.8278 15.6131 46.6014 15.665C46.5852 15.6694 46.565 15.6694 46.5447 15.6694C46.4881 15.6694 46.4315 15.6564 46.4154 15.6001C46.4194 15.4097 46.5043 15.241 46.666 15.1458ZM46.0879 16.669C46.0393 17.2359 45.8493 17.7422 45.6795 18.2528C45.6229 18.3091 45.5744 18.3307 45.538 18.3307C45.3803 18.3307 45.3197 17.9845 45.162 17.9153C44.9598 17.7162 44.7617 17.4695 44.515 17.3614C44.4908 17.3224 44.4261 17.2618 44.4746 17.2099C44.794 16.9979 45.1458 16.8637 45.4895 16.7123C45.6755 16.6603 45.8574 16.5911 46.0474 16.6041L46.0879 16.669ZM43.9247 13.9384C43.8964 13.9384 43.8681 13.9384 43.8398 13.9384C43.8277 13.9384 43.8156 13.9384 43.8075 13.9384C43.7024 13.9384 43.5972 13.9298 43.5083 13.8562C43.4476 13.7826 43.3708 13.6745 43.4274 13.5706C43.6296 13.034 44.2886 13.3759 44.6242 13.0427C44.9679 12.8479 45.2388 12.4195 45.6795 12.5017C45.1458 12.9951 44.7293 13.9168 43.9247 13.9384ZM45.3682 16.3531C45.0811 16.5824 44.7293 16.6993 44.3654 16.6993C44.3452 16.6993 44.321 16.6993 44.3008 16.6993C44.2482 16.5348 44.3008 16.3444 44.3897 16.206C44.5191 15.9939 44.7738 16.0112 44.976 16.0632C45.1175 16.1237 45.2913 16.1757 45.3682 16.3531ZM44.3169 17.409C44.3331 17.5085 44.3088 17.6426 44.1956 17.7032C44.1148 17.7335 44.0339 17.7941 43.9449 17.7941C43.9207 17.7941 43.9005 17.7898 43.8762 17.7811C43.8075 17.7595 43.7428 17.6989 43.6983 17.6383C43.6498 17.5258 43.7347 17.4133 43.8236 17.3614C43.9652 17.2489 44.2158 17.2272 44.3169 17.409ZM40.6295 32.9442C40.9893 32.2085 41.7737 32.1133 42.457 31.9576C42.8856 31.6849 43.1565 31.2003 43.112 30.6507C42.9988 30.0449 42.3842 29.7073 42.2225 29.1101C42.0284 28.5822 41.988 27.9547 41.988 27.3619C41.9597 26.9378 41.8303 26.5181 41.8829 26.068C42.0689 25.7867 42.3802 25.6742 42.6511 25.5098C43.3829 25.1549 44.0865 24.7265 44.8304 24.3847C45.2267 24.3371 45.5218 24.5664 45.8089 24.8304C45.8938 24.9342 45.9504 25.0857 45.9019 25.2198C45.6755 25.3107 45.3722 25.2588 45.1579 25.38C44.8062 25.6223 44.7859 26.0594 44.6929 26.4229C44.228 26.6089 43.4274 26.4878 43.3789 27.2277C43.3182 27.7211 43.5123 28.1322 43.759 28.487C43.8277 28.7986 43.7832 29.1145 43.6377 29.3525C43.5891 29.5732 43.6457 29.7895 43.763 29.9323C44.1592 30.2785 44.5959 30.5512 44.6283 31.1483C44.6283 31.3128 44.6929 31.4772 44.6121 31.6243C43.9935 32.2302 43.1606 32.3124 42.5056 32.836L42.077 33.2384C41.7899 33.1259 41.519 33.1432 41.2319 33.1606C41.1268 33.1649 41.0257 33.1735 40.9166 33.1735C40.8276 33.1735 40.7346 33.1692 40.6376 33.1562C40.5769 33.0956 40.6376 33.0048 40.6295 32.9442ZM48.4572 21.9137C49.4801 22.8095 50.7497 22.9307 51.7363 23.926C52.0436 24.177 51.9586 24.6573 52.0274 25.0121C52.1325 25.7954 52.549 26.4705 52.4681 27.3143C52.3104 27.6302 51.9061 27.8206 51.9465 28.249C51.8212 28.3615 51.6473 28.3355 51.522 28.3831C51.1581 28.526 51.0327 28.9414 51.0327 29.3179C50.9923 29.4087 50.9478 29.4996 50.8548 29.5386C50.7133 29.5818 50.588 29.5515 50.5071 29.4563C50.0947 29.1101 49.6863 28.6644 49.1567 28.7467C49.0758 28.7943 48.999 28.9068 48.8939 28.8375C48.6836 28.738 48.4491 28.513 48.4289 28.262C48.4046 27.7254 48.2955 27.1239 48.7402 26.7907C48.7483 26.2757 48.4168 25.8776 48.0124 25.6266C47.5636 25.3453 46.9693 25.3843 46.5973 24.9299C46.5407 24.7958 46.5488 24.6227 46.6499 24.5318C46.8116 24.5015 46.9006 24.6876 47.0421 24.7179C47.2119 24.7568 47.3979 24.8434 47.5839 24.8434C47.6647 24.8434 47.7415 24.8261 47.8184 24.7828C47.875 24.7006 47.8265 24.601 47.8143 24.5275C47.224 23.0172 45.6754 22.5412 44.418 22.1344C44.2886 22.0739 44.1552 21.983 44.1067 21.8315C44.0541 21.3122 44.046 20.7627 43.8439 20.2953C43.8317 19.8583 43.7751 19.3822 44.1148 19.0923C44.4948 18.9495 44.9153 19.049 45.2792 18.8673C45.5905 18.5038 46.1809 18.5038 46.5852 18.6466C46.7954 18.7461 46.9976 18.9149 47.1553 19.1139C47.879 19.9145 47.7456 21.1305 48.4572 21.9137ZM46.9855 14.0942C47.0582 13.9601 46.9814 13.7307 47.1068 13.6139C47.3494 13.6571 47.5394 13.9254 47.6486 14.1332C47.6769 14.2543 47.5919 14.3279 47.4949 14.3582C47.3938 14.3971 47.2685 14.4231 47.1512 14.4231C47.0865 14.4231 47.0178 14.4144 46.9612 14.3971C46.9006 14.2976 46.9774 14.1937 46.9855 14.0942ZM47.8305 15.9896C47.7415 16.0329 47.6607 16.1108 47.5677 16.1108C47.5475 16.1108 47.5273 16.1064 47.507 16.0978C47.4909 15.7602 47.6324 15.427 47.9033 15.215C47.9963 15.1847 48.0933 15.2323 48.1257 15.3275C48.1984 15.5958 48.0205 15.8165 47.8305 15.9896ZM48.6472 13.1682C48.441 13.3499 48.2753 13.1076 48.0973 13.008C48.0003 12.9172 47.9194 12.822 47.9235 12.6705C48.0003 12.2681 48.154 11.7747 47.9558 11.368C47.8831 11.2598 47.7699 11.2252 47.6607 11.2641C47.2766 11.5714 47.0299 12.043 46.6943 12.3676C46.6782 12.3892 46.6539 12.3892 46.6256 12.3892C46.6135 12.3892 46.6014 12.3892 46.5892 12.3936C46.5084 12.056 46.4679 11.593 46.6216 11.2858C46.8965 10.9655 47.2927 10.9136 47.6445 10.7492C47.8548 10.4636 47.9599 10.1087 48.1337 9.80147C48.1903 9.71493 48.344 9.75819 48.3399 9.85772C48.2025 10.3121 47.8345 10.7319 47.9922 11.2598C48.0852 11.329 48.1701 11.2858 48.2631 11.2425C48.3278 11.2122 48.3925 11.1819 48.4653 11.1906C48.5461 11.1862 48.6149 11.2208 48.6755 11.2728C48.8736 11.5627 48.6755 11.8699 48.5664 12.1426C48.5866 12.4844 48.7483 12.8047 48.6472 13.1682ZM49.0637 10.2645C49.0556 10.2645 49.0435 10.2688 49.0313 10.2688C48.9949 10.2688 48.9586 10.2558 48.9464 10.2169C48.8898 9.88369 49.0879 9.62405 49.2901 9.37739C49.371 9.33411 49.5246 9.15669 49.5893 9.33844C49.5691 9.71492 49.278 9.98755 49.0637 10.2645ZM49.3669 5.93281C49.4114 5.85925 49.4801 5.82896 49.5448 5.81165C49.6257 5.79866 49.6985 5.85924 49.7672 5.90252C49.8602 5.9631 49.8602 6.11889 49.8602 6.23573C49.844 6.37853 49.7227 6.52133 49.6095 6.58192C49.5812 6.59057 49.5489 6.5949 49.5165 6.5949C49.4357 6.5949 49.3629 6.5646 49.3386 6.48238C49.2861 6.29631 49.278 6.09725 49.3669 5.93281ZM49.096 7.19207C49.2335 7.11418 49.464 7.12716 49.5489 7.30025C49.6136 7.52528 49.6621 7.7979 49.5489 7.98831C49.5044 8.07485 49.4235 8.10082 49.3427 8.10082C49.3144 8.10082 49.282 8.09649 49.2537 8.09216C49.0677 8.00994 48.8817 7.82819 48.8737 7.5772C48.8615 7.42142 48.9747 7.28727 49.096 7.19207ZM48.8979 8.41671C48.9181 8.49028 48.9383 8.60712 48.8939 8.66338C48.8534 8.68934 48.817 8.70232 48.7766 8.70232C48.7524 8.70232 48.7241 8.69799 48.6958 8.68934C48.627 8.65039 48.6028 8.58115 48.5866 8.50759C48.623 8.42537 48.627 8.31719 48.7362 8.31286C48.7968 8.29122 48.8696 8.33882 48.8979 8.41671ZM43.0595 10.5198C42.7522 10.5977 42.5419 10.9049 42.2589 11.0391C42.0446 11.0001 41.9759 10.7535 41.8991 10.5804C41.7859 10.152 41.8708 9.70194 42.1214 9.37739C42.3964 9.27786 42.6511 9.48124 42.918 9.51153C43.1646 9.55481 43.5244 9.61106 43.7145 9.37739C43.9369 9.09611 43.8883 8.70665 43.9086 8.33017C43.8924 8.15707 43.7913 8.01427 43.6498 7.91474C43.48 7.80223 43.2778 7.87147 43.0797 7.88012C42.6309 7.94503 42.1619 8.05322 41.6929 8.02725C41.5635 7.99263 41.4462 7.91041 41.3734 7.78925C41.2521 7.40411 41.2602 6.90646 41.2441 6.50402C41.2602 6.29198 41.2238 6.02801 41.43 5.92416C42.0163 5.71212 41.709 4.89857 42.2589 4.61297C42.4975 4.45285 42.8654 4.44853 43.1161 4.56537C43.5204 4.81202 43.1848 5.44815 43.6336 5.66019C43.8358 5.73375 44.0662 5.7727 44.3008 5.7727C44.6929 5.7727 45.0973 5.66451 45.3884 5.43516C45.445 5.34429 45.5097 5.25341 45.4935 5.13225C45.449 4.78173 45.0811 4.61729 44.8425 4.47016C44.7819 4.42256 44.8142 4.34467 44.8223 4.28409C44.9638 4.07638 45.17 3.97685 45.4167 3.97252C46.0434 3.95521 46.7469 3.88164 47.3777 3.92492L47.4343 3.98983C47.4868 4.31438 47.5434 4.66057 47.8305 4.86395C47.9194 4.89425 48.0286 4.88126 48.1378 4.86395C48.2995 4.84232 48.4693 4.82068 48.5987 4.94184C48.4046 5.05868 48.1661 5.05869 47.968 5.1409C47.6688 5.24043 47.2927 5.49575 47.2523 5.87223C47.2078 6.25736 47.3332 6.57759 47.6081 6.78963C47.7254 6.83723 47.8669 6.91945 48.0044 6.82857C48.3116 6.60355 47.9922 5.82463 48.5542 5.96743C48.627 6.01503 48.6634 6.09725 48.6796 6.18812C48.6149 6.61221 48.154 6.83723 48.0893 7.26131C47.9882 7.7503 47.9397 8.26526 47.8912 8.77156C47.8709 8.88407 47.7739 8.97494 47.6647 8.99225C47.5272 9.01389 47.3898 8.97062 47.3251 8.83214C47.1351 8.41672 46.9289 7.91042 46.4477 7.80656C45.9221 7.67674 45.2954 7.78925 44.9113 7.26996C44.8102 7.20938 44.7495 7.04061 44.6121 7.06658C44.5676 7.1488 44.5595 7.24833 44.6283 7.31757C45.0245 7.7027 45.3601 8.1614 45.3075 8.77588C45.2509 9.19131 44.883 9.55481 44.515 9.65867C44.0986 9.63703 43.8519 9.97457 43.6215 10.3208C43.4759 10.4895 43.2414 10.4376 43.0595 10.5198ZM44.7374 10.7405C44.5514 10.8184 44.3857 11.0391 44.1794 11.0391C44.1309 11.0391 44.0824 11.0261 44.0298 11.0001C43.9328 10.9179 43.9288 10.7881 43.9247 10.6626C43.9449 10.5112 44.046 10.3727 44.1471 10.2732C44.4261 10.1001 44.8708 10.139 45.0932 10.4116C45.1579 10.6929 44.8385 10.6107 44.7374 10.7405ZM34.039 13.0686C34.2452 12.571 34.7466 12.3113 35.1671 12.082C37.12 11.2295 38.8343 12.6402 40.209 14.1029C40.3546 14.2327 40.5203 14.3495 40.6942 14.4058C40.771 14.2933 40.7589 13.9904 40.7872 13.8519C40.8276 13.6874 40.9085 13.5057 41.0702 13.4148C41.2845 13.298 41.4988 13.3369 41.7171 13.3759C41.8788 13.4018 42.0446 13.4321 42.2144 13.3932C42.263 13.3629 42.2913 13.3023 42.2549 13.2504C42.1659 13.1076 41.984 13.1898 41.8667 13.1249C41.8061 13.0859 41.7373 13.047 41.6767 13.0037L41.7656 12.9042C42.0123 12.9085 42.2185 12.822 42.4692 12.822C42.9584 12.7744 43.484 12.8133 43.8843 12.571C44.325 12.2681 43.8075 11.3853 44.515 11.3983C44.5433 11.4026 44.5676 11.4026 44.5959 11.4026C45.0487 11.4026 45.3156 10.9439 45.5986 10.6193C45.7118 10.5241 45.8776 10.5804 45.918 10.7232C45.9464 10.853 45.8897 10.9439 45.8736 11.0434C45.9261 11.1646 45.9868 11.3247 45.9342 11.4762C45.918 11.6622 45.7321 11.7964 45.5744 11.8397C45.3237 11.9175 45.0973 11.8094 44.9194 11.619C44.8264 11.567 44.6808 11.567 44.5838 11.6016C44.2401 11.805 44.4544 12.281 44.1754 12.5277C43.8398 12.8436 43.4355 12.9864 42.9867 13.0037C42.7805 13.0859 42.4853 13.2893 42.4853 13.5793C42.4772 13.8043 42.6147 13.9687 42.7886 14.0596C43.0554 14.0682 42.7845 14.3019 42.8492 14.4361C42.8654 14.5875 42.9624 14.7087 43.0797 14.7736C43.201 14.8428 43.3344 14.7736 43.4395 14.739C43.9732 14.4447 44.4746 14.0596 45.1377 14.1029C45.2307 14.3365 45.1458 14.5789 45.1054 14.7866C45.0649 14.9078 45.0326 15.0289 44.9275 15.0982C44.5919 15.0895 44.1431 14.8645 43.8641 15.1674C43.6336 15.5049 43.2495 15.5309 42.8977 15.4963C42.5864 15.3102 42.1336 15.4746 41.8748 15.189C41.8546 14.8861 42.1578 14.5875 41.8829 14.3192C41.4503 14.2154 41.0783 14.5313 40.8236 14.8948C40.767 14.9554 40.6618 14.9424 40.6012 14.9251C40.3869 14.7736 40.1119 14.6395 39.8734 14.7823C39.6146 14.9294 39.4731 15.453 39.1011 15.241C38.8262 14.9078 38.43 14.6438 38.0499 14.6481C37.775 14.6481 37.4313 13.8735 36.9421 13.9125C36.5216 13.8259 36.1536 13.986 35.8261 14.2067C35.6401 14.2543 35.5593 14.1202 35.4784 13.986C35.4016 13.8605 35.3207 13.7394 35.1509 13.7567C35.0741 13.748 34.9932 13.787 34.9204 13.8302C34.8113 13.8908 34.7102 13.9514 34.6414 13.8475C34.4959 13.6139 34.4676 13.2158 34.132 13.1941C33.9945 13.2071 33.9986 13.1984 34.039 13.0686ZM31.3139 11.6276C31.6939 11.2728 32.3166 11.1256 32.7896 11.3593C32.8543 11.4199 32.9433 11.4415 32.9797 11.5238L32.9675 11.5627C32.3894 11.5238 31.8112 11.6406 31.4796 12.1642C31.3907 12.3286 31.3422 12.532 31.1926 12.6229C31.1723 12.6272 31.1562 12.6272 31.136 12.6272C31.0632 12.6272 30.9985 12.6013 30.9661 12.532C30.8893 12.1815 31.0511 11.857 31.3139 11.6276ZM30.392 12.8652C30.3475 12.9907 30.1575 12.9648 30.1332 13.0383C30.0888 13.008 30.0039 13.0297 29.9189 13.047C29.8421 13.0643 29.7613 13.0859 29.7006 13.0643C29.268 13.047 28.8273 13.047 28.4189 12.9648C28.2006 13.0037 28.0671 13.2071 27.8205 13.1941C27.8165 13.1941 27.8124 13.1941 27.8124 13.1941C27.7316 13.1941 27.6952 13.1119 27.7032 13.008C27.679 12.7441 27.7882 12.519 27.9782 12.3589C28.1925 12.1988 28.4876 12.2551 28.7302 12.2767C29.1022 12.3373 29.4782 12.4498 29.8543 12.4974C29.8583 12.5104 30.3556 12.6186 30.392 12.8652ZM29.9351 13.748C29.7532 13.8649 29.5146 13.9125 29.2882 13.9125C29.1709 13.9125 29.0577 13.8995 28.9526 13.8735C28.8434 13.8216 28.8192 13.6918 28.8475 13.5663C28.9203 13.4062 29.078 13.4235 29.2356 13.4408C29.3165 13.4494 29.4014 13.4581 29.4742 13.4451L29.8826 13.5706C29.9311 13.6269 29.9756 13.6874 29.9351 13.748ZM28.9203 7.08822C28.896 7.1012 28.8717 7.10552 28.8475 7.10552C28.7828 7.10552 28.7262 7.06225 28.706 6.99734C28.6696 6.86319 28.6979 6.70308 28.7868 6.6122C28.896 6.62086 28.9971 6.66413 29.0618 6.77665C29.0416 6.88483 29.0254 7.01032 28.9203 7.08822ZM28.4674 4.4442C28.4957 4.29274 28.5604 4.14994 28.6736 4.07637C29.2963 3.8124 29.9836 4.0331 30.3799 4.60431C30.6265 4.98079 30.7357 5.42651 30.7519 5.91983C30.7316 6.00205 30.7235 6.12754 30.6225 6.16216C30.2869 6.22274 29.9796 6.12322 29.644 6.12322C29.6359 6.16216 29.6198 6.12322 29.5955 6.12322C29.5753 6.12754 29.555 6.12754 29.5348 6.12754C29.3044 6.12754 29.0901 5.99339 28.9567 5.79001C28.7868 5.59528 28.892 5.23178 28.6292 5.11494C28.4472 4.94185 28.4634 4.68653 28.4674 4.4442ZM28.3906 9.87936C28.5766 9.81878 28.5847 10.0568 28.6453 10.165C28.7464 10.5241 28.8434 10.8833 28.892 11.2684C28.9162 11.3074 28.9122 11.4199 28.8758 11.4848C28.71 11.6363 28.4796 11.7012 28.2531 11.7012C28.0954 11.7012 27.9378 11.6709 27.8043 11.6146C27.5496 11.3723 27.7882 11.0391 27.8286 10.7795C27.962 10.4419 28.0712 10.0741 28.3906 9.87936ZM26.8623 4.4442C27.0968 4.31005 27.2423 4.65624 27.4081 4.79904C27.772 5.29669 28.1278 5.78568 28.2653 6.39151C28.2774 6.44344 28.2329 6.4694 28.2006 6.48238C27.776 6.38285 27.4121 5.9631 27.1251 5.62557C26.9269 5.28371 26.7167 4.88126 26.8623 4.4442ZM27.2747 7.91041C27.2585 7.92339 27.2423 7.92773 27.2261 7.92773C27.1655 7.92773 27.1332 7.83684 27.1129 7.79357C27.0442 7.50797 27.1655 7.23967 27.3434 7.05792C27.4243 7.02763 27.4728 7.08822 27.497 7.1488C27.5375 7.43873 27.493 7.72434 27.2747 7.91041ZM26.0253 7.64644C25.7827 7.41709 25.7908 7.05792 25.7706 6.70741C25.7787 6.52998 25.7827 6.31795 25.8434 6.16216C25.9161 5.90685 26.1143 5.56498 26.3771 5.5044C26.4903 5.46978 26.5994 5.52171 26.648 5.62989C26.7248 5.81597 26.7167 6.02801 26.6803 6.21409C26.7612 6.31362 26.8259 6.15783 26.9189 6.14485C27.0482 6.11456 27.2059 6.11023 27.2828 6.25303L27.2868 6.38285C27.0765 6.7377 26.9108 7.13149 26.9027 7.57288C26.8946 7.67241 26.842 7.78924 26.7612 7.84117C26.7046 7.85415 26.6237 7.87147 26.5752 7.83252C26.4418 7.71568 26.4215 7.52961 26.4175 7.34353L26.3488 7.30025C26.2194 7.38247 26.2396 7.6551 26.0738 7.6551C26.0617 7.6551 26.0455 7.65077 26.0253 7.64644ZM26.1709 8.46865C26.1547 8.37777 26.1183 8.29555 26.1587 8.22631C26.2194 8.13111 26.3285 8.13543 26.4377 8.13976C26.4579 8.13976 26.4782 8.13976 26.4984 8.13976C26.5267 8.13976 26.5509 8.13976 26.5752 8.13544C26.842 8.1614 27.0442 8.36912 27.303 8.45566C27.4566 8.47297 27.6143 8.46864 27.7235 8.61577C27.7639 8.71098 27.6588 8.73261 27.6143 8.75425C27.1008 8.85378 26.5226 8.87974 26.1709 8.46865ZM24.6102 12.346C24.6708 12.0171 24.9255 11.6666 25.2328 11.606C25.4552 11.593 25.6372 11.6839 25.8151 11.7791C26.0091 11.8786 26.2032 11.9825 26.4499 11.9435C26.5914 11.9738 26.7005 11.9089 26.8056 11.844C26.9269 11.7704 27.0482 11.6969 27.2221 11.7618C27.3636 12.1556 27.1251 12.5017 26.9512 12.8349C27.0119 13.2936 27.1129 13.787 26.931 14.224C26.8784 14.3668 26.7774 14.5053 26.652 14.5702C26.6318 14.5789 26.6075 14.5875 26.5792 14.5875C26.5307 14.5875 26.4862 14.5659 26.4862 14.5183C26.4782 14.0942 26.9229 13.4235 26.3326 13.1898C25.7827 13.0903 25.1924 13.1076 24.7153 12.8133C24.5495 12.7397 24.594 12.4974 24.6102 12.346ZM25.7423 14.0726C25.7261 14.0726 25.714 14.0726 25.6978 14.0726C25.3663 14.0726 25.0873 13.9125 24.8204 13.6918C24.7517 13.6095 24.7234 13.4884 24.7638 13.3759C24.8325 13.2547 25.0064 13.3196 25.1115 13.3239C25.3784 13.4148 25.6776 13.6095 25.811 13.8908C25.8191 13.9687 25.8231 14.0596 25.7423 14.0726ZM24.5414 14.0682C24.8002 14.4447 25.1601 14.5875 25.6978 14.5659C25.9849 14.5832 26.0293 15.0506 26.4458 15.1717C26.9431 15.3448 27.2989 14.6654 27.5375 14.2803C27.7518 14.0336 28.1116 14.0163 28.3906 14.0856C28.6494 14.1721 28.8515 14.4015 29.1346 14.4231C29.1992 14.4317 29.268 14.4317 29.3327 14.4317C29.7006 14.4317 30.0362 14.3149 30.2909 14.0509C30.4971 13.9471 30.7357 13.9557 30.9742 13.9601C31.0834 13.9644 31.1926 13.9644 31.3017 13.9601C31.7222 13.973 32.1387 13.9687 32.5511 13.9687C33.0525 13.9644 33.5538 13.9644 34.0552 13.986C34.2776 14.0812 34.3746 14.5789 34.6536 14.4837C34.8113 14.3885 34.973 14.2716 35.1671 14.3322C35.5391 14.3712 35.5027 14.9813 35.907 14.8904C36.1981 14.6005 36.5984 14.4144 36.9987 14.5356C37.0714 14.5789 37.1644 14.6395 37.2008 14.7217L37.1725 20.0487C37.1806 20.3559 37.0148 20.8795 36.8531 21.1262C36.2183 21.9397 36.2021 23.0042 36.2507 24.0774C36.3154 24.5058 36.7116 25.0511 37.1119 25.2069C37.1119 25.2069 37.1038 28.9241 37.0876 30.7675C37.0634 30.8108 37.0472 30.6637 37.0148 30.6464C36.194 29.928 35.2479 29.3784 34.6819 28.4134C34.1401 27.4484 33.8692 26.345 33.012 25.5314C32.2034 24.6486 31.051 24.0558 30.4688 22.9566C29.9715 22.0566 29.6885 21.0266 28.9283 20.265C27.8569 19.1313 26.4337 18.3047 25.8676 16.8248C25.5199 15.7516 24.8892 14.7563 24.0684 13.9947C24.2261 13.9817 24.4404 13.9601 24.5414 14.0682ZM23.1263 14.0509C23.5791 13.999 23.8258 14.475 24.1614 14.739C25.4916 15.8728 25.4835 17.6902 26.8259 18.8067C27.7033 19.6116 28.7626 20.3386 29.3731 21.4248C29.9028 22.5802 30.3839 23.8394 31.4715 24.64C32.3085 25.2804 33.1616 26.0421 33.6347 26.9941C34.1118 28.2057 34.7547 29.3698 35.8302 30.2396C36.2587 30.5901 36.7197 30.9276 37.1038 31.3907L37.1119 31.7801H37.031C36.1213 30.655 34.787 30.0362 34.0875 28.7553C33.5781 27.8076 33.287 26.7431 32.4581 25.9598C31.6333 25.0468 30.5052 24.4496 29.9149 23.3418C29.4499 22.5109 29.2235 21.5546 28.5321 20.8406C27.5011 19.5813 25.8797 18.7937 25.3258 17.2186C24.9377 15.9593 23.9673 14.8948 22.9282 14.0596C22.9565 14.0423 23.0454 14.0682 23.1263 14.0509ZM10.8915 34.4371C10.9319 34.766 10.7055 35.0646 10.4669 35.229C10.2122 35.3805 9.92107 35.3718 9.62187 35.3589C9.4561 35.3545 9.29034 35.3502 9.12456 35.3675C8.4453 35.3459 7.17167 35.3675 7.17167 35.3675C7.15146 34.8006 6.921 34.0996 6.43176 33.8443C5.99509 33.6149 5.27539 33.4808 4.82255 33.7837C4.76595 33.7924 4.70126 33.801 4.64061 33.801C4.55975 33.801 4.48292 33.7837 4.43036 33.7145C4.1918 33.4808 4.3495 33.3293 4.29693 32.8836C4.3495 32.6326 4.61635 32.5288 4.80234 32.4076C5.7242 31.9619 6.79566 31.8407 7.59622 31.0964C8.45743 30.3997 8.65554 29.941 9.08008 29.3222C9.7553 29.2919 10.4427 29.2919 10.9804 28.9154C11.1098 28.9068 11.227 28.9327 11.32 29.0149C11.4979 29.1577 11.3969 29.4304 11.4818 29.6035C11.5909 29.8242 11.7688 30.0492 11.6799 30.3348C11.4171 30.5901 11.5748 31.0445 11.3726 31.3301C11.3443 31.6849 11.2351 32.1609 11.6152 32.373C12.1206 32.6369 12.9292 32.2821 13.1516 33.0524C13.1597 33.0697 13.1516 33.0913 13.1597 33.113C13.095 33.1562 13.0182 33.1476 12.9373 33.1389C12.8888 33.1346 12.8443 33.1303 12.7999 33.1346C11.8861 33.0827 11.3281 31.8537 10.3456 32.1912C10.1879 32.2951 10.0707 32.4855 10.0909 32.7062C10.0949 33.4115 10.9845 33.6928 10.8915 34.4371ZM6.73905 35.1555C6.70671 35.2593 6.60562 35.3329 6.51262 35.3718C6.46815 35.3848 6.42368 35.3891 6.3792 35.3891C6.27003 35.3891 6.16087 35.3502 6.06788 35.3026C5.9021 35.1728 5.97892 34.9478 5.89805 34.7747C5.84549 34.5626 5.61907 34.4371 5.55438 34.2208C5.64333 34.0866 5.83741 34.0866 5.96679 34.1169C6.28217 34.2078 6.56519 34.515 6.71075 34.8266C6.75522 34.9218 6.78353 35.0559 6.73905 35.1555ZM10.9925 33.0524C11.2109 32.9096 11.5586 33.0827 11.9306 33.2514C12.2136 33.3812 12.5128 33.5154 12.7716 33.5024C12.8929 33.5111 13.3214 33.4635 13.4427 33.7361C13.4589 33.7967 13.4508 33.827 13.4064 33.9005C13.2163 34.1039 12.9171 33.9438 12.715 34.1342C12.4805 34.3463 12.347 34.8093 12.0033 34.8093C11.971 34.8093 11.9387 34.805 11.9023 34.7963C11.8416 34.7876 11.7971 34.766 11.7729 34.7054C11.6799 34.3376 11.7648 33.8832 11.4211 33.6409C11.2149 33.4894 10.944 33.4159 10.9359 33.1692C10.94 33.1346 10.9561 33.0956 10.9925 33.0524ZM12.2662 31.7888C11.9184 31.5162 12.1812 31.0575 12.2621 30.7416C12.5087 30.153 13.5155 30.0622 13.2082 29.2443C13.0829 29.0409 13.0505 28.738 13.1112 28.5C13.4427 28.0759 13.6206 27.4787 13.4266 26.9205C13.1233 26.544 12.6462 26.5959 12.25 26.4834L12.1893 26.4272C12.1166 26.055 12.0842 25.6396 11.7608 25.4232C11.5424 25.2675 11.2351 25.3583 11.0006 25.2501C10.9481 24.7352 11.4737 24.5881 11.7931 24.4063C12.1247 24.3154 12.3794 24.5881 12.6624 24.7006C13.2891 25.0727 13.8026 25.38 14.4293 25.7348C14.5587 25.8387 14.7487 25.9295 14.8134 26.1026C14.8174 26.5397 14.7406 26.9421 14.6961 27.3749C14.68 28.2879 14.6072 29.1707 14.029 29.8501C13.7258 30.2136 13.4751 30.6117 13.5964 31.1094C13.6975 31.4383 13.8875 31.7931 14.219 31.9532C14.8862 32.1263 15.6867 32.1956 16.0142 32.9702C16.0668 33.0783 16.176 33.2038 16.0466 33.1908C15.6382 33.1 15.2582 33.0351 14.5627 33.2601C13.936 32.4595 13.0142 32.334 12.2662 31.7888ZM15.8808 31.9099C15.3956 31.5378 14.7689 31.607 14.2514 31.3431C14.1463 31.2522 14.0856 31.1397 14.0816 31.0012C14.1382 30.1617 15.0479 29.7809 15.3512 29.0323C15.6584 28.1625 15.6504 27.1282 15.6423 26.1329C15.614 25.804 15.4563 25.3497 15.1732 25.1593C14.7487 24.9472 14.2797 24.865 13.8956 24.5794C13.5398 24.376 13.2729 24.2246 12.998 24.0731C12.8484 24.0125 12.909 23.7788 12.9293 23.662C13.1274 22.7143 14.0331 22.6451 14.6961 22.2816C15.3754 21.9873 15.7757 21.2473 15.9334 20.5247C15.9779 20.4468 16.083 20.4122 16.1558 20.4727C16.3539 20.6675 16.4549 20.9314 16.6086 21.1521C16.9321 21.5892 17.3 21.97 17.6437 22.3595C17.8863 22.8961 17.4738 23.3331 17.3687 23.7918C17.4375 24.5058 18.2057 24.4236 18.521 24.9213C18.7111 25.2242 18.7515 25.5833 18.7839 25.9642L18.7798 32.3081L18.7556 34.2381C18.7313 34.2986 18.7475 34.3982 18.6545 34.4068C18.1976 34.3895 17.8418 34.0044 17.5669 33.6063C17.3283 33.2125 17.1989 32.5807 16.6652 32.5115C16.3134 32.5158 16.1638 32.0744 15.8808 31.9099ZM10.4912 14.276C10.3133 14.1721 10.3052 13.9384 10.3214 13.735C10.3537 13.6225 10.4022 13.4927 10.5073 13.4581C10.7621 13.4797 10.944 13.761 11.0734 13.986C11.2836 14.3755 11.409 14.9813 11.1583 15.3881C11.1462 15.3924 11.1341 15.3924 11.1219 15.3924C11.0491 15.3924 11.033 15.3059 11.0006 15.2453C10.8065 14.9251 10.8429 14.488 10.4912 14.276ZM10.4629 15.7343C10.4507 15.7343 10.4386 15.7386 10.4265 15.7386C10.3214 15.7386 10.2203 15.678 10.1677 15.5698C10.1515 15.4314 9.99385 15.2669 10.1152 15.1458C10.289 15.1674 10.4467 15.3189 10.5114 15.4963C10.5235 15.5698 10.5397 15.691 10.4629 15.7343ZM11.2877 12.532C11.316 12.4844 11.3605 12.4931 11.4049 12.5017C11.4292 12.5061 11.4494 12.5104 11.4696 12.5061C11.9144 12.6272 12.2257 13.1638 12.6826 13.2374C12.9737 13.298 13.3417 13.2158 13.4953 13.5619C13.5317 13.6398 13.5317 13.748 13.5034 13.8086C13.4023 13.9341 13.2568 13.9687 13.1031 13.9687C12.9656 13.9687 12.8241 13.9384 12.7069 13.9125C12.0842 13.7134 11.7648 12.9864 11.2877 12.532ZM11.0977 16.6474C11.1381 16.656 11.1745 16.6647 11.2149 16.6647C11.6395 16.7858 12.0195 17.0108 12.4077 17.1926C12.4562 17.2229 12.4724 17.2921 12.4481 17.3441C12.064 17.5691 11.7365 17.9326 11.4616 18.3177C11.4333 18.3523 11.4009 18.3696 11.3686 18.3696C11.3483 18.3696 11.3281 18.361 11.312 18.348L11.227 18.2182C11.1057 17.7076 10.8672 17.2315 10.8955 16.6647C10.9562 16.6127 11.0249 16.63 11.0977 16.6474ZM12.1327 16.6863C11.9427 16.6084 11.7446 16.5651 11.5869 16.4007C11.5707 16.2882 11.7001 16.2795 11.7527 16.2189C11.9508 16.1151 12.2257 16.0069 12.436 16.1411C12.5937 16.2536 12.622 16.4656 12.6664 16.6603C12.6179 16.7252 12.5532 16.7469 12.4845 16.7469C12.3672 16.7469 12.2338 16.6863 12.1327 16.6863ZM12.723 17.3051C12.9292 17.2229 13.1072 17.3354 13.2204 17.5085C13.2568 17.621 13.1597 17.7292 13.0789 17.7898C13.0465 17.8071 13.0101 17.8157 12.9737 17.8157C12.9009 17.8157 12.8282 17.7854 12.7756 17.7552C12.6907 17.7119 12.622 17.6253 12.6018 17.5215C12.5896 17.4306 12.6543 17.3397 12.723 17.3051ZM13.8269 18.2831C14.029 18.374 14.3323 18.4345 14.3444 18.7418C14.3201 18.7678 14.2878 18.7807 14.2554 18.7807C14.2069 18.7807 14.1544 18.7591 14.1139 18.7418C13.8188 18.6293 13.4751 18.4908 13.3012 18.1879C13.3134 18.1187 13.2729 18.0364 13.3417 18.0061C13.4953 18.1187 13.657 18.2009 13.8269 18.2831ZM13.4508 16.2839C13.6328 16.1108 13.8107 16.3141 13.9805 16.3964C14.1826 16.5781 14.3767 16.8204 14.4778 17.0584C14.494 17.1363 14.5223 17.2618 14.4293 17.2748C14.0573 17.2532 13.7217 16.9719 13.4993 16.6474C13.4508 16.5392 13.3861 16.4137 13.4508 16.2839ZM13.9643 19.5683C13.9441 19.577 13.9239 19.5813 13.9037 19.5813C13.8471 19.5813 13.7945 19.551 13.746 19.5337C13.6853 19.4731 13.6368 19.4125 13.6692 19.3217C13.6894 19.2611 13.6894 19.1875 13.7581 19.1529C13.8632 19.1832 14.0048 19.1918 14.0775 19.313C14.1018 19.4169 14.0573 19.5207 13.9643 19.5683ZM14.8296 20.4295C14.8498 20.3299 14.8134 20.1871 14.8902 20.1482C14.9913 20.1482 15.0964 20.2001 15.1409 20.3083C15.1207 20.4295 14.9953 20.4338 14.9145 20.4641C14.9023 20.4554 14.8902 20.4554 14.8741 20.4554C14.87 20.4554 14.866 20.4554 14.8619 20.4554C14.8457 20.4554 14.8336 20.4511 14.8296 20.4295ZM18.7475 24.3198C18.614 24.2202 18.6424 24.0298 18.4887 23.9866C18.3148 23.9692 18.1086 23.926 18.0399 23.7226C17.9631 23.2076 18.5211 22.9177 18.4078 22.3811C18.3553 21.481 17.5951 21.0007 17.0938 20.3343C16.7339 19.7025 16.1315 19.4688 15.4846 19.5121C14.7487 19.4298 14.8174 18.5081 14.2837 18.1489C14.1503 18.0061 13.8794 17.9153 13.9158 17.6513C14.1665 17.4176 14.4536 17.6816 14.7204 17.6989C15.1045 17.647 14.7649 17.2315 14.8215 16.9806C14.8417 16.8767 14.8862 16.7555 14.9873 16.7079C15.1935 16.5868 15.4199 16.6863 15.5937 16.7988C16.269 17.145 16.9038 17.6123 17.5022 18.1792C17.9914 18.5297 18.61 18.6985 18.9132 19.3173C19.2084 20.0789 19.3297 20.9358 19.7502 21.6238C20.0009 22.0998 20.013 22.7489 20.0211 23.2985C20.0251 23.7139 20.0534 24.1596 19.7381 24.4366C19.5319 24.5405 19.3216 24.4279 19.1639 24.3068C19.0224 24.3544 18.8647 24.3933 18.7475 24.3198ZM16.924 16.8507C16.9361 16.5392 17.0978 16.4483 17.4092 16.2016C17.8014 15.916 18.2057 15.6434 18.6181 15.4227C18.7232 15.4227 18.7394 15.5439 18.7717 15.6218C18.8041 16.6647 18.8081 17.4306 18.7556 18.4346C18.7434 18.4432 18.7273 18.4475 18.7111 18.4475C18.6828 18.4475 18.6585 18.4346 18.6423 18.4129C18.0803 17.8547 17.1908 17.7032 16.924 16.8507ZM19.6815 26.4705L19.6855 25.1333C19.9847 24.9992 20.482 24.6962 20.5831 24.3414C20.7448 23.3072 20.6761 22.0349 20.0898 21.2084C19.9766 21.0353 19.7987 20.5074 19.7664 20.3126C19.7664 19.4082 19.6976 18.7807 19.734 17.9153C20.668 18.6596 21.2138 19.5726 21.6141 20.6242C22.4753 22.6407 24.9094 23.385 25.621 25.4838C25.9687 26.5224 26.6318 27.4441 27.5496 28.1451C28.3582 28.7726 29.1346 29.5256 29.5834 30.43C30.0079 31.5767 30.6144 32.6413 31.609 33.4635C32.6077 34.2121 33.7641 35.3112 34.1684 36.5186C32.4783 36.6917 30.6144 36.7479 29.1426 37.397C28.8717 37.5528 28.6049 37.7432 28.3785 38.0115L28.3138 38.0072C27.5173 37.0984 26.3852 37.0119 25.3056 36.8734C23.6034 36.6917 21.7637 36.921 20.1788 36.3888C19.6006 36.1854 20.0939 35.4238 19.6572 35.0906L19.6815 26.4705ZM31.6858 33.0567C30.7195 32.2561 30.2869 31.1786 29.8179 30.1054C29.2559 29.0625 28.2976 28.2014 27.3798 27.5177C26.1426 26.583 26.0698 24.9992 25.0792 23.887C24.1048 22.6191 22.4875 21.9008 21.9012 20.3646C21.4969 19.1572 20.7125 18.3177 19.734 17.4219C19.73 17.2878 19.7219 17.1493 19.7664 17.0238C20.6518 17.7032 21.5575 18.6639 21.9416 19.7328C22.3864 21.1435 23.5994 22.208 24.7436 23.1211C25.6331 23.9043 26.1264 24.9645 26.5631 26.0118C27.2262 27.5436 28.9405 28.1322 29.8381 29.5645C30.4769 30.6117 30.7559 31.8364 31.7303 32.7105C32.5471 33.5414 33.6064 34.1732 34.2209 35.1685C34.4716 35.6228 34.6981 36.0729 34.8638 36.5662C34.7991 36.5922 34.7466 36.5965 34.69 36.5965C34.6495 36.5965 34.6051 36.5922 34.5485 36.5878C34.0875 34.9045 32.8341 34.065 31.6858 33.0567ZM34.3665 34.7617C33.4123 33.325 31.6818 32.6889 30.9742 31.0791C30.5376 29.9323 29.9432 28.8548 28.9243 28.024C27.8367 27.2537 26.8501 26.1762 26.4579 24.8996C25.9808 23.7053 24.9377 22.71 23.939 21.9397C22.9363 21.1391 22.4389 20.0227 21.9578 18.9149C21.4605 17.9888 20.6074 17.1363 19.7704 16.5089C19.7178 16.392 19.7502 16.2795 19.7542 16.167C20.8378 16.9503 21.9699 17.9758 22.4228 19.2827C22.8635 20.6415 24.032 21.7407 25.152 22.5931C26.2032 23.4543 26.6197 24.7222 27.21 25.8516C28.0793 27.3619 29.9473 28.0283 30.6427 29.6684C31.0511 30.7935 31.6737 31.858 32.6158 32.6802C33.6306 33.4505 34.7385 34.3982 35.163 35.6358C35.2682 35.9214 35.4056 36.1724 35.5188 36.458C35.438 36.4969 35.345 36.5013 35.252 36.5013C34.969 35.9301 34.7425 35.2983 34.3665 34.7617ZM34.7951 34.2337C33.9096 32.9961 32.4541 32.3773 31.702 31.0877C31.1643 30.1877 30.9621 29.1577 30.2141 28.3702C29.3489 27.2927 28.051 26.7517 27.4283 25.5141C26.9148 24.4929 26.5631 23.3937 25.6533 22.5715C24.8245 21.7796 23.846 21.1305 23.2476 20.1352C22.6856 19.1529 22.4147 18.0278 21.5494 17.2142C21.0036 16.5565 20.3163 16.2016 19.7381 15.6001L19.7623 15.2583C20.0373 15.4617 20.2556 15.7256 20.5265 15.9463C21.3634 16.5608 22.1842 17.3484 22.6532 18.2788C23.1142 19.4688 23.749 20.6242 24.8245 21.4767C25.7665 22.1777 26.7288 23.1384 27.1493 24.2462C27.5617 25.6353 28.7424 26.7604 29.8826 27.6129C30.7559 28.3615 31.233 29.3698 31.6414 30.3824C32.1791 31.4945 33.1657 32.3427 34.132 33.1C35.0498 33.8573 35.5188 34.8569 35.9232 35.8781C36 36.0296 36.0849 36.1724 36.1496 36.3325C36.0889 36.3758 36.0081 36.4017 35.9312 36.4017C35.9191 36.4017 35.907 36.4017 35.8949 36.4017C35.5027 35.6921 35.3005 34.8915 34.7951 34.2337ZM34.787 33.2298C33.9056 32.2994 32.8301 31.7109 32.1629 30.5814C31.605 29.5991 31.3543 28.461 30.4688 27.6691C29.6359 26.795 28.5483 26.2281 27.9499 25.129C27.4566 24.1856 27.1615 23.1384 26.3528 22.3465C25.4714 21.4031 24.408 20.8362 23.749 19.7284C23.195 18.8067 22.9484 17.6902 22.164 16.9113C21.4241 16.0329 20.385 15.5309 19.7462 14.5919C19.7906 14.501 19.8674 14.4707 19.9483 14.4534C20.8661 15.6304 22.1923 16.1757 22.9403 17.4695C23.4376 18.3826 23.7287 19.4255 24.4889 20.2174C25.5644 21.3728 26.9876 22.1431 27.5739 23.6447C27.9499 24.7525 28.6494 25.7867 29.6157 26.5267C30.4405 27.1672 31.3058 27.9677 31.7101 28.95C32.0861 30.0752 32.7654 31.1224 33.7115 31.9143C34.6172 32.6067 35.5835 33.4678 36.0283 34.5237C36.2426 35.0127 36.4245 35.519 36.7116 35.956C36.6631 36.0253 36.5903 36.1334 36.4973 36.1334C36.4892 36.1334 36.4811 36.1334 36.473 36.1291C35.911 35.1641 35.6563 34.039 34.787 33.2298ZM36.5377 34.8526C36.1051 33.4202 34.8234 32.3037 33.6751 31.3734C32.7735 30.5901 32.3206 29.5688 31.9001 28.5216C31.233 27.1282 29.7774 26.3623 28.799 25.2155C27.958 24.1207 27.8165 22.6883 26.7005 21.745C25.8474 20.9098 24.6466 20.1309 24.0724 19.0058C23.656 18.1836 23.4053 17.2705 22.7543 16.5824C22.0993 15.7213 21.1168 15.2842 20.4497 14.4058C21.0319 14.4404 21.4039 15.0938 21.9052 15.3708C22.633 15.9636 23.3689 16.6993 23.7368 17.5647C24.1331 18.6812 24.7881 19.7328 25.7463 20.516C26.6439 21.2257 27.5577 22.0263 28.0227 23.0821C28.4512 24.3803 29.2922 25.5487 30.4365 26.3493C31.144 26.9681 31.8921 27.6994 32.2357 28.5822C32.6967 30.0925 33.8894 31.2825 35.1428 32.2172C36.1011 33.0177 36.5701 34.1169 37.027 35.1901C37.0108 35.3199 37.0108 35.4541 36.9461 35.5666C36.748 35.3805 36.6631 35.0949 36.5377 34.8526ZM36.7722 33.788C36.2466 32.6499 35.2156 31.7498 34.2331 30.9882C33.1455 30.1141 32.7856 28.8375 32.1791 27.6994C31.3745 26.332 29.83 25.7088 28.989 24.3414C28.4472 23.3158 28.152 22.1691 27.2221 21.3382C26.3447 20.4511 25.2652 19.7674 24.6506 18.6812C24.1452 17.7595 23.8986 16.7123 23.0697 15.9333C22.5764 15.4141 22.0872 15.0506 21.5818 14.6048C21.602 14.514 21.7031 14.3841 21.7961 14.4447C22.7301 15.1674 23.7571 16.0285 24.2261 17.1234C24.6425 18.3783 25.4633 19.5164 26.559 20.3386C27.2989 20.9444 28.0631 21.6671 28.4755 22.5369C28.6534 22.9826 28.8556 23.4413 29.0699 23.887C29.9311 25.5184 31.702 26.107 32.5268 27.7211C33.0242 28.989 33.667 30.2093 34.8072 31.1094C35.7372 31.8191 36.6873 32.7321 37.0876 33.8486C37.0836 34.0217 37.0876 34.2121 37.0634 34.3765C36.9218 34.2208 36.8733 33.9828 36.7722 33.788ZM37.0755 32.9312L37.027 32.9139C36.2062 31.395 34.4555 30.7545 33.6185 29.24C33.1091 28.2879 32.8179 27.2407 32.0174 26.4315C31.1602 25.4449 29.9553 24.878 29.3691 23.6923C28.8717 22.6061 28.4553 21.4767 27.4809 20.6675C26.4862 19.789 25.4148 19.0014 24.8932 17.7681C24.505 16.6603 23.8379 15.6607 22.8837 14.8558L22.346 14.4101C22.346 14.3322 22.4713 14.2284 22.5481 14.25C23.3851 14.8731 24.2059 15.6694 24.6668 16.6127C25.1115 17.885 25.9404 19.088 27.0604 19.9015L27.8892 20.6545C27.9014 20.6155 27.9095 20.5939 27.9378 20.5636L27.9054 20.6545C28.6858 21.3988 29.0537 22.3378 29.4621 23.2596C30.1494 24.8996 32.0012 25.5444 32.8826 27.072C33.4406 28.0802 33.7519 29.2356 34.6495 30.0622C35.438 30.8844 36.4771 31.4902 37.0836 32.4768C37.0755 32.611 37.1159 32.8014 37.0755 32.9312ZM13.2082 12.6921C13.8066 12.8825 14.498 12.8003 15.1207 12.9345C15.153 12.9431 15.1813 12.9302 15.2137 12.9172C15.2622 12.8955 15.3067 12.8739 15.3552 12.9431C15.2016 13.1465 14.9468 13.1682 14.7164 13.2287C14.6719 13.272 14.6395 13.3196 14.6638 13.3759C14.7527 13.4667 14.8619 13.4494 14.9751 13.4278C15.0317 13.4191 15.0883 13.4105 15.1409 13.4105C15.4401 13.3283 15.8323 13.2893 16.0183 13.6225C16.1315 13.787 16.1396 14.0293 16.1679 14.2413C16.18 14.3322 16.2204 14.4534 16.3175 14.3798C17.1827 13.787 17.8863 12.77 18.8081 12.307C19.7866 11.7055 21.319 11.6319 22.2247 12.3936C22.4632 12.6056 22.7058 12.8393 22.8554 13.1162C22.8837 13.2374 22.8392 13.2201 22.7381 13.2807C22.4349 13.285 22.3581 13.6442 22.2691 13.8822C22.1397 14.0033 22.0185 13.9428 21.8972 13.8822C21.7678 13.8173 21.6424 13.7567 21.505 13.9038C21.3473 14.0163 21.3028 14.4015 21.044 14.2803C20.6154 13.973 19.9726 13.8346 19.4955 14.1288C19.2327 14.2803 19.0588 14.6697 18.7596 14.739C18.3553 14.7 18.0682 14.9813 17.8014 15.2366C17.7205 15.2886 17.6032 15.3189 17.5224 15.2756C17.3445 15.1674 17.2393 14.938 17.0614 14.8082C16.9199 14.726 16.7339 14.7173 16.5601 14.7649C16.4266 14.8428 16.2245 15.0506 16.1517 14.964C15.8808 14.6092 15.5331 14.3149 15.1166 14.3062C15.0115 14.3062 14.9468 14.4101 14.9145 14.5096C14.8336 14.8212 15.1894 15.1111 14.9104 15.3318C14.6355 15.44 14.2959 15.4011 14.0331 15.5222C13.6004 15.6261 13.2082 15.4833 12.9373 15.1068C12.6543 14.9727 12.3308 15.1284 12.0357 15.1587C11.8174 14.9251 11.7931 14.5226 11.7891 14.1764C11.8376 14.1158 11.9063 14.1245 11.9791 14.1332C12.0155 14.1375 12.0559 14.1418 12.0923 14.1375C12.6422 14.211 13.1072 14.5443 13.5923 14.8169C13.6772 14.8472 13.8026 14.8472 13.8794 14.7996C13.9967 14.7173 14.0694 14.5789 14.0897 14.4534C14.1422 14.3019 13.9158 14.1505 14.1099 14.0812C14.2352 14.0423 14.3646 13.9687 14.4252 13.8259C14.4778 13.7004 14.4657 13.5403 14.4212 13.4191C14.2716 13.1855 14.0128 13.0037 13.746 13.021C13.3012 12.9518 12.7716 12.7571 12.626 12.2421C12.6058 11.9954 12.5815 11.6795 12.3106 11.593C12.1206 11.5194 11.9953 11.6233 11.8699 11.7271C11.7729 11.805 11.6799 11.8873 11.5545 11.8873C11.5101 11.8873 11.4656 11.8786 11.413 11.857C11.2715 11.8353 11.1421 11.7531 11.0694 11.619C10.9845 11.4588 10.9845 11.2252 11.0855 11.0694C11.0815 10.9352 10.9804 10.7968 11.0694 10.6713C11.1138 10.6323 11.126 10.5934 11.1826 10.5674C11.5101 10.628 11.5829 11.0261 11.8416 11.1992C12.1085 11.5324 12.622 11.2079 12.812 11.6363C12.9171 12.0127 12.7837 12.532 13.2082 12.6921ZM11.874 10.4376C12.0438 10.1996 12.3632 10.165 12.6341 10.2126C12.7513 10.2558 12.8807 10.3164 12.9575 10.4506C13.0061 10.6107 13.0627 10.8357 12.9293 10.9785C12.8646 11.0131 12.808 11.0304 12.7514 11.0304C12.4643 11.0304 12.2298 10.6583 11.9306 10.6453C11.8578 10.5977 11.8659 10.5068 11.874 10.4376ZM8.34826 5.98041C8.40082 5.88954 8.50594 5.91118 8.59085 5.91983C8.95474 6.12754 8.59894 7.06658 9.27011 6.81992C9.51271 6.74202 9.65423 6.44777 9.70274 6.22274C9.77148 5.91983 9.70678 5.61258 9.49653 5.4092C9.17308 5.10628 8.76067 5.04137 8.37656 4.92021C8.37252 4.85529 8.4453 4.82933 8.48977 4.82933C8.59894 4.78606 8.70811 4.8077 8.81727 4.82501C8.87792 4.83799 8.93858 4.84664 8.99922 4.84664C9.07605 4.84664 9.15286 4.82501 9.2216 4.7601C9.43185 4.53074 9.50463 4.34467 9.54102 4.05041C9.5491 3.95953 9.65423 3.97684 9.65423 3.97684C10.3052 3.9855 10.9683 4.0331 11.6192 4.05473C11.8174 4.09801 12.0519 4.10666 12.1408 4.3187C12.161 4.38361 12.1246 4.43987 12.1246 4.43987C11.8861 4.59998 11.5303 4.71682 11.4494 5.06734C11.4333 5.33564 11.6637 5.50007 11.8497 5.59095C12.3349 5.75971 12.905 5.83328 13.3983 5.61259C13.8066 5.33563 13.4427 4.57402 14.0452 4.48314C14.3686 4.43987 14.7042 4.50478 14.9145 4.81202C15.1935 5.12359 14.959 5.68615 15.3471 5.89386C15.4765 5.92415 15.6059 6.00205 15.6584 6.12754C15.8202 6.75934 15.6908 7.39979 15.3228 7.89311C15.0803 8.20035 14.7285 7.97533 14.4293 7.95369C14.2999 7.95369 14.1463 7.92772 13.9926 7.89743C13.6126 7.82819 13.2001 7.75896 12.9859 8.12245C12.8241 8.50326 12.8443 9.21727 13.0667 9.55914C13.2851 9.84474 13.7339 9.66732 14.025 9.65867C14.3323 9.63703 14.6719 9.28219 14.9266 9.64569C15.1773 10.1477 14.9913 10.4982 14.8094 10.9569C14.7649 11.0434 14.7366 11.0824 14.6598 11.0651C14.5102 11.0175 14.3969 10.84 14.2554 10.7665C14.0169 10.5891 13.7581 10.5588 13.4872 10.4895C13.2163 10.2602 13.0708 9.86206 12.7271 9.75387C12.343 9.74954 11.975 9.50721 11.7648 9.14371C11.5424 8.68068 11.6961 8.10947 11.9791 7.72434C12.1125 7.52961 12.3308 7.4171 12.4036 7.20938C12.4158 7.14014 12.3794 7.10552 12.3389 7.0709C12.1085 7.10119 11.9912 7.3695 11.8012 7.49499C11.3362 7.87147 10.6084 7.6075 10.1596 7.98398C9.76744 8.22631 9.81191 8.72396 9.46015 8.98793C9.37928 9.0312 9.26203 9.03553 9.18116 8.97495L9.09626 8.85378C9.03157 8.27391 8.9507 7.68107 8.83748 7.12284C8.73236 6.70741 8.14609 6.44344 8.34826 5.98041ZM7.9318 10.2948C7.68112 10.1304 7.56792 9.81012 7.39406 9.57212C7.39406 9.48124 7.35361 9.34277 7.43448 9.29517C7.77411 9.38171 7.96011 9.74954 8.00863 10.0871C8.02076 10.165 8.00054 10.2688 7.9318 10.2948ZM7.96011 7.88012C7.86307 8.00129 7.74178 8.09216 7.59622 8.09216C7.57196 8.09216 7.54769 8.08784 7.52343 8.08351C7.39405 8.02725 7.36575 7.8931 7.33745 7.76328C7.36575 7.54259 7.32128 7.26563 7.5477 7.14447C7.73369 7.11418 7.9318 7.18775 8.03288 7.38681C8.11375 7.54692 8.04906 7.74165 7.96011 7.88012ZM8.36039 13.2677C8.21079 13.0643 8.31995 12.822 8.324 12.5796L8.40082 12.1642C8.27952 11.9089 8.10162 11.554 8.28761 11.2641C8.41699 11.1473 8.55446 11.1949 8.68789 11.2382C8.76067 11.2598 8.8294 11.2858 8.8941 11.2858C8.91431 11.2858 8.93049 11.2858 8.94666 11.2814C9.12456 10.9569 8.90218 10.6323 8.81727 10.3337C8.75258 10.1736 8.61915 10.0178 8.63937 9.83176C8.72832 9.67598 8.84962 9.85773 8.87792 9.9486L9.24181 10.7059C9.62592 10.9915 10.2243 10.9309 10.3941 11.4978C10.4063 11.7747 10.4386 12.1253 10.3699 12.4065C10.3335 12.4412 10.2769 12.4412 10.2445 12.4109C9.89277 12.0474 9.67444 11.5714 9.2499 11.2771C9.10435 11.2338 9.00731 11.3463 8.93048 11.4675C8.7728 11.9349 9.04369 12.3892 9.00326 12.8479C8.86579 13.0859 8.63128 13.3023 8.36039 13.2677ZM10.006 14.4361C9.90491 14.4534 9.79574 14.475 9.69061 14.475C9.55314 14.475 9.41971 14.4404 9.33076 14.3149C9.33076 14.012 9.58145 13.8043 9.79574 13.6571C9.84022 13.6269 9.90086 13.6831 9.90086 13.7264C9.90895 13.973 10.0019 14.2024 10.006 14.4361ZM8.80919 14.7476C8.81728 14.6871 8.76876 14.5789 8.83345 14.5183C8.88601 14.5875 8.95878 14.5183 9.00326 14.6005C9.03156 14.7736 8.85367 14.6611 8.80919 14.7476ZM4.5274 26.9205C4.67296 26.0637 5.14602 25.2848 5.13389 24.3717C5.3684 23.7832 5.93849 23.4586 6.41559 23.1817C7.2768 22.6278 8.33209 22.485 8.84558 21.4161C9.1933 20.4122 9.39141 19.0534 10.5114 18.6466C10.9481 18.5081 11.3928 18.6163 11.6961 18.9409C12.1327 19.1659 12.9212 18.7894 13.0263 19.5337C13.1759 20.2088 12.8484 20.7324 12.8282 21.3598C12.8039 21.6325 12.8484 21.957 12.5856 22.1215C11.5546 22.5152 10.4224 22.7316 9.634 23.6836C9.3995 23.9865 9.18925 24.3241 9.08008 24.6789C9.05986 24.7611 9.10839 24.8607 9.18926 24.865C9.5491 24.8823 9.89682 24.7741 10.1677 24.5578C10.2364 24.5405 10.3052 24.5707 10.3335 24.6486C10.3254 24.7828 10.3658 24.9516 10.2405 25.0468C9.76743 25.4708 9.09222 25.4016 8.63129 25.8516C8.33613 26.1026 8.1744 26.4488 8.19866 26.834C8.60703 27.1975 8.5019 27.8466 8.46147 28.3529C8.41699 28.6168 8.18653 28.7986 7.96819 28.8721C7.87924 28.8895 7.83881 28.7726 7.7539 28.751C7.16359 28.7034 6.7714 29.1794 6.34281 29.5472C6.29834 29.5645 6.25385 29.5732 6.20938 29.5732C6.17299 29.5732 6.13256 29.5688 6.09617 29.5559C5.78888 29.3352 6.0153 28.8375 5.69184 28.6298C5.52203 28.4351 5.3037 28.4005 5.07728 28.3658C4.96811 28.223 5.01663 27.9894 4.89937 27.8595C4.6123 27.6388 4.43845 27.3056 4.5274 26.9205ZM3.84409 27.9331C3.71067 27.773 3.54489 27.5956 3.35082 27.5004C2.81711 27.1975 1.79821 27.6302 1.70926 26.6695C1.76991 26.0637 1.58797 25.5314 1.43028 25.0294C1.28877 24.0039 1.46667 23.0389 1.99633 22.2599C3.16078 20.4641 4.89533 18.9582 5.72015 16.9935C5.93444 16.4137 5.98296 15.5309 5.57863 15.0159C5.37243 14.7823 5.09345 14.7476 4.81447 14.7823C4.44653 14.8342 4.26458 15.3015 4.11498 15.5958C4.04625 15.5958 4.00582 15.5309 3.98156 15.4617C3.97752 15.4141 3.95326 15.3621 3.90879 15.3535C3.76323 15.5093 3.82388 15.8078 3.80771 16.0329C3.7794 16.5824 4.26863 17.0282 3.97751 17.5518C3.86026 17.5345 3.69853 17.4912 3.59745 17.5821C3.27399 17.7508 3.39529 18.1749 3.16887 18.3913C2.99501 18.361 2.9384 18.1316 2.88584 17.9759C2.73624 17.409 3.38721 17.0714 3.14866 16.5348C3.13248 16.167 2.98288 15.8468 2.76454 15.5698C2.68368 15.3448 2.75646 15.0938 2.87775 14.9121C3.16078 14.5269 3.62171 14.8299 3.94921 14.5572C4.33736 14.3149 4.49505 13.8346 5.02876 14.1461C5.38456 14.3409 5.83336 14.5962 5.98701 14.9683C6.86439 17.4436 4.63656 19.088 3.46806 20.9358C2.74028 22.0306 1.94376 23.1254 1.99228 24.5491C2.00846 25.2718 2.1055 26.0594 2.72007 26.4055C3.11227 26.6003 3.68235 26.3839 3.99773 26.1719C4.0422 26.1719 4.10285 26.1719 4.13924 26.2151C4.24437 26.5094 4.03008 26.7344 3.96943 26.9854C3.90474 27.2927 3.86835 27.6086 3.84409 27.9331ZM2.77667 31.4945C3.20121 31.0964 3.90474 31.3301 4.3495 30.9666C4.73361 30.6161 4.91555 30.1833 5.11771 29.7593C5.31987 29.6208 5.63524 29.6467 5.78484 29.8934C5.81315 30.0449 5.85357 30.205 5.99509 30.2699C6.1649 30.3608 6.39133 30.3175 6.50454 30.5209C6.54093 30.8627 6.25387 31.1483 5.82933 31.4123C5.28753 31.858 4.64465 32.0398 4.05029 32.347C3.60958 32.6153 3.73088 33.2341 3.80771 33.6798C3.90879 34.316 4.54357 34.2251 4.96811 34.3809C5.18241 34.5064 5.25923 34.7747 5.2471 35.043C5.25923 35.1338 5.25922 35.2334 5.23092 35.242C4.98024 35.3372 4.82256 35.2161 4.66487 35.0949C4.51527 34.9824 4.36567 34.8742 4.13521 34.9304C3.96135 34.9002 3.78749 34.9434 3.61767 34.9824C3.48829 35.0127 3.36294 35.0473 3.24164 35.0473C3.10013 35.0473 2.97074 35.004 2.84945 34.8699C2.41278 34.4241 2.59473 33.6712 2.76454 33.1649C2.89797 32.6672 2.45725 32.4076 2.50982 31.9576C2.50577 31.7758 2.63112 31.607 2.77667 31.4945ZM13.095 37.198L12.9778 37.2283C11.5384 37.2283 10.1677 37.211 8.70811 37.2196L8.62724 37.2283L7.73369 37.211L1.24025 37.1807C1.11086 37.1634 0.981476 37.0855 0.908697 36.9643C0.81166 36.7869 0.799525 36.5013 0.916779 36.3195C0.993601 36.1897 1.11086 36.1464 1.2362 36.1248C2.02463 36.1248 6.25386 36.1291 6.25386 36.1291L13.4104 36.1681C13.4549 36.1897 13.5074 36.2157 13.5196 36.2676C13.5317 36.6484 13.3861 36.9903 13.095 37.198ZM14.0775 37.7822C14.0977 38.0332 14.4253 38.0332 14.4576 38.3015C14.5223 38.7818 14.2595 39.1713 13.9198 39.4742C13.7945 39.5737 13.6732 39.6602 13.5357 39.7295C13.4832 39.6473 13.5398 39.5434 13.5519 39.4655C13.6287 39.0544 13.9805 38.5222 13.5883 38.1543C13.4427 37.9942 13.3538 37.7995 13.4185 37.5745C13.4751 37.1937 13.8632 37.1287 14.0169 36.8345C14.0897 36.2546 14.6395 35.8305 15.1005 35.6271C15.4239 35.6055 15.7595 35.5493 16.0466 35.4584C16.083 35.4541 16.1517 35.4281 16.176 35.4238C16.3903 35.4108 16.8876 35.1511 17.2676 35.242C17.5264 35.3026 17.8863 35.5579 18.0844 35.2637C18.0925 35.1728 18.0318 35.0906 17.9469 35.0603C17.6315 34.9997 17.3768 34.7833 17.0331 34.8179C16.5601 34.9175 16.0506 34.9391 15.5493 34.9694C15.4603 34.9607 15.3956 35.0256 15.335 35.0906C15.2703 35.1598 15.2056 35.2247 15.1045 35.2117C14.8821 35.229 14.6193 35.2334 14.5263 34.978C14.4535 34.8439 14.4899 34.6319 14.304 34.5626C14.0209 34.4717 13.7864 34.6968 13.556 34.8439C13.2931 34.9867 13.095 35.3329 12.7999 35.3502C12.7069 35.268 12.7594 35.1252 12.7635 35.0256C13.0222 34.4717 13.5721 34.2424 14.0533 34.0433C14.5587 33.8486 15.0722 33.6279 15.6342 33.6798L15.7029 33.7101C15.8485 33.8313 15.808 34.052 15.8363 34.2078L15.9212 34.2684C16.9725 34.2078 18.0035 34.4068 18.6423 35.3545C18.707 35.4367 18.7192 35.5752 18.6787 35.6964C18.4564 35.969 18.0237 35.8392 17.7003 35.9474C17.5062 35.9344 17.3647 36.0382 17.2191 36.1464C17.0695 36.2546 16.9199 36.3628 16.7178 36.3412C16.2649 36.3109 15.8485 36.0772 15.3875 36.1767C15.3309 36.2243 15.2743 36.3022 15.3148 36.3888C15.4239 36.5445 15.6787 36.4883 15.7433 36.7176C15.7959 36.8561 15.7797 37.0249 15.6423 37.0984C15.1166 37.2845 14.122 36.9124 14.0775 37.7822ZM41.5635 39.9329C41.4462 40.0843 41.329 40.3396 41.1025 40.2791C40.9287 40.1968 40.8033 39.9978 40.8074 39.7987C40.7589 39.4222 40.957 39.128 41.2036 38.8943C41.2481 38.7342 41.24 38.5784 41.1915 38.4356C40.9934 38.1284 40.6537 38.0981 40.3626 38.0288C39.9543 37.9769 39.5621 37.8471 39.1739 37.7259C39.0769 37.7216 38.996 37.7778 38.9111 37.8341C38.7939 37.912 38.6766 37.9942 38.5189 37.899C38.2035 37.7432 37.8801 37.5658 37.4879 37.5961C37.7992 37.8298 38.2723 38.1413 38.3127 38.5871C38.4866 38.838 38.9758 38.7082 38.8707 39.1929C38.8383 39.3314 38.7656 39.4698 38.6402 39.5521C38.3774 39.6732 38.062 39.6213 37.8275 39.5045C37.6213 39.3573 37.5324 39.1063 37.3666 38.9289C37.1563 38.6996 36.9299 38.4746 36.6671 38.362C36.7075 38.7558 36.752 39.1929 36.6833 39.5824L36.6712 39.6689C36.186 39.2405 35.6725 38.7126 35.1064 38.5222C35.0256 38.5005 34.9487 38.5611 34.9487 38.6433C34.9487 39.3097 34.8315 39.9112 34.5242 40.4392C34.4352 40.569 34.318 40.7118 34.1522 40.6815C33.6185 40.0194 34.2573 38.6606 33.2789 38.3101C32.3975 38.0245 31.4877 38.1543 30.764 38.7861C30.2464 39.2448 29.9634 39.9242 30.1049 40.5733C30.1858 40.8849 30.4527 41.4345 30.7559 41.5124C31.0228 41.5903 31.3462 41.6162 31.6009 41.4128C31.7505 41.283 31.7829 41.2094 31.8718 41.019C32.0538 41.0969 32.2034 41.3046 32.2802 41.5253C32.3813 41.984 32.2438 42.248 31.9123 42.5985C31.5362 42.9058 31.1723 42.9361 30.7397 42.7933C30.4688 42.7024 30.1494 42.5769 29.9351 42.3475C29.8583 42.4254 29.8825 42.6634 29.8502 42.7716C29.6966 43.6544 29.4418 44.5069 28.7666 45.1603C28.5847 45.3118 28.3825 45.4805 28.1642 45.3377C27.2787 44.7795 27.0483 43.6977 26.8542 42.7024C26.8218 42.499 26.7854 42.1918 26.7652 42.1268C26.3083 42.6851 25.7018 43.0659 25.0751 42.9014C24.5657 42.6721 24.3959 42.3129 24.3474 41.8672C24.3312 41.5426 24.3676 41.3696 24.4848 41.1489C24.5212 41.0969 24.59 40.9498 24.7315 40.9065C24.7759 41.3176 25.1601 41.5426 25.4956 41.5946C25.9566 41.6811 26.2679 41.2787 26.4741 40.9238C26.7652 40.3743 26.6318 39.4655 26.3124 38.9895C25.7018 38.1154 24.1573 38.0548 23.5266 38.3015C23.2395 38.3923 22.9039 38.7299 22.8675 39.089C22.815 39.6083 22.8958 40.2141 22.5845 40.6209C22.3662 40.6728 22.2287 40.4002 22.1155 40.2444C21.8891 39.7425 21.8203 39.1583 21.8001 38.5568C21.6222 38.4226 21.4039 38.5611 21.2462 38.6563C20.85 38.8986 20.5022 39.2621 20.1383 39.5694C20.0575 39.604 20.0656 39.4785 20.0534 39.4352C20.0373 39.0544 20.0494 38.6952 20.11 38.3404C20.0009 38.2971 19.9281 38.4399 19.8351 38.4702C19.5157 38.7169 19.2408 39.0544 19.0184 39.4049C18.796 39.5997 18.3998 39.6256 18.141 39.5045C18.0116 39.4266 17.9712 39.2838 17.9307 39.1323C17.9267 38.9982 17.9307 38.8381 18.0561 38.7472C18.2138 38.6563 18.4483 38.7082 18.513 38.4832C18.5291 38.0288 18.986 37.8168 19.2569 37.5745C19.1397 37.5312 18.9779 37.5745 18.8526 37.5918C18.4927 37.6697 18.0682 38.1716 17.7407 37.7043L17.6356 37.6826C17.1423 37.8471 16.5965 37.9207 16.0789 38.0418C15.8727 38.1197 15.6099 38.2625 15.5857 38.5265C15.4522 38.9895 16.0264 39.0717 15.994 39.4828C16.0264 39.7728 15.99 40.0713 15.7272 40.2055C15.5574 40.3007 15.4361 40.093 15.335 39.9935C15.0156 39.4828 14.7123 38.7342 15.06 38.15C15.432 37.5701 15.99 37.198 16.5479 36.947C16.7339 36.8778 16.9038 36.9167 17.0736 36.96C17.1787 36.9859 17.2798 37.0119 17.393 37.0119C17.4698 37.0119 17.5466 36.9989 17.6275 36.9686C18.2138 36.7479 18.8809 36.6181 19.5682 36.6614C19.8715 36.683 20.1707 36.8388 20.3243 37.1331C20.478 37.3538 20.6923 37.6697 20.9915 37.5918C21.3918 37.3841 21.8244 37.1071 22.3177 37.2759C22.6209 37.3321 22.815 37.6307 23.1546 37.5745C23.4538 37.6091 23.7287 37.5095 23.9996 37.41C24.3797 37.2715 24.7476 37.1331 25.152 37.3624C25.4673 37.7562 25.9 37.886 26.3649 37.7908C26.4458 37.7952 26.5348 37.7952 26.6237 37.7908C27.0442 37.7865 27.5011 37.7822 27.6507 38.2582C27.8286 38.7731 27.6749 39.3141 27.6103 39.816C27.776 40.1752 27.9054 40.5647 27.8488 41.0234C27.8124 41.2094 27.7396 41.3782 27.6547 41.5513C27.9944 41.5643 28.1359 41.9581 28.237 42.222C28.3704 42.6721 28.2814 43.1827 28.2329 43.6371C28.2814 43.6933 28.3219 43.6198 28.3582 43.5895C29.3771 42.4557 29.3691 40.6945 29.0052 39.2881C28.9809 38.8727 28.9405 38.414 29.2195 38.0894C29.5146 37.7778 29.9109 37.7995 30.3031 37.8211C30.6508 37.8428 31.0025 37.8601 31.2815 37.6437C31.516 37.3538 31.8112 37.185 32.1832 37.2629C32.8058 37.449 33.6347 37.8644 34.2573 37.3321C34.7628 37.1461 35.3005 37.2932 35.7089 37.6048C36.2709 37.7129 36.3922 36.9037 36.8531 36.7566C37.6496 36.6138 38.4785 36.7133 39.182 37.0119C39.3599 37.0811 39.5338 37.0335 39.7076 36.9903C39.9098 36.934 40.1079 36.8821 40.306 37.0119C40.9085 37.3191 41.612 37.7778 41.9031 38.4789C42.0123 39.0198 41.8061 39.4915 41.5635 39.9329ZM43.4557 37.9163C43.2899 38.2019 43.019 38.4399 43.108 38.8121C43.1808 39.1193 43.294 39.4136 43.3506 39.7338C43.3223 39.7987 43.2455 39.7511 43.201 39.7338C42.7967 39.4742 42.36 39.0587 42.356 38.5222C42.263 38.0764 42.9544 38.0764 42.732 37.6091C42.4206 36.973 41.6282 37.3538 41.1228 37.1114C41.0176 37.0465 41.054 36.8648 41.0742 36.7609C41.0985 36.4753 41.7778 36.5316 41.4139 36.194C41.1511 36.1291 40.8963 36.1984 40.6457 36.2719C40.3303 36.3628 40.023 36.4537 39.7076 36.2676C39.275 35.8608 38.6766 35.9647 38.1672 35.8176C38.0742 35.7353 38.058 35.5839 38.1025 35.467C38.6887 34.4198 39.7844 34.2078 40.8923 34.2597C41.0864 34.1169 40.9125 33.7145 41.2077 33.6409C42.0365 33.6712 42.7764 34.026 43.5083 34.3982C43.7468 34.5713 44.0905 34.8136 44.1431 35.1641C44.1471 35.242 44.135 35.3372 44.0662 35.3675C43.7428 35.3675 43.5406 35.004 43.2738 34.8569C43.0312 34.6924 42.7441 34.4415 42.4692 34.6145C42.3034 34.779 42.3964 35.0862 42.1538 35.1858C42.0082 35.2766 41.7778 35.2766 41.6282 35.2247C41.43 34.9607 41.1349 34.9607 40.8478 34.9651C40.7225 34.9651 40.6012 34.9651 40.488 34.9434C40.1362 34.9088 39.7885 34.7876 39.4489 34.8439C39.2224 34.9175 39.0284 35.0473 38.7979 35.0862C38.717 35.1382 38.6928 35.2334 38.7251 35.3069C38.7736 35.4454 38.8949 35.4367 39.0122 35.4324C39.0486 35.4281 39.0809 35.4281 39.1133 35.4281C39.4084 35.2723 39.8128 35.1511 40.1403 35.3069C40.6335 35.4367 41.1066 35.6401 41.6565 35.6574C42.1861 35.8219 42.7845 36.2763 42.8735 36.921C43.104 37.211 43.5891 37.4187 43.4557 37.9163ZM55.9736 37.1331C55.9736 37.1331 55.8563 37.2586 55.7593 37.2759C55.6865 37.2975 55.6016 37.3018 55.3145 37.3018C55.1649 37.3018 54.9628 37.2975 54.6797 37.2975L45.2105 37.2845L43.6862 37.2672C43.3182 37.1158 43.2374 36.683 43.2131 36.3239C43.2293 36.233 43.3223 36.2416 43.3829 36.22L46.9248 36.2113L55.1043 36.1854C55.1609 36.1897 55.2337 36.1897 55.3105 36.1897C55.5976 36.1854 55.9695 36.1854 56.0827 36.4883C56.1434 36.7047 56.1394 36.9427 55.9736 37.1331Z" fill="#B88B00"/>
<path d="M22.7564 30.4911H23.5731C24.1553 30.4911 24.1836 30.7031 24.1836 31.2527C24.1836 31.6682 24.2119 31.8802 24.2645 32.0663H25.1378V31.9624C24.9721 31.8932 24.9721 31.7504 24.9721 31.1618C24.9721 30.4046 24.8023 30.2791 24.495 30.1319C24.8669 29.9978 25.0732 29.6213 25.0732 29.1756C25.0732 28.8251 24.8912 28.0375 23.8925 28.0375H21.9922V32.0663H22.7604V30.4911H22.7564ZM22.7564 28.7342H23.7389C24.1998 28.7342 24.2888 29.0501 24.2888 29.2621C24.2888 29.6603 24.0907 29.8117 23.6782 29.8117H22.7564V28.7342Z" fill="#B88B00"/>
</svg>
