<svg width="26" height="26" viewBox="0 0 26 26" fill="none" xmlns="http://www.w3.org/2000/svg">
<path d="M23.7883 14.8622V22.8562H19.1538V15.3974C19.1538 13.5232 18.4832 12.2449 16.8062 12.2449C15.5257 12.2449 14.763 13.1072 14.4283 13.9403C14.3059 14.2382 14.2744 14.6532 14.2744 15.0702V22.8562H9.63777C9.63777 22.8562 9.7006 10.2245 9.63777 8.91474H14.2744V10.8907L14.2441 10.9362H14.2744V10.8907C14.8898 9.94282 15.9893 8.58757 18.4518 8.58757C21.5014 8.58757 23.7883 10.5809 23.7883 14.8622ZM4.78877 2.19482C3.20385 2.19482 2.16602 3.23482 2.16602 4.60307C2.16602 5.94099 3.17352 7.01241 4.7281 7.01241H4.75843C6.37585 7.01241 7.3801 5.94099 7.3801 4.60307C7.35193 3.23482 6.37693 2.19482 4.78985 2.19482H4.78877ZM2.44118 22.8562H7.07568V8.91474H2.44118V22.8562Z" fill="white"/>
</svg>
