<svg width="63" height="60" viewBox="0 0 63 60" fill="none" xmlns="http://www.w3.org/2000/svg">
<g clip-path="url(#clip0_0_1310)">
<path d="M48.5923 46.1665L44.9223 48.6065L41.1723 46.2065L27.9623 56.3765C28.1623 56.5765 28.4323 56.6965 28.7223 56.6965H62.1823L48.5923 46.1665ZM62.1823 56.6865V37.2365V56.6865ZM62.1823 37.2365L48.6223 46.1465L62.1823 37.2365ZM62.1823 37.2365V56.6965L48.5723 46.1265L45.2423 48.3765L44.9023 48.5965L41.1523 46.1965M62.1823 37.2365V35.9665C62.1823 35.3965 61.7123 34.9365 61.1323 34.9365H28.7023C28.1323 34.9365 27.6523 35.4065 27.6523 35.9665V37.5965L39.7723 45.3165L41.1423 46.1865M62.1823 37.2365L49.8423 45.2765L48.5923 46.1065M48.6223 46.1465L48.5923 46.1765L48.6223 46.1465ZM48.6223 46.1465L48.5723 46.1165L45.2623 48.3665M27.6523 37.5865V55.6365C27.6523 55.9065 27.7523 56.1665 27.9423 56.3565L41.1523 46.1865M27.6523 37.5865L41.1523 46.1765L27.6523 37.5865ZM27.6523 37.5865L39.7723 45.3065L41.1423 46.1765M27.6523 37.5865L41.1523 46.1965L27.6523 37.5865ZM41.1523 46.1865V46.2065V46.1865ZM41.0823 46.1465L44.8423 48.5465L41.0823 46.1465Z" fill="white"/>
<path d="M62.1823 56.6965H28.7223C28.4323 56.6965 28.1623 56.5765 27.9623 56.3765L41.1723 46.2065L44.9223 48.6065L48.5923 46.1665L62.1823 56.6965ZM62.1823 56.6965V37.2365M62.1823 56.6965L48.5723 46.1265L45.2423 48.3765L44.9023 48.5965L41.1523 46.1965L27.6523 37.5865M62.1823 56.6865V37.2365M62.1823 37.2365L48.6223 46.1465M62.1823 37.2365V35.9665C62.1823 35.3965 61.7123 34.9365 61.1323 34.9365H28.7023C28.1323 34.9365 27.6523 35.4065 27.6523 35.9665V37.5965L39.7723 45.3165L41.1423 46.1865M62.1823 37.2365L49.8423 45.2765L48.5923 46.1065M48.6223 46.1465L48.5923 46.1765M48.6223 46.1465L48.5723 46.1165L45.2623 48.3665M27.6523 37.5865V55.6365C27.6523 55.9065 27.7523 56.1665 27.9423 56.3565L41.1523 46.1865V46.2065M27.6523 37.5865L41.1523 46.1765M27.6523 37.5865L39.7723 45.3065L41.1423 46.1765M41.0823 46.1465L44.8423 48.5465" stroke="#1A8C6F" stroke-width="1.5" stroke-linecap="round" stroke-linejoin="round"/>
<path d="M18.4233 28.6837C15.3333 26.1437 13.3633 22.2937 13.3633 17.9837V17.1337C13.3633 9.49371 19.5533 3.30371 27.1933 3.30371H36.1933C43.8333 3.30371 50.0333 9.49371 50.0333 17.1437V17.9937C50.0333 25.6337 43.8433 31.8337 36.1933 31.8337H27.1933L26.8133 31.9937L17.8933 35.3437L18.8633 29.1337L18.4133 28.6937L18.4233 28.6837Z" fill="#146452"/>
<path d="M38.6435 20.1938C39.9082 20.1938 40.9335 19.1685 40.9335 17.9038C40.9335 16.639 39.9082 15.6138 38.6435 15.6138C37.3788 15.6138 36.3535 16.639 36.3535 17.9038C36.3535 19.1685 37.3788 20.1938 38.6435 20.1938Z" fill="white"/>
<path d="M31.6826 20.1938C32.9473 20.1938 33.9726 19.1685 33.9726 17.9038C33.9726 16.639 32.9473 15.6138 31.6826 15.6138C30.4178 15.6138 29.3926 16.639 29.3926 17.9038C29.3926 19.1685 30.4178 20.1938 31.6826 20.1938Z" fill="white"/>
<path d="M24.7724 20.1938C26.0372 20.1938 27.0624 19.1685 27.0624 17.9038C27.0624 16.639 26.0372 15.6138 24.7724 15.6138C23.5077 15.6138 22.4824 16.639 22.4824 17.9038C22.4824 19.1685 23.5077 20.1938 24.7724 20.1938Z" fill="white"/>
<path d="M31.0453 47.8903L26.7353 43.6403C26.4053 43.3003 25.8553 43.2803 25.4953 43.6103L22.2753 46.5403C20.2053 47.2503 16.1553 45.3503 12.5853 41.8303C9.02529 38.3203 7.10529 34.3403 7.79529 32.2703L10.7653 29.1003C11.0953 28.7603 11.0953 28.2303 10.7653 27.9103L6.45529 23.6603C6.12529 23.3203 5.56529 23.3203 5.21529 23.6603L2.20529 26.7303C-1.02471 31.0003 1.52529 39.4003 8.33529 46.0703C15.1253 52.7403 23.5553 55.2703 27.9253 52.0703L31.0253 49.1003C31.3753 48.7703 31.3753 48.2203 31.0253 47.8803H31.0353L31.0453 47.8903Z" fill="white" stroke="#1A8C6F" stroke-width="1.5" stroke-linecap="round" stroke-linejoin="round"/>
</g>
<defs>
<clipPath id="clip0_0_1310">
<rect width="63" height="60" fill="white"/>
</clipPath>
</defs>
</svg>
