<svg width="63" height="60" viewBox="0 0 63 60" fill="none" xmlns="http://www.w3.org/2000/svg">
<path d="M54.1801 4.22827H5.83008C3.62094 4.22827 1.83008 6.01913 1.83008 8.22827V34.8483C1.83008 37.0574 3.62094 38.8483 5.83008 38.8483H54.1801C56.3892 38.8483 58.1801 37.0574 58.1801 34.8483V8.22827C58.1801 6.01913 56.3892 4.22827 54.1801 4.22827Z" fill="white"/>
<path d="M58.1801 10.7183H1.83008V14.8583H58.1801V10.7183Z" fill="#1FB58A"/>
<path d="M6.89062 24.2283H33.3406" stroke="#1A8C6F" stroke-width="1.5" stroke-linecap="round"/>
<path d="M6.89062 30.2983H28.8506" stroke="#1A8C6F" stroke-width="1.5" stroke-linecap="round"/>
<path d="M54.1801 4.22827H5.83008C3.62094 4.22827 1.83008 6.01913 1.83008 8.22827V34.8483C1.83008 37.0574 3.62094 38.8483 5.83008 38.8483H54.1801C56.3892 38.8483 58.1801 37.0574 58.1801 34.8483V8.22827C58.1801 6.01913 56.3892 4.22827 54.1801 4.22827Z" stroke="#1A8C6F" stroke-width="1.5" stroke-linecap="round"/>
<path d="M46.2901 18.322C41.2001 18.322 37.0801 22.452 37.0801 27.532V40.772C37.0801 45.862 41.2101 49.982 46.2901 49.982C51.3701 49.982 55.5001 45.862 55.5001 40.772V27.532C55.5001 22.442 51.3701 18.322 46.2901 18.322ZM50.8401 40.862C50.8401 43.372 48.8001 45.412 46.2901 45.412C43.7801 45.412 41.7401 43.372 41.7401 40.862V27.462C41.7401 24.952 43.7801 22.912 46.2901 22.912C48.8001 22.912 50.8401 24.952 50.8401 27.462V40.862Z" fill="#146452"/>
<path d="M57.1704 33.9919H35.4004C33.1913 33.9919 31.4004 35.7828 31.4004 37.9919V51.7719C31.4004 53.9811 33.1913 55.7719 35.4004 55.7719H57.1704C59.3795 55.7719 61.1704 53.9811 61.1704 51.7719V37.9919C61.1704 35.7828 59.3795 33.9919 57.1704 33.9919Z" fill="#146452"/>
<path d="M48.4099 42.122C48.4099 40.952 47.4599 40.002 46.2899 40.002C45.1199 40.002 44.1699 40.952 44.1699 42.122C44.1699 42.762 44.4599 43.332 44.9199 43.722C44.9199 43.742 44.9099 43.772 44.9099 43.792V48.512C44.9099 49.202 45.4699 49.762 46.1599 49.762H46.4399C47.1299 49.762 47.6899 49.202 47.6899 48.512V43.792C47.6899 43.792 47.6799 43.742 47.6799 43.722C48.1299 43.332 48.4299 42.762 48.4299 42.122H48.4099Z" fill="white"/>
</svg>
