<svg width="26" height="26" viewBox="0 0 26 26" fill="none" xmlns="http://www.w3.org/2000/svg">
<path d="M19.2957 5.43517H6.65643C4.1756 5.43517 2.16602 7.42308 2.16602 9.87575V16.1244C2.16602 18.5771 4.17668 20.5661 6.65643 20.5661H19.2957C21.7765 20.5661 23.7861 18.5771 23.7861 16.1244V9.87575C23.7861 7.42308 21.7754 5.43408 19.2957 5.43408V5.43517ZM16.2591 13.3034L10.3473 16.093C10.3113 16.1104 10.2714 16.1183 10.2315 16.1161C10.1915 16.1139 10.1528 16.1017 10.1188 16.0805C10.0849 16.0593 10.0568 16.0299 10.0373 15.9949C10.0178 15.96 10.0074 15.9207 10.0072 15.8807V10.1292C10.0079 10.089 10.0188 10.0496 10.0388 10.0148C10.0589 9.97989 10.0874 9.95065 10.1218 9.92978C10.1562 9.90891 10.1953 9.89708 10.2355 9.8954C10.2757 9.89372 10.3157 9.90224 10.3517 9.92017L16.2645 12.8831C16.3039 12.9027 16.3369 12.9331 16.3599 12.9706C16.3828 13.0082 16.3946 13.0515 16.3941 13.0955C16.3935 13.1395 16.3805 13.1824 16.3567 13.2194C16.3328 13.2564 16.299 13.2859 16.2591 13.3045V13.3034Z" fill="white"/>
</svg>
