<svg width="249" height="29" viewBox="0 0 249 29" fill="none" xmlns="http://www.w3.org/2000/svg">
<path d="M1.57525 6.96646C2.63338 4.8259 4.09631 3.13147 5.97208 1.87887C7.84384 0.626284 9.92802 0 12.2246 0C13.8599 0 15.4712 0.205906 17.0623 0.617717C18.6535 1.02953 19.9802 1.52713 21.0504 2.11482L18.6976 9.30005C18.2207 8.49788 17.4832 7.47265 16.4812 6.22006C15.4832 4.96746 14.4411 3.84356 13.3629 2.84835C12.2848 1.85314 11.391 1.26975 10.6895 1.09816C9.69154 1.09816 8.78172 1.4928 7.96408 2.28211C7.14644 3.07141 6.49713 4.17816 6.02017 5.60234C5.54322 7.02652 5.30674 8.63514 5.30674 10.4325C5.30674 12.5731 5.69953 14.9367 6.4811 17.5234C7.26668 20.1144 8.38893 22.3193 9.85588 24.1424C11.3228 25.9655 13.0182 26.8792 14.9501 26.8792C16.2688 26.8792 17.3108 26.2958 18.0844 25.129C18.858 23.9622 19.4592 22.7354 19.892 21.4442L21.2227 25.2363C20.1085 26.1371 18.9261 26.8363 17.6796 27.3339C16.4291 27.8315 14.91 28.0803 13.1144 28.0803C10.5493 28.0803 8.26869 27.454 6.28471 26.2014C4.29672 24.9489 2.75362 23.2544 1.6514 21.1139C0.54919 18.9733 8.97374e-05 16.6183 8.97374e-05 14.0402C-0.00792636 11.4621 0.521136 9.10273 1.57525 6.96646Z" fill="white"/>
<path d="M24.8943 23.1545L31.0948 5.06918L29.6639 0.547852H35.0828L42.3053 23.2275L45.68 27.53H35.1188L36.8904 23.3004L35.8683 19.9802H27.0787L25.9885 23.1545L27.9324 27.53H20.6738L24.8943 23.1545ZM35.4876 18.8863L31.6358 6.70785L27.4434 18.8863H35.4876Z" fill="white"/>
<path d="M49.5242 0.542969L47.7526 4.7726L53.2717 22.1673L58.7587 4.91846L56.7146 0.542969H63.9732L59.8489 4.91846L52.6585 27.5251H49.5563L42.3338 4.84553L38.959 0.542969H49.5242Z" fill="white"/>
<path d="M67.0759 23.1545V4.92333L64.0098 0.547852H75.2523L72.1862 4.92333V23.1545L75.2523 27.53H64.0098L67.0759 23.1545Z" fill="white"/>
<path d="M79.5526 23.1545L85.7531 5.06918L84.3222 0.547852H89.7411L96.9636 23.2275L100.338 27.53H89.7731L91.5447 23.3004L90.5226 19.9802H81.733L80.6428 23.1545L82.5867 27.53H75.3281L79.5526 23.1545ZM90.1499 18.8863L86.2981 6.70785L82.1057 18.8863H90.1499Z" fill="white"/>
<path d="M102.742 4.91846L99.6758 0.542969H109.728C113.135 0.542969 115.708 1.31511 117.443 2.8594C119.183 4.40369 120.049 6.43701 120.049 8.96793C120.049 11.1085 119.431 12.9016 118.193 14.3472C116.954 15.7928 115.119 16.7237 112.69 17.1355L116.269 18.1221L118.826 23.1925L123.323 27.5337H112.453L113.443 23.1582L110.75 17.3586L109.728 17.3929H107.852V23.1539L110.918 27.5294H99.6758L102.742 23.1539V4.91846ZM113.219 14.2743C114.025 12.923 114.429 11.1557 114.429 8.96793C114.429 6.78019 114.025 5.01282 113.219 3.66157C112.413 2.31032 111.247 1.63684 109.728 1.63684H107.852V16.2947H109.728C111.251 16.299 112.413 15.6212 113.219 14.2743Z" fill="white"/>
<path d="M135.584 23.1539V4.92274L132.518 0.547263H143.76L140.694 4.92274V13.4936H149.211V4.91846L146.145 0.542969H157.388L154.321 4.91846V23.1497L157.388 27.5251H146.145L149.211 23.1497V14.5788H140.694V23.1497L143.76 27.5251H132.518L135.584 23.1539Z" fill="white"/>
<path d="M164.664 26.2019C162.676 24.9493 161.132 23.2549 160.03 21.1144C158.928 18.9738 158.379 16.6188 158.379 14.0406C158.379 11.4625 158.928 9.1075 160.03 6.96695C161.132 4.82639 162.676 3.13195 164.664 1.87936C166.652 0.626773 168.928 0.000488281 171.493 0.000488281C174.058 0.000488281 176.335 0.618198 178.323 1.85792C180.311 3.09764 181.854 4.78778 182.956 6.92834C184.058 9.0689 184.608 11.4368 184.608 14.0406C184.608 16.6188 184.054 18.9738 182.956 21.1144C181.854 23.2549 180.311 24.9493 178.323 26.2019C176.335 27.4545 174.058 28.0808 171.493 28.0808C168.928 28.0765 166.652 27.4545 164.664 26.2019ZM178.123 10.5574C177.337 7.96644 176.215 5.76154 174.748 3.93842C173.281 2.1153 171.585 1.20589 169.654 1.20589C168.471 1.20589 167.429 1.58767 166.519 2.35553C165.609 3.11909 164.912 4.20438 164.423 5.59853C163.934 6.99697 163.69 8.60561 163.69 10.4287C163.69 12.5693 164.082 14.9329 164.864 17.5196C165.65 20.1106 166.772 22.3155 168.239 24.1386C169.706 25.9617 171.401 26.8754 173.333 26.8754C174.515 26.8754 175.557 26.4936 176.467 25.7258C177.377 24.9622 178.074 23.8769 178.563 22.4785C179.052 21.08 179.297 19.4714 179.297 17.6483C179.297 15.512 178.904 13.1441 178.123 10.5574Z" fill="white"/>
<path d="M193.212 4.91846V20.6359C193.212 22.5319 193.636 24.0634 194.49 25.2302C195.34 26.3969 196.654 26.9804 198.426 26.9804C199.56 26.9804 200.59 26.6929 201.508 26.1224C202.43 25.5519 203.148 24.784 203.673 23.8231C204.194 22.8622 204.458 21.7984 204.458 20.6316V4.91846L201.392 0.542969H208.546L205.48 4.91846V20.6359C205.48 22.0472 205.192 23.3084 204.61 24.428C204.033 25.5476 203.156 26.4356 201.985 27.0919C200.815 27.7482 199.388 28.0785 197.709 28.0785C195.64 28.0785 193.885 27.7482 192.446 27.0919C191.003 26.4356 189.917 25.5476 189.191 24.428C188.466 23.3084 188.101 22.0472 188.101 20.6359V4.91846L185.035 0.542969H196.278L193.212 4.91846Z" fill="white"/>
<path d="M213.881 21.827C214.947 23.0796 216.049 24.2078 217.188 25.2202C218.322 26.2283 219.244 26.8203 219.949 26.9876C220.811 26.9876 221.46 26.6401 221.893 25.9494C222.326 25.2545 222.542 24.3151 222.542 23.1225C222.542 22.2474 222.286 21.4152 221.777 20.6259C221.268 19.8366 220.631 19.1031 219.869 18.421C219.107 17.739 218.093 16.9154 216.819 15.9416C215.276 14.7491 214.049 13.7367 213.139 12.8959C212.23 12.0551 211.452 11.0856 210.807 9.97891C210.157 8.87217 209.837 7.67534 209.837 6.38844C209.837 4.34654 210.534 2.77222 211.933 1.66548C213.332 0.558739 215.276 0.00537109 217.777 0.00537109C219.709 0.00537109 221.5 0.211277 223.16 0.623088C224.819 1.0349 226.19 1.53251 227.284 2.1202L224.931 9.30544C224.478 8.529 223.749 7.51234 222.751 6.25975C221.753 5.00716 220.735 3.87897 219.701 2.8666C218.667 1.85852 217.853 1.26655 217.264 1.09925C216.558 1.09925 216.029 1.42955 215.681 2.08588C215.328 2.7422 215.151 3.57869 215.151 4.59964C215.151 5.40181 215.396 6.17825 215.885 6.93324C216.374 7.68822 216.987 8.39601 217.725 9.0652C218.462 9.73439 219.456 10.5537 220.707 11.5275C222.25 12.7415 223.5 13.7882 224.454 14.6633C225.408 15.5384 226.214 16.5421 226.875 17.6703C227.532 18.8028 227.865 20.0211 227.865 21.3337C227.865 25.8336 225.172 28.0814 219.789 28.0814C217.516 28.0814 215.468 27.8755 213.64 27.4637C211.813 27.0519 210.354 26.55 209.264 25.9666L211.616 18.7814C212.053 19.5578 212.815 20.5744 213.881 21.827Z" fill="white"/>
<path d="M232.508 23.1545V4.92333L229.442 0.547852H248.351L249.001 7.22261L239.698 1.64172H237.618V13.1295H239.698L246.139 9.15298V18.1956L239.698 14.2191H237.618V26.4361H240.035L248.997 20.8553L248.347 27.53H229.438L232.508 23.1545Z" fill="white"/>
</svg>
