<svg width="20" height="21" viewBox="0 0 20 21" fill="none" xmlns="http://www.w3.org/2000/svg">
<path d="M10.0112 10.6279C7.5013 10.6279 5.29031 8.26984 5.07681 5.37089C4.96768 3.90006 5.42316 2.53836 6.35785 1.53725C7.2783 0.54563 8.57833 0 10.0112 0C11.4346 0 12.7299 0.550374 13.6551 1.54674C14.5945 2.55734 15.05 3.9143 14.9408 5.37089C14.7273 8.26984 12.5163 10.6279 10.0112 10.6279ZM10.0112 1.51827C9.00534 1.51827 8.09912 1.8931 7.46809 2.57158C6.82757 3.25954 6.51442 4.21795 6.59034 5.26177C6.74216 7.34939 8.30788 9.11438 10.0065 9.11438C11.705 9.11438 13.2707 7.34939 13.4226 5.26177C13.4985 4.23219 13.1853 3.27852 12.5353 2.58106C11.909 1.8931 11.0076 1.51827 10.0112 1.51827Z" fill="#0F0F0F"/>
<path d="M18.2196 21H1.51863C1.06314 21 0.655108 20.8102 0.370432 20.4734C0.0620326 20.1033 -0.0613271 19.6004 0.0288204 19.0927C0.427367 16.8722 1.67994 15.0028 3.64421 13.6981C5.39022 12.5356 7.60121 11.8951 9.86913 11.8951C12.137 11.8951 14.348 12.5356 16.0941 13.6981C18.0583 15.0076 19.3109 16.8722 19.7094 19.0927C19.7996 19.6004 19.6762 20.1033 19.3678 20.4734C19.0831 20.8102 18.6751 21 18.2196 21ZM1.52812 19.4817H18.2101C18.2196 19.458 18.2244 19.4201 18.2149 19.3584C17.4795 15.2733 13.3706 13.4086 9.86913 13.4086C6.36761 13.4086 2.25878 15.2733 1.52337 19.3584C1.51388 19.4201 1.51863 19.458 1.52812 19.4817Z" fill="#0F0F0F"/>
</svg>
