<svg width="36" height="29" viewBox="0 0 36 29" fill="none" xmlns="http://www.w3.org/2000/svg">
<path d="M31.8605 17.1158C32.081 16.6948 32.3918 16.364 32.7827 16.1133C33.1737 15.8727 33.6148 15.7424 34.096 15.7424C34.4369 15.7424 34.7777 15.7825 35.1086 15.8627C35.4394 15.9429 35.7201 16.0432 35.9406 16.1534L35.4494 17.567C35.3492 17.4066 35.1988 17.2061 34.9883 16.9655C34.7777 16.7249 34.5572 16.5043 34.3366 16.3038C34.1061 16.1133 33.9256 15.993 33.7752 15.963C33.5647 15.963 33.3742 16.0432 33.2038 16.1935C33.0334 16.3439 32.893 16.5645 32.7928 16.8452C32.6925 17.1259 32.6424 17.4366 32.6424 17.7975C32.6424 18.2186 32.7226 18.6797 32.893 19.191C33.0534 19.7023 33.294 20.1334 33.6048 20.4842C33.9156 20.8451 34.2665 21.0156 34.6775 21.0156C34.9582 21.0156 35.1687 20.9053 35.3391 20.6747C35.4995 20.4441 35.6299 20.2035 35.7201 19.9529L36.0008 20.6948C35.7702 20.8752 35.5196 21.0055 35.2589 21.1058C34.9983 21.206 34.6775 21.2562 34.2965 21.2562C33.7552 21.2562 33.284 21.1359 32.863 20.8852C32.4419 20.6446 32.1211 20.3038 31.8905 19.8827C31.6599 19.4617 31.5396 19.0005 31.5396 18.4993C31.5396 17.998 31.6499 17.5269 31.8705 17.1158" fill="white"/>
<path d="M34.4961 19.4153C34.9999 19.4153 35.4084 19.0069 35.4084 18.5031C35.4084 17.9992 34.9999 17.5908 34.4961 17.5908C33.9923 17.5908 33.5838 17.9992 33.5838 18.5031C33.5838 19.0069 33.9923 19.4153 34.4961 19.4153Z" fill="white"/>
<path d="M1.0025 1.0025V27.629" stroke="#D9AD38" stroke-width="2" stroke-miterlimit="10" stroke-linecap="round"/>
</svg>
