<svg width="115" height="33" viewBox="0 0 115 33" fill="none" xmlns="http://www.w3.org/2000/svg">
<path d="M114.845 18.3908C114.421 18.2396 110.792 19.0664 103.572 16.2734C100.779 15.1643 98.3493 13.3292 95.637 12.0084C90.8073 9.65905 85.4735 8.14662 80.7043 5.92838C79.8573 5.53515 77.8004 3.92189 77.3164 3.88156C76.7216 3.83114 76.4594 4.63778 75.9452 4.7991C74.2714 5.31333 72.9506 3.02451 71.9927 3.20601C71.5289 3.29675 71.1961 4.13363 70.7525 4.33529C69.0787 5.12175 67.1831 3.40766 65.6808 2.81277C64.6423 6.69468 61.0124 3.23625 59.7722 3.52866C59.1975 3.66982 58.9858 5.5049 57.07 5.49482C56.344 5.49482 54.8417 4.77894 54.3375 4.89993C53.8132 5.02093 53.4704 6.52327 52.5428 6.8056C51.3833 7.14841 50.1834 6.40228 49.6188 6.57369C49.1449 6.71485 48.8525 7.69289 48.3987 8.08612C47.6627 8.72134 39.4955 10.6169 38.3259 10.5363C35.4019 10.3447 32.4879 3.59924 28.4044 3.11526C28.2531 6.3317 27.3457 8.77176 24.1897 10.8992C25.3089 13.0771 28.3943 13.9947 29.6244 13.662L28.3842 12.0285C29.2413 12.6234 29.9672 13.5813 31.4998 13.3191C30.552 12.815 28.727 9.89096 28.727 9.89096C28.727 9.89096 31.6208 13.0872 33.2744 13.0368C31.5402 11.4941 28.8884 7.73322 28.8884 7.73322C28.8884 7.73322 33.224 12.2806 34.8373 12.6537C35.7548 12.8654 29.5236 5.5049 29.5236 5.5049C32.6896 6.6241 34.9179 11.726 37.1664 11.9277C39.6871 12.1596 51.8067 8.40877 59.1471 7.29966C64.2389 6.53336 69.1695 6.00905 74.3017 6.52327C78.5667 6.95684 82.8519 8.05587 86.8548 9.5683C87.2481 9.71955 88.4177 10.2539 88.4984 10.4959C79.4036 8.0962 70.4903 7.01733 61.1334 8.26761C50.2943 9.70946 35.4725 15.487 25.1274 14.6602C23.2823 14.5089 21.5883 14.3778 20.0053 13.3091C14.1976 9.35656 8.4806 1.09868 1.14026 0.0903955C0.817609 0.050064 0.414294 -0.0910963 0.12189 0.0903955C-0.170514 0.271887 0.12189 0.897026 0.384045 1.33059C2.58211 5.05117 5.91955 8.78184 7.94621 12.5125C11.0618 18.2396 8.27894 21.2644 5.91955 26.5176C8.10753 26.7697 10.3762 25.8622 12.181 24.733C13.9556 23.6238 15.9923 21.2443 17.6056 20.3267C22.8185 17.3825 29.2413 20.6595 34.5247 21.8593C44.6277 24.1582 55.9508 25.3984 66.2959 25.5194C68.6351 21.1737 72.3456 19.873 76.2477 19.8327C76.2477 19.8327 73.3438 20.4074 70.7827 22.0912C68.2217 23.7852 67.4251 27.2033 65.711 32.285C65.5598 32.7388 65.3682 32.6783 66.0639 32.6379C70.6617 32.3153 75.068 29.1392 77.9819 25.8723C78.9297 24.8136 78.839 24.4607 78.8793 24.4607H84.5358C81.4303 21.5568 81.3496 17.9774 83.3359 14.8719C83.709 14.2871 84.6265 12.6738 86.1289 12.6033C83.6082 14.7812 82.8721 18.9555 84.7374 21.7686C88.1354 26.8907 101.092 21.3451 101.485 22.2727C101.858 23.1499 99.5694 24.9044 99.892 25.0959C103.058 23.4625 102.826 22.0912 103.451 21.8896C106.516 20.9115 112.697 20.7502 114.472 19.2983C114.855 18.9857 115.238 18.5118 114.815 18.3707L114.845 18.3908ZM37.9831 17.2817C37.5193 17.2817 37.1462 16.9086 37.1462 16.4448C37.1462 15.981 37.5193 15.608 37.9831 15.608C38.4469 15.608 38.82 15.981 38.82 16.4448C38.82 16.9086 38.4469 17.2817 37.9831 17.2817ZM42.1675 17.322C41.5827 17.322 41.1189 16.8481 41.1189 16.2734C41.1189 15.6987 41.5928 15.2248 42.1675 15.2248C42.7422 15.2248 43.2161 15.6987 43.2161 16.2734C43.2161 16.8481 42.7422 17.322 42.1675 17.322ZM46.7351 16.9591C46.0393 16.9591 45.4747 16.3944 45.4747 15.6987C45.4747 15.003 46.0393 14.4383 46.7351 14.4383C47.4308 14.4383 47.9954 15.003 47.9954 15.6987C47.9954 16.3944 47.4308 16.9591 46.7351 16.9591ZM51.2824 16.2331C50.4657 16.2331 49.8103 15.5777 49.8103 14.761C49.8103 13.9443 50.4657 13.2889 51.2824 13.2889C52.0992 13.2889 52.7545 13.9443 52.7545 14.761C52.7545 15.5777 52.0992 16.2331 51.2824 16.2331ZM56.5659 15.5878C55.6382 15.5878 54.882 14.8316 54.882 13.9039C54.882 12.9763 55.6382 12.2201 56.5659 12.2201C57.4935 12.2201 58.2497 12.9763 58.2497 13.9039C58.2497 14.8316 57.4935 15.5878 56.5659 15.5878ZM62.0005 14.8517C61.0225 14.8517 60.236 14.0653 60.236 13.0872C60.236 12.1092 61.0225 11.3227 62.0005 11.3227C62.9786 11.3227 63.765 12.1092 63.765 13.0872C63.765 14.0653 62.9786 14.8517 62.0005 14.8517ZM67.5663 14.4081C66.5479 14.4081 65.711 13.5813 65.711 12.5528C65.711 11.5244 66.5378 10.6976 67.5663 10.6976C68.5947 10.6976 69.4215 11.5244 69.4215 12.5528C69.4215 13.5813 68.5947 14.4081 67.5663 14.4081ZM73.8076 14.2165C72.7388 14.2165 71.8717 13.3494 71.8717 12.2806C71.8717 11.2118 72.7388 10.3447 73.8076 10.3447C74.8764 10.3447 75.7435 11.2118 75.7435 12.2806C75.7435 13.3494 74.8764 14.2165 73.8076 14.2165ZM71.8011 24.7834C70.0467 26.4067 68.9577 28.5947 68.6452 28.5947C68.3326 28.5947 69.1191 25.832 70.9037 24.2591C73.1825 22.2324 75.7738 21.6778 76.1065 21.9098C76.3485 22.0812 73.5555 23.16 71.791 24.7834H71.8011Z" fill="#146452"/>
<path d="M47.2085 25.1666C45.9583 25.459 44.2946 28.1713 42.6208 28.2015C43.377 26.9512 45.4239 26.4269 45.6658 24.8238C45.4037 24.5414 43.1955 27.042 42.6208 26.3463L43.9719 24.8238L41.9352 25.1565L41.7234 24.1885L39.5556 24.1482C40.4631 25.5195 40.3522 27.4453 40.2312 29.0586C40.1606 30.0366 39.2531 31.0046 40.0598 31.5894C42.2881 30.692 44.829 29.2703 46.5027 27.5361C46.896 27.1227 49.0839 24.733 47.1884 25.1767L47.2085 25.1666Z" fill="#146452"/>
<path d="M28.0515 25.1564L31.1066 22.1114L28.0515 23.4625L29.7454 21.7786L27.376 22.1114L28.0515 21.1031L25.682 20.7603C26.408 23.3616 25.6619 25.1766 24.6637 27.5259C27.9809 27.2335 31.1772 25.2774 33.466 22.9583C31.7923 21.4661 29.9572 25.1665 28.0515 25.1564Z" fill="#146452"/>
</svg>
